<svg width="80" height="80" viewBox="0 0 80 80" fill="none" xmlns="http://www.w3.org/2000/svg">
<path fill-rule="evenodd" clip-rule="evenodd" d="M68.9998 45.6463V37.9068C69.0069 37.4733 68.7784 37.0565 68.407 36.83L53.2503 27.1863L46.9441 23.1738L39.6899 18.5583C39.4347 18.3956 39.1289 18.3321 38.8298 18.3782C33.2807 19.2399 28.2413 20.7003 23.8517 22.7187C19.0044 24.9475 14.7955 27.9256 11.3417 31.5704C11.1193 31.8043 10.9995 32.1144 11 32.4275V54.9268C11 55.5678 11.4862 56.1042 12.124 56.1669L42.4131 59.1808L43.8086 59.3196C44.1377 59.3518 44.4662 59.2522 44.7219 59.0423C44.9774 58.8323 45.139 58.5294 45.1709 58.2001C45.3122 56.7478 46.521 55.6527 47.9829 55.6527C49.541 55.6527 50.8086 56.9202 50.8086 58.4783C50.8086 58.5701 50.8039 58.6637 50.795 58.7565C50.7284 59.4409 51.2288 60.0499 51.9132 60.1173L53.2503 60.2461L67.6317 61.6305C67.6724 61.6344 67.7132 61.6365 67.7538 61.6365C68.0617 61.6365 68.3603 61.5223 68.5906 61.3136C68.8513 61.0774 68.9999 60.742 68.9999 60.3904V52.6353L68.9998 45.6463ZM44.7199 24.7125L38.7502 20.9142C28.9377 22.5079 20.9724 26.0468 15.0259 31.449L62.6796 36.1396L52.3609 29.574L44.7199 24.7125ZM66.5076 59.0157V53.7153V44.5663V39.0206L13.4922 33.8022V53.7974L42.4131 56.6774L42.9563 56.7315C43.6788 54.6292 45.6613 53.1605 47.9829 53.1605C50.6664 53.1605 52.8919 55.1582 53.2503 57.7448L53.8734 57.8045L66.5076 59.0157Z" fill="black"/>
<path d="M25.2465 44.4922C25.9347 44.4922 26.4926 43.9343 26.4926 43.2461C26.4926 42.5579 25.9347 42 25.2465 42H25.2457C24.5576 42 24 42.5579 24 43.2461C24 43.9343 24.5582 44.4922 25.2465 44.4922Z" fill="black"/>
<path d="M48.2465 46.4922C48.9347 46.4922 49.4926 45.9343 49.4926 45.2461C49.4926 44.5579 48.9347 44 48.2465 44H48.2457C47.5576 44 47 44.5579 47 45.2461C47 45.9343 47.5582 46.4922 48.2465 46.4922Z" fill="black"/>
<path d="M37.125 41.2467C37.125 40.5585 36.567 40.0006 35.8789 40.0006H35.8781C35.1899 40.0006 34.6323 40.5585 34.6323 41.2467C34.6323 41.9349 35.1907 42.4928 35.8789 42.4928C36.567 42.4928 37.125 41.9349 37.125 41.2467Z" fill="black"/>
<path d="M36.7567 48.5959H36.7559C36.0677 48.5959 35.5103 49.1539 35.5103 49.842C35.5103 50.5302 36.0685 51.0881 36.7567 51.0881C37.4449 51.0881 38.0028 50.5302 38.0028 49.842C38.0028 49.1539 37.4449 48.5959 36.7567 48.5959Z" fill="black"/>
<path d="M58.3086 41.4733H58.3078C57.6196 41.4733 57.062 42.0312 57.062 42.7194C57.062 43.4075 57.6204 43.9654 58.3086 43.9654C58.9967 43.9654 59.5546 43.4075 59.5546 42.7194C59.5546 42.0312 58.9967 41.4733 58.3086 41.4733Z" fill="black"/>
<path d="M55.788 51.9377H55.7873C55.0991 51.9377 54.5415 52.4957 54.5415 53.1838C54.5415 53.872 55.0999 54.4299 55.788 54.4299C56.4762 54.4299 57.0341 53.872 57.0341 53.1838C57.0341 52.4957 56.4762 51.9377 55.788 51.9377Z" fill="black"/>
<path d="M18.7452 48.5676H18.7444C18.0562 48.5676 17.4988 49.1255 17.4988 49.8137C17.4988 50.5019 18.057 51.0598 18.7452 51.0598C19.4334 51.0598 19.9913 50.5019 19.9913 49.8137C19.9913 49.1255 19.4334 48.5676 18.7452 48.5676Z" fill="black"/>
<path d="M18.8595 39.5338C18.8595 38.8456 18.3016 38.2877 17.6134 38.2877H17.6126C16.9244 38.2877 16.3669 38.8456 16.3669 39.5338C16.3669 40.222 16.9252 40.7799 17.6134 40.7799C18.3016 40.7799 18.8595 40.222 18.8595 39.5338Z" fill="black"/>
</svg>
