<svg width="80" height="80" viewBox="0 0 80 80" fill="none" xmlns="http://www.w3.org/2000/svg">
<path d="M48.8936 47.1381C48.4838 47.1411 48.0833 46.9263 47.857 46.5841C47.529 46.1062 47.5979 45.415 48.0122 45.0106C48.6116 44.3873 49.7328 44.6071 50.0445 45.4162C50.394 46.2072 49.758 47.1594 48.8936 47.1381Z" fill="#ADADAD"/>
<path d="M50.2924 52.451C49.4333 52.4765 48.7864 51.5117 49.1416 50.728C49.5495 49.7123 51.0342 49.7119 51.4423 50.728C51.7932 51.5187 51.1572 52.471 50.2924 52.451Z" fill="#ADADAD"/>
<path d="M54.6538 48.4498C53.7899 48.4683 53.1518 47.5176 53.5041 46.7267C53.9113 45.7107 55.3972 45.7107 55.8047 46.7267C56.156 47.5186 55.5187 48.4688 54.6538 48.4498Z" fill="#ADADAD"/>
<path d="M35.9581 27.0984C35.5295 27.0984 35.1122 26.8771 34.8807 26.4801C33.7947 24.6188 33.7947 22.3063 34.8807 20.4451C35.5146 19.3585 35.5146 18.0084 34.8807 16.9218C34.5338 16.3273 34.7346 15.5643 35.3291 15.2175C35.9233 14.8707 36.6864 15.0713 37.0333 15.6659C38.1192 17.5273 38.1192 19.8398 37.0333 21.701C36.3992 22.7876 36.3992 24.1376 37.0333 25.2243C37.3801 25.8187 37.1794 26.5818 36.5849 26.9285C36.3875 27.0436 36.1713 27.0984 35.9581 27.0984Z" fill="#ADADAD"/>
<path d="M49.5412 27.0985C49.1126 27.0985 48.6954 26.8771 48.4637 26.4802C47.3777 24.6188 47.3777 22.3063 48.4637 20.4451C49.0977 19.3585 49.0977 18.0085 48.4637 16.9218C48.1168 16.3274 48.3176 15.5643 48.912 15.2176C49.5065 14.8706 50.2694 15.0714 50.6163 15.6659C51.7023 17.5273 51.7023 19.8398 50.6163 21.701C49.9822 22.7876 49.9822 24.1376 50.6163 25.2243C50.9631 25.8187 50.7624 26.5818 50.168 26.9285C49.9706 27.0436 49.7543 27.0985 49.5412 27.0985Z" fill="#ADADAD"/>
<path d="M42.7497 28.6539C42.3209 28.6539 41.9038 28.4325 41.6722 28.0356C40.3062 25.6945 40.3062 22.7861 41.6722 20.445C42.586 18.8786 42.586 16.9327 41.6722 15.3663C41.3253 14.7718 41.526 14.0089 42.1205 13.6621C42.7149 13.3151 43.4779 13.5161 43.8248 14.1105C45.1907 16.4516 45.1907 19.36 43.8248 21.7011C42.9109 23.2674 42.9109 25.2134 43.8248 26.7797C44.1716 27.3742 43.9709 28.1372 43.3764 28.4839C43.179 28.5991 42.9629 28.6539 42.7497 28.6539Z" fill="#ADADAD"/>
<path d="M68.4474 57.883C68.799 57.2493 69.0001 56.521 69.0001 55.7464C69.0001 53.3103 67.0182 51.3284 64.5821 51.3284C64.0961 51.3284 63.6287 51.4085 63.1911 51.5541C62.8059 40.6105 53.7844 31.8259 42.7485 31.8259C39.4454 31.8259 36.2149 32.62 33.3128 34.1304L25.0352 31.8289C24.7479 31.749 24.4517 31.7773 24.1937 31.8925L24.1117 31.8452C23.7378 31.6294 23.5094 31.2327 23.5294 30.8346C23.6104 29.235 22.735 27.7401 21.2991 27.0259C19.4875 26.1248 17.2791 26.7176 16.162 28.4049C15.6405 29.1927 15.4211 30.122 15.5123 31.0309C14.6797 31.4064 13.9845 32.0611 13.563 32.9066C12.6602 34.7177 13.2511 36.9267 14.9372 38.045C16.2737 38.9314 18.0061 38.9419 19.3507 38.0722C19.6854 37.8556 20.1433 37.8552 20.517 38.071L20.599 38.1184C20.6283 38.3994 20.7518 38.6701 20.9647 38.879L24.7157 42.5602L20.4036 43.6723C20.1149 43.7467 19.8726 43.9193 19.7067 44.1482H19.612C19.1803 44.1482 18.784 43.9189 18.6024 43.564C17.8729 42.1383 16.3677 41.2822 14.7667 41.3808C12.7472 41.5062 11.131 43.1239 11.0073 45.1436C10.9496 46.0865 11.2244 47.0011 11.7577 47.7426C11.2244 48.4843 10.9496 49.3988 11.0073 50.3416C11.131 52.3613 12.7471 53.979 14.7667 54.1044C14.8509 54.1096 14.9345 54.1122 15.018 54.1122C16.5233 54.1121 17.9113 53.2719 18.6024 51.9211C18.784 51.5663 19.1804 51.337 19.612 51.337H19.7067C19.8726 51.5659 20.1149 51.7384 20.4036 51.8129L22.2916 52.2998C22.293 54.129 22.5345 55.9294 23.0098 57.6724H16.343C15.6548 57.6724 15.0969 58.2304 15.0969 58.9185C15.0969 63.1036 18.5017 66.5084 22.6868 66.5084H61.4102C65.5953 66.5084 69.0001 63.1036 69.0001 58.9185C69.0001 58.4868 68.7807 58.1068 68.4474 57.883ZM64.5821 53.8207C65.644 53.8207 66.5079 54.6846 66.5079 55.7465C66.5079 56.8084 65.644 57.6723 64.5821 57.6723C63.5202 57.6723 62.6563 56.8084 62.6563 55.7465C62.6563 54.6846 63.5202 53.8207 64.5821 53.8207ZM56.3125 55.7465C56.3125 54.6846 57.1764 53.8207 58.2383 53.8207C59.3002 53.8207 60.1641 54.6846 60.1641 55.7465C60.1641 56.8084 59.3002 57.6723 58.2383 57.6723C57.1764 57.6723 56.3125 56.8084 56.3125 55.7465ZM17.9972 35.9795C17.4851 36.3106 16.8248 36.3062 16.3147 35.968C15.6854 35.5506 15.4565 34.6942 15.7934 34.0184C16.0437 33.5162 16.547 33.1905 17.1071 33.1685C17.5345 33.1518 17.9235 32.9168 18.1373 32.5464C18.3512 32.176 18.3601 31.7217 18.1609 31.3431C17.9 30.8473 17.9303 30.2485 18.2402 29.7805C18.657 29.1509 19.513 28.921 20.1892 29.2572C20.7371 29.5297 21.0712 30.0994 21.0404 30.7085C20.9748 32.0048 21.6254 33.2244 22.7438 33.9276L21.6367 35.8452C20.4685 35.2281 19.0871 35.2746 17.9972 35.9795ZM25.2977 34.4886L30.4659 35.9256C28.7827 37.1908 27.3065 38.7051 26.0874 40.4142L23.3996 37.7764L25.2977 34.4886ZM16.3839 50.7858C16.1062 51.3287 15.5316 51.655 14.9212 51.617C14.1676 51.5702 13.541 50.943 13.4949 50.1893C13.4606 49.6292 13.7337 49.0954 14.2077 48.7965C14.5695 48.5682 14.7888 48.1704 14.7888 47.7425C14.7888 47.3147 14.5694 46.9169 14.2075 46.6886C13.7337 46.3897 13.4606 45.8559 13.4949 45.2958C13.541 44.542 14.1676 43.9149 14.9212 43.8681C15.5322 43.8304 16.1062 44.1564 16.3839 44.6993C16.9753 45.8548 18.1484 46.5857 19.4687 46.6355V48.8496C18.1485 48.8993 16.9753 49.6303 16.3839 50.7858ZM21.961 45.8442L30.6841 43.5946C31.9765 43.2615 33.3226 43.539 34.3775 44.3564C35.4324 45.1738 36.0374 46.408 36.0374 47.7426C36.0374 49.0772 35.4324 50.3113 34.3775 51.1287C33.3226 51.946 31.9764 52.2238 30.6841 51.8905L21.961 49.6408V45.8442ZM24.7965 52.9458L30.0616 54.3037C30.6283 54.4499 31.2014 54.5217 31.7698 54.5217C33.2509 54.5217 34.6979 54.0331 35.9039 53.0987C37.5725 51.8057 38.5296 49.8535 38.5296 47.7425C38.5296 45.6315 37.5726 43.6793 35.9039 42.3863C34.2352 41.0934 32.1056 40.6542 30.0617 41.1813L28.2692 41.6436C31.6225 37.0667 36.9469 34.3181 42.7486 34.3181C52.589 34.3181 60.6052 42.2712 60.7109 52.0869C60.0048 51.6083 59.1538 51.3284 58.2384 51.3284C55.8023 51.3284 53.8204 53.3103 53.8204 55.7464C53.8204 56.4364 53.9797 57.0898 54.2629 57.6722H25.6062C25.1258 56.1439 24.8549 54.5597 24.7965 52.9458ZM61.4102 64.0161H22.6868C20.3056 64.0161 18.3007 62.375 17.7432 60.1645H66.354C65.7965 62.3749 63.7913 64.0161 61.4102 64.0161Z" fill="black"/>
</svg>
