<svg width="80" height="80" viewBox="0 0 80 80" fill="none" xmlns="http://www.w3.org/2000/svg">
<path d="M40.0416 69.0419C34.7952 68.9319 34.9023 63.6705 35.1125 59.7004H30.2477C30.4281 63.2655 29.6696 66.8859 25.3369 67.0801C20.9541 66.9709 20.1223 63.3381 20.3113 59.7306C16.7028 59.9195 13.0706 59.0865 12.9616 54.7049C13.1559 50.3713 16.7777 49.6133 20.3414 49.7941V44.9295C16.3611 45.1428 11.0867 45.2371 11 39.9761C11.1277 34.7489 16.3823 34.8618 20.3414 35.0704V30.2056C16.7764 30.3861 13.156 29.6274 12.9616 25.2949C13.0708 20.9118 16.7038 20.0805 20.3111 20.2692C20.1225 16.6606 20.955 13.0284 25.3369 12.9196C29.6702 13.1138 30.4284 16.7355 30.2475 20.2993H35.1122C34.8987 16.3194 34.8046 11.0445 40.0653 10.958C45.2925 11.0856 45.1797 16.3402 44.9711 20.2993H49.836C49.6556 16.7342 50.4141 13.1138 54.7468 12.9196C59.1296 13.0289 59.9614 16.6616 59.7724 20.2691C63.3809 20.0802 67.0131 20.9132 67.1221 25.2949C66.9278 29.6283 63.3058 30.3866 59.7423 30.2056V35.0614H64.082C64.1053 35.0614 64.1283 35.0619 64.1508 35.0628V35.0614C70.616 35.117 70.6165 44.8818 64.1513 44.9383C64.1447 44.9404 59.749 44.9367 59.7423 44.9383V49.794C63.3071 49.6133 66.9278 50.3725 67.1221 54.7047C67.013 59.0877 63.3797 59.9192 59.7726 59.7304C59.9612 63.339 59.1287 66.9712 54.7468 67.08C50.4135 66.8858 49.6553 63.2641 49.8362 59.7003H44.9715C45.1829 63.67 45.2842 68.9359 40.0416 69.0419ZM28.9702 57.2046H36.3512C37.0134 57.2046 37.5602 57.7218 37.5972 58.383C37.6345 59.0527 37.6089 59.8049 37.5815 60.6014C37.551 63.1126 37.1743 66.5765 40.0422 66.5459C40.7892 66.5286 41.3281 66.3352 41.689 65.955C43.0392 64.4559 42.3423 60.6039 42.4863 58.3835C42.523 57.7221 43.0698 57.2046 43.7323 57.2046H51.1133C51.7898 57.1912 52.3848 57.7935 52.3611 58.4705C52.2465 62.0108 52.2187 64.5731 54.804 64.5841C57.3735 64.5888 57.3685 61.9966 57.2464 58.4707C57.2416 58.1335 57.3733 57.8088 57.6117 57.5704C57.8499 57.3319 58.1754 57.2001 58.5121 57.2049C62.051 57.318 64.6146 57.3488 64.6258 54.7618C64.6295 52.1886 62.0378 52.1996 58.5123 52.3194C57.8362 52.3419 57.2326 51.7492 57.2464 51.0715V43.6905C57.2464 43.0013 57.8051 42.4426 58.4943 42.4426H64.1415C65.8952 42.4335 66.5173 41.1212 66.5172 39.9996C66.5171 38.8782 65.8948 37.566 64.1415 37.5574C64.0056 37.5574 58.4943 37.5574 58.4943 37.5574C57.8051 37.5574 57.2464 36.9986 57.2464 36.3095V28.9284C57.2332 28.2588 57.8242 27.6667 58.4943 27.6805C62.0301 27.7942 64.6173 27.8313 64.6258 25.2376C64.6307 22.6681 62.0379 22.673 58.5123 22.7952C58.1727 22.7978 57.8505 22.6681 57.612 22.4298C57.3735 22.1913 57.2417 21.8666 57.2465 21.5294C57.3601 17.9906 57.3907 15.4272 54.8036 15.4158C52.2306 15.4121 52.241 18.0035 52.3612 21.5291C52.3836 22.2057 51.7911 22.8088 51.1133 22.7951H43.7323C43.0701 22.7951 42.5233 22.2779 42.4863 21.6167C42.4489 20.947 42.4746 20.1948 42.5019 19.3983C42.5324 16.887 42.9092 13.4233 40.0413 13.4538C37.1723 13.4225 37.5516 16.896 37.5814 19.4068C37.6087 20.2003 37.6342 20.95 37.5973 21.6164C37.5606 22.2778 37.0136 22.7952 36.3513 22.7952H28.9703C28.2941 22.8086 27.6987 22.2063 27.7225 21.5294C27.8377 17.9895 27.864 15.4262 25.2796 15.4158C22.7102 15.411 22.7151 18.0032 22.8372 21.5291C22.842 21.8663 22.7102 22.191 22.4719 22.4294C22.2334 22.6679 21.9131 22.7972 21.5715 22.795C18.0323 22.6815 15.469 22.6507 15.4577 25.238C15.4542 27.8113 18.0459 27.8006 21.5712 27.6804C22.2485 27.6621 22.8509 28.2485 22.8372 28.9283V36.3093C22.8372 36.9715 22.3199 37.5185 21.6588 37.5553C20.9892 37.5926 20.237 37.567 19.4404 37.5398C16.9286 37.5091 13.4653 37.1325 13.4958 40.0007C13.4645 42.8691 16.9381 42.4902 19.4488 42.4603C20.2423 42.433 20.992 42.4073 21.6585 42.4444C22.3198 42.481 22.8373 43.0281 22.8373 43.6904V51.0714C22.8505 51.7411 22.2596 52.3331 21.5894 52.3193C18.0536 52.2059 15.4664 52.1689 15.4579 54.7623C15.4531 57.3317 18.0459 57.3268 21.5714 57.2046C21.9048 57.2016 22.2331 57.3316 22.4717 57.57C22.7102 57.8085 22.842 58.1332 22.8372 58.4705C22.7236 62.0092 22.693 64.5726 25.2801 64.5841C27.8489 64.5893 27.8449 61.9963 27.7225 58.4707C27.6989 57.7938 28.293 57.1909 28.9702 57.2046Z" fill="#ADADAD"/>
<path d="M51.1132 37.5572H43.7323C43.0431 37.5572 42.4844 36.9985 42.4844 36.3093V28.9283C42.4844 28.2391 43.0431 27.6804 43.7323 27.6804H51.1132C51.8024 27.6804 52.3611 28.2391 52.3611 28.9283V36.3093C52.3611 36.9985 51.8025 37.5572 51.1132 37.5572ZM44.9802 35.0614H49.8653V30.1762H44.9802V35.0614Z" fill="#ADADAD"/>
<path d="M36.3513 37.5572H28.9703C28.2811 37.5572 27.7224 36.9985 27.7224 36.3093V28.9283C27.7224 28.2391 28.2811 27.6804 28.9703 27.6804H36.3513C37.0405 27.6804 37.5992 28.2391 37.5992 28.9283V36.3093C37.5992 36.9985 37.0406 37.5572 36.3513 37.5572ZM30.2182 35.0614H35.1034V30.1762H30.2182V35.0614Z" fill="#ADADAD"/>
<path d="M36.3513 52.3191H28.9703C28.2811 52.3191 27.7224 51.7604 27.7224 51.0712V43.6903C27.7224 43.0011 28.2811 42.4424 28.9703 42.4424H36.3513C37.0405 42.4424 37.5992 43.0011 37.5992 43.6903V51.0712C37.5992 51.7604 37.0406 52.3191 36.3513 52.3191ZM30.2182 49.8233H35.1034V44.9382H30.2182V49.8233Z" fill="#ADADAD"/>
<path d="M51.1132 52.3191H43.7323C43.0431 52.3191 42.4844 51.7604 42.4844 51.0712V43.6903C42.4844 43.0011 43.0431 42.4424 43.7323 42.4424H51.1132C51.8024 42.4424 52.3611 43.0011 52.3611 43.6903V51.0712C52.3611 51.7604 51.8025 52.3191 51.1132 52.3191ZM44.9802 49.8233H49.8653V44.9382H44.9802V49.8233Z" fill="#ADADAD"/>
<path d="M17.5321 30.0991C17.0204 30.0282 16.5206 29.9183 16.049 29.749C15.7233 29.632 15.4242 29.4885 15.1481 29.3232C14.2471 31.4208 13.6178 33.6199 13.2727 35.8824C14.0632 35.4421 14.986 35.2141 15.9455 35.1028C16.2931 33.3817 16.8238 31.7068 17.5321 30.0991Z" fill="black"/>
<path d="M64.1513 44.9383C64.1494 44.9383 64.1475 44.9383 64.1455 44.9383H64.1297C63.7819 46.6447 63.2542 48.3057 62.5515 49.9005C63.0633 49.9714 63.563 50.0813 64.0345 50.2507C64.3602 50.3676 64.6593 50.5111 64.9355 50.6763C65.8235 48.6088 66.447 46.4428 66.7952 44.2146C66.0809 44.6619 65.1986 44.9334 64.1513 44.9383Z" fill="black"/>
<path d="M49.9425 17.4901C50.0134 16.9785 50.1232 16.4788 50.2925 16.0073C50.4094 15.6815 50.5529 15.3822 50.7182 15.1061C48.6205 14.2051 46.4215 13.5758 44.1589 13.2307C44.5991 14.0212 44.8272 14.944 44.9385 15.9036C46.6596 16.2511 48.3346 16.7818 49.9425 17.4901Z" fill="black"/>
<path d="M17.5321 49.9007C16.8238 48.2928 16.2931 46.6178 15.9455 44.8966C14.9858 44.7851 14.0631 44.5569 13.2727 44.1167C13.6178 46.3794 14.247 48.5785 15.1481 50.6762C15.4235 50.5113 15.722 50.3681 16.0468 50.2512C16.5189 50.0816 17.0195 49.9716 17.5321 49.9007Z" fill="black"/>
<path d="M30.1412 62.5098C30.0703 63.0214 29.9605 63.5211 29.7912 63.9925C29.6743 64.3183 29.5308 64.6175 29.3655 64.8937C31.4632 65.7947 33.6622 66.424 35.9248 66.7691C35.4846 65.9786 35.2565 65.0558 35.1452 64.0962C33.424 63.7488 31.749 63.2181 30.1412 62.5098Z" fill="black"/>
<path d="M49.9425 62.5098C48.3346 63.2181 46.6596 63.7488 44.9384 64.0963C44.8269 65.0559 44.5986 65.9787 44.1584 66.7692C46.4211 66.4241 48.6202 65.7948 50.7181 64.8937C50.5531 64.6181 50.41 64.3198 50.2931 63.9949C50.1235 63.5228 50.0135 63.0224 49.9425 62.5098Z" fill="black"/>
<path d="M62.5515 30.0991C63.2543 31.6943 63.7822 33.3554 64.1299 35.0623C64.1368 35.0624 64.1439 35.0624 64.1509 35.0627V35.0613C65.1983 35.066 66.0807 35.3374 66.7952 35.7849C66.447 33.5567 65.8236 31.3908 64.9356 29.3234C64.6601 29.4883 64.3616 29.6315 64.0369 29.7483C63.5648 29.9182 63.0642 30.0282 62.5515 30.0991Z" fill="black"/>
<path d="M30.1411 17.49C31.749 16.7817 33.424 16.251 35.1452 15.9035C35.2567 14.9438 35.4849 14.0211 35.9251 13.2306C33.6624 13.5757 31.4633 14.205 29.3655 15.106C29.5304 15.3815 29.6736 15.6799 29.7904 16.0048C29.9602 16.4771 30.0702 16.9775 30.1411 17.49Z" fill="black"/>
</svg>
