<svg width="80" height="80" viewBox="0 0 80 80" fill="none" xmlns="http://www.w3.org/2000/svg">
<path d="M40 21C39.2406 21 38.625 21.6156 38.625 22.375V32.9815C38.625 33.7409 39.2406 34.3565 40 34.3565C40.7594 34.3565 41.375 33.7409 41.375 32.9815V22.375C41.375 21.6156 40.7594 21 40 21Z" fill="#ADADAD"/>
<path d="M19.5 21C18.7406 21 18.125 21.6156 18.125 22.375V32.9815C18.125 33.7409 18.7406 34.3565 19.5 34.3565C20.2594 34.3565 20.875 33.7409 20.875 32.9815V22.375C20.875 21.6156 20.2594 21 19.5 21Z" fill="#ADADAD"/>
<path d="M60.5 21C59.7406 21 59.125 21.6156 59.125 22.375V32.9815C59.125 33.7409 59.7406 34.3565 60.5 34.3565C61.2594 34.3565 61.875 33.7409 61.875 32.9815V22.375C61.875 21.6156 61.2594 21 60.5 21Z" fill="#ADADAD"/>
<path d="M70.625 50.9816H69.375V47.1066C69.375 46.3472 68.7594 45.7316 68 45.7316C67.2419 45.7316 66.625 45.1147 66.625 44.3566C66.625 43.5984 67.2419 42.9816 68 42.9816C68.7594 42.9816 69.375 42.3659 69.375 41.6066V33.3566C69.375 32.5972 68.7594 31.9816 68 31.9816H53C52.2406 31.9816 51.625 32.5972 51.625 33.3566V50.9816H48.875V33.3566C48.875 32.5972 48.2594 31.9816 47.5 31.9816H32.5C31.7406 31.9816 31.125 32.5972 31.125 33.3566V38.6066C31.125 39.3659 31.7406 39.9816 32.5 39.9816C33.2581 39.9816 33.875 40.5984 33.875 41.3566C33.875 42.1147 33.2581 42.7316 32.5 42.7316C31.7406 42.7316 31.125 43.3472 31.125 44.1066V50.9816H28.375V47.1066C28.375 46.3472 27.7594 45.7316 27 45.7316C26.2419 45.7316 25.625 45.1147 25.625 44.3566C25.625 43.5984 26.2419 42.9816 27 42.9816C27.7594 42.9816 28.375 42.3659 28.375 41.6066V33.3566C28.375 32.5972 27.7594 31.9816 27 31.9816H12C11.2406 31.9816 10.625 32.5972 10.625 33.3566V38.6066C10.625 39.3659 11.2406 39.9816 12 39.9816C12.7581 39.9816 13.375 40.5984 13.375 41.3566C13.375 42.1147 12.7581 42.7316 12 42.7316C11.2406 42.7316 10.625 43.3472 10.625 44.1066V50.9816H9.375C8.61563 50.9816 8 51.5972 8 52.3566C8 53.1159 8.61563 53.7316 9.375 53.7316H10.625V57.8566C10.625 58.6159 11.2406 59.2316 12 59.2316H68C68.7594 59.2316 69.375 58.6159 69.375 57.8566V53.7316H70.625C71.3844 53.7316 72 53.1159 72 52.3566C72 51.5972 71.3844 50.9816 70.625 50.9816ZM33.875 45.2459C35.4756 44.6784 36.625 43.1492 36.625 41.3566C36.625 39.5639 35.4756 38.0347 33.875 37.4672V34.7316H46.125V50.9816H33.875V45.2459ZM13.375 45.2459C14.9756 44.6784 16.125 43.1492 16.125 41.3566C16.125 39.5639 14.9756 38.0347 13.375 37.4672V34.7316H25.625V40.4672C24.0244 41.0347 22.875 42.5639 22.875 44.3566C22.875 46.1492 24.0244 47.6784 25.625 48.2459V50.9816H13.375V45.2459ZM66.625 56.4816H13.375V53.7316H66.625V56.4816ZM66.625 50.9816H54.375V34.7316H66.625V40.4672C65.0244 41.0347 63.875 42.5639 63.875 44.3566C63.875 46.1492 65.0244 47.6784 66.625 48.2459V50.9816Z" fill="black"/>
<path d="M17.5 48.2318C18.2594 48.2318 18.875 47.6162 18.875 46.8568C18.875 46.0974 18.2594 45.4818 17.5 45.4818C16.7406 45.4818 16.125 46.0974 16.125 46.8568C16.125 47.6162 16.7406 48.2318 17.5 48.2318Z" fill="black"/>
<path d="M21.5 40.2318C22.2594 40.2318 22.875 39.6162 22.875 38.8568C22.875 38.0974 22.2594 37.4818 21.5 37.4818C20.7406 37.4818 20.125 38.0974 20.125 38.8568C20.125 39.6162 20.7406 40.2318 21.5 40.2318Z" fill="black"/>
<path d="M42 40.2318C42.7594 40.2318 43.375 39.6162 43.375 38.8568C43.375 38.0974 42.7594 37.4818 42 37.4818C41.2406 37.4818 40.625 38.0974 40.625 38.8568C40.625 39.6162 41.2406 40.2318 42 40.2318Z" fill="black"/>
<path d="M38 48.2318C38.7594 48.2318 39.375 47.6162 39.375 46.8568C39.375 46.0974 38.7594 45.4818 38 45.4818C37.2406 45.4818 36.625 46.0974 36.625 46.8568C36.625 47.6162 37.2406 48.2318 38 48.2318Z" fill="black"/>
<path d="M59.75 48.2318C60.5094 48.2318 61.125 47.6162 61.125 46.8568C61.125 46.0974 60.5094 45.4818 59.75 45.4818C58.9906 45.4818 58.375 46.0974 58.375 46.8568C58.375 47.6162 58.9906 48.2318 59.75 48.2318Z" fill="black"/>
<path d="M58.5 40.2318C59.2594 40.2318 59.875 39.6162 59.875 38.8568C59.875 38.0974 59.2594 37.4818 58.5 37.4818C57.7406 37.4818 57.125 38.0974 57.125 38.8568C57.125 39.6162 57.7406 40.2318 58.5 40.2318Z" fill="black"/>
</svg>
