<svg width="80" height="80" viewBox="0 0 80 80" fill="none" xmlns="http://www.w3.org/2000/svg">
<path d="M34.9125 28.6152H32.9199C32.2317 28.6152 31.6738 28.0573 31.6738 27.3691C31.6738 26.681 32.2317 26.123 32.9199 26.123H34.9125C35.515 26.123 36.214 25.9351 36.832 24.5418C37.0366 24.0806 37.4997 23.7888 38.0034 23.8012L59.8565 24.3676C60.3201 24.3808 60.7639 24.2051 61.1095 23.87C61.4805 23.5102 61.6934 23.0101 61.6934 22.498C61.6934 21.986 61.4806 21.4859 61.1095 21.1261C60.7639 20.791 60.3208 20.6145 59.8625 20.6282L38.0035 21.1947C37.502 21.2068 37.0367 20.9156 36.8321 20.4542C36.2141 19.0609 35.515 18.873 34.9125 18.873H32.9199C32.2317 18.873 31.6738 18.3151 31.6738 17.627C31.6738 16.9388 32.2317 16.3809 32.9199 16.3809H34.9125C36.0662 16.3809 37.604 16.8025 38.7198 18.6833L59.7919 18.1372C60.9238 18.1024 62.0105 18.5283 62.8444 19.3369C63.6967 20.1634 64.1855 21.3156 64.1855 22.498C64.1855 23.6805 63.6967 24.8327 62.8444 25.6592C62.0105 26.4678 60.9227 26.8955 59.7859 26.8587L38.7199 26.3127C37.6041 28.1936 36.0662 28.6152 34.9125 28.6152Z" fill="#ADADAD"/>
<path d="M69 53.0272C69 52.339 68.4421 51.7811 67.7539 51.7811H66.6669C66.3789 49.1246 65.1806 46.6701 63.2409 44.797C61.0966 42.7262 58.274 41.5858 55.2931 41.5858C52.4731 41.5858 49.7352 42.6443 47.6472 44.5165C45.5432 42.6235 42.8437 41.5858 40.0001 41.5858C37.6911 41.5858 35.4771 42.27 33.5997 43.5409V17.627C33.5997 15.5344 31.8973 13.832 29.8048 13.832C28.8247 13.832 27.9301 14.2056 27.256 14.8178C26.5817 14.2056 25.687 13.832 24.707 13.832C23.727 13.832 22.8323 14.2056 22.1582 14.8178C21.4841 14.2056 20.5894 13.832 19.6094 13.832C17.5168 13.832 15.8145 15.5344 15.8145 17.627V45.8261C14.4298 47.5308 13.571 49.587 13.3331 51.7811H12.2461C11.5579 51.7811 11 52.339 11 53.0272C11 56.256 13.4247 58.9291 16.5487 59.3214L18.4948 63.2134C19.4888 65.2016 21.0391 66.168 23.2344 66.168H56.7656C58.9608 66.168 60.511 65.2016 61.5052 63.2135L63.4513 59.3214C66.5753 58.9291 69 56.256 69 53.0272ZM64.1563 51.7811H61.5152C60.9383 48.8524 58.378 46.6835 55.293 46.6835C53.4357 46.6835 51.7687 47.4695 50.61 48.7342C50.2731 47.9007 49.8375 47.1084 49.3099 46.3726C50.9434 44.9068 53.086 44.078 55.293 44.078C59.8229 44.078 63.5509 47.393 64.1563 51.7811ZM58.9404 51.7811H51.6454C52.1611 50.256 53.5964 49.1757 55.2929 49.1757C56.9895 49.1757 58.4247 50.2561 58.9404 51.7811ZM40 44.078C44.5299 44.078 48.258 47.393 48.8634 51.7811H46.2222C45.6454 48.8524 43.085 46.6835 40 46.6835C36.915 46.6835 34.3545 48.8524 33.7778 51.7811H31.1366C31.7419 47.393 35.4701 44.078 40 44.078ZM43.6474 51.7811H36.3525C36.8681 50.256 38.3034 49.1757 39.9999 49.1757C41.6965 49.1757 43.1318 50.2561 43.6474 51.7811ZM29.8047 16.3242C30.523 16.3242 31.1074 16.9086 31.1074 17.627V43.5466C30.2973 43.0013 29.4208 42.5615 28.502 42.2376V17.627C28.502 16.9086 29.0864 16.3242 29.8047 16.3242ZM24.707 16.3242C25.4253 16.3242 26.0098 16.9086 26.0098 17.627V41.6612C25.5788 41.6113 25.144 41.5858 24.707 41.5858C24.2689 41.5858 23.834 41.6105 23.4043 41.6591V17.627C23.4043 16.9086 23.9887 16.3242 24.707 16.3242ZM19.6094 16.3242C20.3277 16.3242 20.9121 16.9086 20.9121 17.627V42.229C19.9936 42.5513 19.1186 42.9912 18.3066 43.5409V17.627C18.3066 16.9086 18.8911 16.3242 19.6094 16.3242ZM24.707 44.078C26.914 44.078 29.0565 44.9068 30.6901 46.3726C30.1625 47.1084 29.7269 47.9007 29.39 48.7342C28.2313 47.4695 26.5643 46.6835 24.707 46.6835C21.622 46.6835 19.0615 48.8524 18.4848 51.7811H15.8436C16.4489 47.393 20.1771 44.078 24.707 44.078ZM28.3545 51.7811H21.0596C21.5753 50.256 23.0105 49.1757 24.707 49.1757C26.4035 49.1757 27.8388 50.2561 28.3545 51.7811ZM59.2762 62.0989C58.7014 63.2484 58.021 63.6758 56.7656 63.6758H23.2344C21.979 63.6758 21.2986 63.2485 20.7239 62.099L19.3599 59.3711H60.6401L59.2762 62.0989ZM62.6562 56.8788H17.3438C15.656 56.8788 14.2182 55.7873 13.699 54.2733H66.301C65.7818 55.7874 64.344 56.8788 62.6562 56.8788Z" fill="black"/>
</svg>
