<svg width="80" height="80" viewBox="0 0 80 80" fill="none" xmlns="http://www.w3.org/2000/svg">
<path d="M68.1292 19.174C67.2264 18.2711 66.1004 17.6695 64.8798 17.4241C64.6344 16.2036 64.0328 15.0775 63.1299 14.1746C61.9398 12.9846 60.3652 12.3194 58.696 12.3016C57.0173 12.2792 55.443 12.9221 54.2655 14.0996C53.0881 15.2769 52.4496 16.8503 52.4674 18.5299C52.4797 19.6798 52.7993 20.7847 53.386 21.75L45.3505 30.2106C44.8602 30.7268 44.8812 31.5428 45.3974 32.033C45.6468 32.2699 45.9662 32.3874 46.2849 32.3874C46.626 32.3874 46.9664 32.2529 47.2199 31.986L55.1425 23.6445C55.8769 24.1725 56.7087 24.5365 57.5902 24.7137C57.7727 25.6214 58.1525 26.4767 58.7064 27.2269L50.378 36.2497C49.8952 36.7729 49.9278 37.5884 50.4509 38.0714C50.6988 38.3002 51.0123 38.4132 51.3249 38.4132C51.6722 38.4132 52.0185 38.2738 52.2726 37.9985L60.6199 28.9552C61.6133 29.5406 62.7294 29.834 63.8413 29.8339C65.4283 29.8338 67.0064 29.2363 68.2044 28.0383C70.6276 25.6152 70.5938 21.6386 68.1292 19.174ZM66.3813 26.2153C64.9633 27.6334 62.6224 27.5995 61.163 26.1401C60.4589 25.4361 60.0618 24.5076 60.0443 23.5257C60.0321 22.8316 59.4723 22.2719 58.7782 22.2596C57.7963 22.2423 56.8678 21.845 56.1637 21.1409C55.4533 20.4304 55.0561 19.4934 55.0456 18.5025C55.0351 17.522 55.4055 16.6057 56.0886 15.9226C56.7622 15.249 57.6626 14.8795 58.6279 14.8795C58.6413 14.8795 58.6549 14.8796 58.6684 14.8797C59.6593 14.8903 60.5963 15.2874 61.3068 15.9979C62.0111 16.702 62.4082 17.6305 62.4256 18.6122C62.4378 19.3063 62.9976 19.8663 63.6918 19.8785C64.6736 19.8957 65.6021 20.2931 66.3062 20.9972C67.7655 22.4565 67.7992 24.7974 66.3813 26.2153Z" fill="#ADADAD"/>
<path d="M63.9096 59.1959L66.3262 51.8221C67.3383 48.7335 66.8168 45.4003 64.8958 42.6772C62.6912 39.5521 58.9304 37.6244 54.8433 37.5207C54.7167 37.5167 54.5915 37.5153 54.4648 37.5153C53.8543 37.5153 53.248 37.4673 52.6528 37.3738C52.5519 35.0834 51.8129 33.1758 50.4704 31.8335C50.4706 31.8338 50.4703 31.8333 50.4704 31.8335C48.5208 29.8841 45.3806 29.2054 41.6042 29.9091C40.9424 29.5109 40.2504 29.1465 39.5369 28.8266C36.9359 27.6606 34.0204 27.0443 31.1052 27.0443C30.9473 27.0443 30.7893 27.0456 30.6383 27.0492C27.3419 27.1145 24.2248 27.8635 21.3737 29.2754C18.6707 30.614 16.306 32.5332 14.5352 34.8255C11.3333 38.9706 10.2199 43.9618 11.4003 48.8799L13.8515 59.0951L16.1214 57.5052L13.9074 48.2784C12.9129 44.1346 13.8604 39.9166 16.5757 36.4017C19.8138 32.2097 24.958 29.7406 30.6951 29.627C30.831 29.6237 30.9681 29.6227 31.1052 29.6227C33.4766 29.6227 35.8449 30.0873 37.9896 30.9686C35.9287 31.7975 34.0674 32.9515 32.7713 34.2476C28.7388 38.2801 28.8867 44.9891 33.1007 49.2033C35.1335 51.2361 37.8019 52.3944 40.6144 52.465C40.7055 52.4673 40.796 52.4684 40.8866 52.4684C43.62 52.4683 46.1572 51.4318 48.0563 49.5327C50.0221 47.5668 51.6615 44.301 52.3346 41.0096C52.4074 40.6537 52.4678 40.3034 52.5164 39.9589C53.1588 40.0475 53.8101 40.0936 54.4648 40.0936C54.5645 40.0936 54.6628 40.0946 54.7701 40.098C58.0542 40.1814 61.0519 41.7012 62.7892 44.1635C64.2569 46.2442 64.6431 48.679 63.8762 51.0193L61.7504 57.5053L63.9096 59.1959ZM48.6472 33.6566C48.6472 33.6567 48.6472 33.6567 48.6472 33.6566C49.9976 35.007 50.4209 37.4987 49.8085 40.493C49.2399 43.2736 47.8364 46.1062 46.233 47.7095C44.7752 49.1673 42.8049 49.9421 40.6787 49.8876C38.5305 49.8337 36.4865 48.9432 34.9235 47.3801C31.7146 44.1714 31.5669 39.098 34.5941 36.0708C36.1975 34.4673 39.0302 33.0639 41.8106 32.4953C42.71 32.3113 43.5639 32.2208 44.3553 32.2208C46.1989 32.2208 47.7026 32.7119 48.6472 33.6566Z" fill="black"/>
<path d="M60.7881 67.6988H18.9043C13.9944 67.6988 10 63.7043 10 58.7945C10 58.0825 10.5772 57.5054 11.2891 57.5054H68.4033C69.1152 57.5054 69.6924 58.0825 69.6924 58.7945C69.6924 63.7044 65.698 67.6988 60.7881 67.6988ZM12.7102 60.0836C13.3071 62.9559 15.8575 65.1206 18.9043 65.1206H60.7881C63.8347 65.1206 66.3852 62.9558 66.9821 60.0836H12.7102Z" fill="#ADADAD"/>
<path d="M18.8208 45.0966C16.9689 45.0626 17.2505 42.2136 19.0729 42.5443C20.567 42.8028 20.3356 45.134 18.8208 45.0966Z" fill="#ADADAD"/>
<path d="M20.6059 50.9269C18.754 50.8929 19.0358 48.0442 20.858 48.3746C22.3515 48.6333 22.121 50.9642 20.6059 50.9269Z" fill="#ADADAD"/>
<path d="M24.7708 46.8815C23.2559 46.9171 23.0261 44.5892 24.519 44.3279C26.3422 43.9999 26.6233 46.8469 24.7708 46.8815Z" fill="#ADADAD"/>
</svg>
