<svg width="80" height="80" viewBox="0 0 80 80" fill="none" xmlns="http://www.w3.org/2000/svg">
<path d="M15.9483 30.4598C15.5175 30.4598 15.0988 30.2363 14.868 29.8365C13.0427 26.675 12.5577 22.9919 13.5026 19.4658C14.4475 15.9396 16.7089 12.9924 19.8704 11.1672C20.1565 11.002 20.4967 10.9572 20.8159 11.0427C21.1351 11.1282 21.4074 11.3371 21.5726 11.6232L27.783 22.3801C27.9483 22.6662 27.9931 23.0064 27.9075 23.3257C27.822 23.6449 27.6131 23.917 27.327 24.0823L16.5702 30.2927C16.3738 30.406 16.1596 30.4598 15.9483 30.4598ZM20.0714 14.0076C18.0332 15.5044 16.5739 17.6327 15.9098 20.1108C15.2459 22.5889 15.4455 25.1618 16.4623 27.4772L25.0017 22.5471L20.0714 14.0076Z" fill="black"/>
<path d="M56.9324 25.9155C56.82 25.9155 56.7073 25.9003 56.5972 25.8696C56.2789 25.7807 56.009 25.569 55.8467 25.2811L49.75 14.4595C49.5878 14.1715 49.5467 13.831 49.6355 13.5127C49.7244 13.1944 49.936 12.9244 50.224 12.7622C56.7896 9.06311 65.1405 11.3952 68.8396 17.961C69.0018 18.249 69.0429 18.5895 68.9541 18.9078C68.8652 19.2261 68.6536 19.4961 68.3656 19.6583L57.5441 25.755C57.3556 25.8611 57.1448 25.9155 56.9324 25.9155ZM52.5669 14.3819L57.4065 22.9721L65.9966 18.1326C62.9578 13.9125 57.3523 12.347 52.5669 14.3819Z" fill="black"/>
<path d="M45.1711 28.6222C44.6843 28.1355 43.8953 28.1356 43.4088 28.6222L41.246 30.7849V26.0811C41.246 25.3929 40.6881 24.835 39.9999 24.835C39.3117 24.835 38.7538 25.3929 38.7538 26.0811L38.7539 30.7851L36.5909 28.6222C36.1042 28.1355 35.3152 28.1356 34.8286 28.6222C34.342 29.1088 34.342 29.8977 34.8286 30.3844L38.8651 34.4206L39.8467 33.4389H39.9584L41.0376 34.5179L45.1712 30.384C45.6577 29.8978 45.6577 29.1088 45.1711 28.6222Z" fill="black"/>
<path d="M66.4189 46.4152L63.9396 46.1628C63.9568 45.9933 63.9655 45.8201 63.9655 45.6479C63.9655 43.6462 62.7784 41.8367 60.9412 41.0381C60.4973 40.845 60.2054 40.4124 60.1924 39.9285C60.1194 37.1873 57.914 35.04 55.1715 35.04H24.8338C22.0923 35.04 19.8869 37.1864 19.8128 39.9264C19.7998 40.4106 19.5073 40.8433 19.0629 41.036C17.2231 41.8337 16.0342 43.644 16.0342 45.6478C16.0342 45.7946 16.0406 45.9428 16.0531 46.0881L13.5702 46.3028C13.5515 46.0864 13.542 45.8661 13.542 45.6479C13.542 42.9091 15.0261 40.4123 17.3812 39.0917C17.5967 37.4192 18.3646 35.8755 19.5877 34.6825C20.999 33.306 22.8621 32.5479 24.834 32.5479H55.1717C57.144 32.5479 59.0075 33.3063 60.4189 34.6835C61.6422 35.8773 62.4098 37.4218 62.6248 39.0951C64.9761 40.4167 66.458 42.9122 66.458 45.6479C66.4578 45.904 66.4447 46.1622 66.4189 46.4152Z" fill="#ADADAD"/>
<path d="M46.3408 69.0001H33.6592C21.1648 69.0001 11 58.8353 11 46.3408C11 45.6526 11.5579 45.0947 12.2461 45.0947H67.7539C68.4421 45.0947 69 45.6526 69 46.3408C69 58.8353 58.8352 69.0001 46.3408 69.0001ZM13.5302 47.5869C14.1754 58.1295 22.9572 66.5079 33.6592 66.5079H46.3407C57.0428 66.5079 65.8245 58.1295 66.4696 47.5869H13.5302Z" fill="black"/>
<path d="M45.24 21.5854C44.8702 21.5854 44.5043 21.4216 44.2585 21.1081C43.8338 20.5665 43.9286 19.7833 44.4702 19.3586L45.521 18.5346C46.0624 18.1099 46.8458 18.2047 47.2704 18.7463C47.6951 19.2879 47.6003 20.0712 47.0587 20.4959L46.0079 21.3199C45.7799 21.4987 45.5089 21.5854 45.24 21.5854Z" fill="black"/>
<path d="M29.8964 41.6584C29.5266 41.6584 29.1609 41.4947 28.915 41.1812C28.4904 40.6397 28.5851 39.8565 29.1265 39.4317L30.1772 38.6077C30.7188 38.1829 31.502 38.2777 31.9266 38.8193C32.3513 39.3608 32.2566 40.144 31.7151 40.5688L30.6644 41.3928C30.4363 41.5716 30.1653 41.6584 29.8964 41.6584Z" fill="#ADADAD"/>
<path d="M33.2924 16.5848C33.0852 16.5848 32.8752 16.533 32.6818 16.4242L31.4355 15.722C30.8359 15.3844 30.6237 14.6244 30.9614 14.0248C31.2992 13.4253 32.0593 13.213 32.6587 13.5508L33.905 14.2529C34.5046 14.5906 34.7168 15.3506 34.3791 15.9502C34.1502 16.3564 33.7276 16.5848 33.2924 16.5848Z" fill="black"/>
<path d="M50.1161 41.662C49.9089 41.662 49.6989 41.6103 49.5056 41.5014L48.2592 40.7993C47.6596 40.4615 47.4474 39.7016 47.7851 39.102C48.1229 38.5023 48.8831 38.2902 49.4823 38.6279L50.7287 39.33C51.3283 39.6678 51.5405 40.4277 51.2028 41.0273C50.974 41.4335 50.5513 41.662 50.1161 41.662Z" fill="#ADADAD"/>
</svg>
