<svg width="80" height="80" viewBox="0 0 80 80" fill="none" xmlns="http://www.w3.org/2000/svg">
<path d="M46.917 65.4126C46.654 65.4126 46.3911 65.3296 46.1697 65.1635L32.3599 54.8061C31.9309 54.4844 31.756 53.9244 31.9256 53.4158C32.0952 52.9073 32.5712 52.5642 33.1073 52.5642H60.8421C61.3792 52.5642 61.8558 52.9084 62.0245 53.4182C62.1933 53.928 62.0163 54.4887 61.5855 54.8092L47.6605 65.1665C47.4398 65.3305 47.1785 65.4126 46.917 65.4126ZM36.8439 55.0552L46.9201 62.6125L57.0803 55.0552H36.8439Z" fill="#ADADAD"/>
<path d="M26.0869 27.4357C26.0065 27.4357 25.9238 27.4277 25.8434 27.4119C25.7642 27.3949 25.686 27.3711 25.6113 27.3405C25.5354 27.3088 25.463 27.2703 25.3961 27.2262C25.3271 27.1797 25.2637 27.1277 25.207 27.071C25.1493 27.0133 25.0972 26.9499 25.0519 26.8819C25.0066 26.814 24.9681 26.7415 24.9376 26.6668C24.9059 26.5909 24.8821 26.5128 24.8662 26.4335C24.8504 26.3532 24.8413 26.2716 24.8413 26.1901C24.8413 26.1086 24.8504 26.027 24.8662 25.9466C24.8821 25.8674 24.9059 25.7893 24.9376 25.7134C24.9681 25.6387 25.0066 25.5662 25.0519 25.4982C25.0972 25.4303 25.1493 25.3669 25.207 25.3091C25.2637 25.2525 25.3271 25.1993 25.3961 25.154C25.463 25.1099 25.5354 25.0714 25.6113 25.0397C25.686 25.0091 25.7642 24.9853 25.8434 24.9695C26.0042 24.9366 26.1695 24.9366 26.3303 24.9695C26.4096 24.9853 26.4888 25.0091 26.5636 25.0397C26.6394 25.0714 26.7108 25.1099 26.7787 25.154C26.8467 25.1993 26.9101 25.2525 26.9678 25.3091C27.0256 25.3669 27.0776 25.4303 27.1229 25.4982C27.1682 25.5662 27.2067 25.6387 27.2373 25.7134C27.269 25.7893 27.2928 25.8674 27.3086 25.9466C27.3245 26.027 27.3324 26.1086 27.3324 26.1901C27.3324 26.2716 27.3245 26.3532 27.3086 26.4335C27.2928 26.5128 27.269 26.5909 27.2373 26.6668C27.2067 26.7415 27.1682 26.814 27.1229 26.8819C27.0776 26.9499 27.0256 27.0133 26.9678 27.071C26.9101 27.1277 26.8467 27.1797 26.7787 27.2262C26.7108 27.2703 26.6394 27.3088 26.5636 27.3405C26.4888 27.3711 26.4096 27.3949 26.3303 27.4119C26.2499 27.4276 26.1684 27.4357 26.0869 27.4357Z" fill="black"/>
<path d="M33.1074 23.9831C33.0258 23.9831 32.9443 23.9751 32.8639 23.9581C32.7847 23.9423 32.7065 23.9185 32.6307 23.8879C32.5559 23.8562 32.4835 23.8177 32.4155 23.7736C32.3476 23.7272 32.2842 23.6751 32.2264 23.6184C32.1687 23.5607 32.1166 23.4973 32.0713 23.4293C32.0271 23.3614 31.9886 23.2889 31.9569 23.2142C31.9264 23.1383 31.9026 23.0602 31.8856 22.9809C31.8697 22.9006 31.8618 22.819 31.8618 22.7375C31.8618 22.656 31.8697 22.5744 31.8856 22.4941C31.9026 22.4148 31.9264 22.3367 31.9569 22.2608C31.9886 22.1861 32.0271 22.1136 32.0713 22.0456C32.1166 21.9777 32.1687 21.9143 32.2264 21.8566C32.2842 21.7988 32.3476 21.7467 32.4155 21.7014C32.4835 21.6573 32.5559 21.6188 32.6307 21.5871C32.7065 21.5565 32.7847 21.5327 32.8639 21.5157C33.0247 21.484 33.19 21.484 33.3508 21.5157C33.4301 21.5327 33.5082 21.5565 33.5841 21.5871C33.6588 21.6188 33.7313 21.6573 33.7992 21.7014C33.8672 21.7467 33.9306 21.7988 33.9883 21.8566C34.0449 21.9143 34.097 21.9777 34.1435 22.0456C34.1876 22.1136 34.2261 22.1861 34.2578 22.2608C34.2884 22.3367 34.3122 22.4148 34.328 22.4941C34.345 22.5744 34.3529 22.656 34.3529 22.7375C34.3529 22.819 34.345 22.9006 34.328 22.9809C34.3122 23.0602 34.2884 23.1383 34.2578 23.2142C34.2261 23.2889 34.1876 23.3614 34.1435 23.4293C34.097 23.4973 34.0449 23.5607 33.9883 23.6184C33.9306 23.6751 33.8672 23.7272 33.7992 23.7736C33.7313 23.8177 33.6588 23.8562 33.5841 23.8879C33.5082 23.9185 33.4301 23.9423 33.3508 23.9581C33.2704 23.9752 33.1889 23.9831 33.1074 23.9831Z" fill="black"/>
<path d="M40.0122 30.8881C39.9306 30.8881 39.8491 30.8802 39.7687 30.8632C39.6894 30.8473 39.6113 30.8235 39.5355 30.793C39.4607 30.7613 39.3882 30.7228 39.3203 30.6786C39.2524 30.6322 39.189 30.5801 39.1312 30.5235C39.0735 30.4657 39.0214 30.4023 38.9761 30.3344C38.9319 30.2664 38.8934 30.194 38.8617 30.1192C38.8311 30.0434 38.8074 29.9652 38.7915 29.886C38.7745 29.8056 38.7666 29.7241 38.7666 29.6425C38.7666 29.561 38.7745 29.4795 38.7915 29.3991C38.8074 29.3198 38.8311 29.2417 38.8617 29.1658C38.8934 29.0911 38.9319 29.0186 38.9761 28.9507C39.0214 28.8827 39.0735 28.8193 39.1312 28.7616C39.189 28.705 39.2524 28.6517 39.3203 28.6065C39.3882 28.5623 39.4607 28.5238 39.5355 28.4921C39.6113 28.4615 39.6894 28.4377 39.7687 28.4208C39.9295 28.389 40.0948 28.389 40.2556 28.4208C40.3349 28.4377 40.413 28.4615 40.4889 28.4921C40.5636 28.5238 40.6361 28.5623 40.704 28.6065C40.7719 28.6529 40.8354 28.705 40.8931 28.7616C40.9509 28.8193 41.0029 28.8827 41.0482 28.9507C41.0924 29.0186 41.1309 29.0911 41.1626 29.1658C41.1932 29.2417 41.217 29.3198 41.2328 29.3991C41.2498 29.4795 41.2577 29.561 41.2577 29.6425C41.2577 29.7241 41.2498 29.8056 41.2328 29.886C41.217 29.9652 41.1932 30.0434 41.1626 30.1192C41.1309 30.194 41.0924 30.2664 41.0482 30.3344C41.0029 30.4023 40.9509 30.4657 40.8931 30.5235C40.661 30.7556 40.3405 30.8881 40.0122 30.8881Z" fill="black"/>
<path d="M67.747 37.793H12.2775C11.5897 37.793 11.032 37.2353 11.032 36.5475C11.032 24.4385 20.9349 14.5872 33.1074 14.5872H46.9173C59.0897 14.5872 68.9927 24.4385 68.9927 36.5475C68.9926 37.2355 68.4349 37.793 67.747 37.793ZM13.5627 35.3019H66.4618C65.8142 25.1442 57.2955 17.0783 46.9173 17.0783H33.1074C22.7291 17.0783 14.2104 25.1443 13.5627 35.3019Z" fill="black"/>
<path d="M43.4646 23.9833C43.383 23.9833 43.3015 23.9753 43.2211 23.9584C43.1418 23.9425 43.0637 23.9187 42.9878 23.8881C42.9131 23.8564 42.8406 23.8179 42.7727 23.7738C42.7048 23.7274 42.6413 23.6753 42.5836 23.6187C42.527 23.5609 42.4738 23.4975 42.4285 23.4296C42.3843 23.3616 42.3458 23.2891 42.3141 23.2144C42.2835 23.1385 42.2598 23.0604 42.2439 22.9812C42.2269 22.9008 42.219 22.8192 42.219 22.7377C42.219 22.6562 42.2269 22.5747 42.2439 22.4943C42.2598 22.415 42.2835 22.3369 42.3141 22.261C42.3458 22.1863 42.3843 22.1138 42.4285 22.0459C42.4738 21.9779 42.527 21.9145 42.5836 21.8568C42.6413 21.8001 42.7048 21.7469 42.7727 21.7016C42.8406 21.6575 42.9131 21.619 42.9878 21.5873C43.0637 21.5567 43.1418 21.5329 43.2211 21.5171C43.3819 21.4842 43.5472 21.4842 43.708 21.5171C43.7873 21.5329 43.8654 21.5567 43.9413 21.5873C44.016 21.619 44.0885 21.6575 44.1564 21.7016C44.2243 21.7469 44.2877 21.8001 44.3455 21.8568C44.4021 21.9145 44.4542 21.9779 44.5006 22.0459C44.5448 22.1138 44.5833 22.1863 44.615 22.261C44.6456 22.3369 44.6693 22.415 44.6852 22.4943C44.7022 22.5747 44.7101 22.6562 44.7101 22.7377C44.7101 22.8192 44.7022 22.9008 44.6852 22.9812C44.6693 23.0604 44.6456 23.1385 44.615 23.2144C44.5833 23.2891 44.5448 23.3616 44.5006 23.4296C44.4542 23.4975 44.4021 23.5609 44.3455 23.6187C44.2877 23.6753 44.2243 23.7274 44.1564 23.7738C44.0885 23.8179 44.016 23.8564 43.9413 23.8881C43.8654 23.9187 43.7873 23.9425 43.708 23.9584C43.6276 23.9754 43.5461 23.9833 43.4646 23.9833Z" fill="black"/>
<path d="M50.4851 27.4357C50.4035 27.4357 50.322 27.4277 50.2416 27.4107C50.1623 27.3949 50.0831 27.3711 50.0083 27.3405C49.9336 27.3088 49.8611 27.2703 49.7932 27.2262C49.7253 27.1809 49.6607 27.1288 49.6041 27.071C49.5464 27.0133 49.4943 26.9499 49.449 26.8819C49.4037 26.814 49.3652 26.7415 49.3346 26.6668C49.3029 26.5909 49.2791 26.5128 49.2633 26.4335C49.2474 26.3532 49.2395 26.2716 49.2395 26.1901C49.2395 26.1086 49.2474 26.027 49.2633 25.9466C49.2791 25.8674 49.3029 25.7893 49.3346 25.7134C49.3652 25.6387 49.4037 25.5662 49.449 25.4982C49.4943 25.4303 49.5464 25.3669 49.6041 25.3091C49.6607 25.2525 49.7253 25.2004 49.7932 25.154C49.8611 25.1099 49.9336 25.0714 50.0083 25.0397C50.0831 25.0091 50.1623 24.9853 50.2416 24.9695C50.4024 24.9366 50.5677 24.9366 50.7285 24.9695C50.8078 24.9853 50.8859 25.0091 50.9606 25.0397C51.0365 25.0714 51.109 25.1099 51.1758 25.154C51.2448 25.2004 51.3083 25.2525 51.366 25.3091C51.4226 25.3669 51.4747 25.4303 51.52 25.4982C51.5653 25.5662 51.6038 25.6387 51.6344 25.7134C51.6661 25.7893 51.6899 25.8674 51.7057 25.9466C51.7216 26.027 51.7306 26.1086 51.7306 26.1901C51.7306 26.2716 51.7216 26.3532 51.7057 26.4335C51.6899 26.5128 51.6661 26.5909 51.6344 26.6668C51.6038 26.7415 51.5653 26.814 51.52 26.8819C51.4747 26.9499 51.4226 27.0133 51.366 27.071C51.3083 27.1288 51.2448 27.1809 51.1758 27.2262C51.109 27.2703 51.0365 27.3088 50.9606 27.3405C50.8859 27.3711 50.8078 27.3949 50.7285 27.4107C50.6481 27.4276 50.5655 27.4357 50.4851 27.4357Z" fill="black"/>
<path d="M67.3582 39.4976C67.0601 38.8786 66.7557 38.3002 66.4761 37.793H63.6057C65.0723 40.4343 67.2182 44.1579 66.2408 45.8453C66.0522 46.171 65.8757 46.0594 65.795 46.0395C65.6125 45.9565 65.2361 45.3795 65.0101 45.0329C63.1765 41.4589 58.9688 41.3865 56.5089 44.2981C55.7185 45.0882 55.1475 45.6592 53.9372 45.6592C52.715 45.6592 52.1187 45.0822 51.2934 44.2836C49.0421 41.567 44.7935 41.5326 42.584 44.2981C41.1188 46.1035 38.9051 46.1031 37.4405 44.2977C35.2457 41.5324 30.9606 41.5733 28.7311 44.2839C27.9058 45.0823 27.3095 45.6593 26.0873 45.6593C24.877 45.6593 24.306 45.0883 23.5157 44.2979C21.1041 41.3923 16.8017 41.4718 15.0145 45.0333C14.8441 45.2942 14.5885 45.6861 14.3947 45.8989C14.2271 46.0831 13.922 46.0631 13.7887 45.853C13.7871 45.8505 13.7855 45.848 13.7839 45.8454C12.7645 44.1762 14.9612 40.4333 16.4188 37.7931H13.5484C12.1099 40.2452 10.535 44.3783 11.1285 46.0108C11.4269 48.0762 14.3426 49.1238 15.5337 48.1617C16.2209 47.7433 16.6683 47.0573 17.1009 46.394C17.7869 45.3424 18.2543 44.6979 19.1825 44.6979C20.3928 44.6979 20.9638 45.2689 21.7542 46.0593C23.9841 48.837 28.2157 48.7806 30.4636 46.0733C31.9802 44.2813 34.185 44.2224 35.6791 46.0594C37.8716 48.8117 42.1565 48.8084 44.3456 46.059C45.8329 44.2232 48.0523 44.2829 49.561 46.0738C51.7751 48.7774 56.0804 48.8281 58.2704 46.059C59.0608 45.2689 59.6318 44.6979 60.8422 44.6979C61.7703 44.6979 62.2377 45.3424 62.9237 46.394C63.6023 47.4531 64.3611 48.5151 65.7851 48.529C67.0288 48.5548 68.6804 47.4728 68.8963 46.0107C69.2387 44.4875 68.7355 42.357 67.3582 39.4976Z" fill="#ADADAD"/>
<path d="M67.747 52.5643H64.1899C65.035 51.4765 65.5401 50.1121 65.5401 48.6311C65.5401 48.5923 65.5384 48.5538 65.5376 48.5152C64.2711 48.388 63.5617 47.39 62.9237 46.3941C62.2377 45.3425 61.7703 44.698 60.8421 44.698C60.5331 44.698 60.266 44.7357 60.026 44.8042C61.7912 45.2197 63.049 46.7921 63.049 48.631C63.049 50.7997 61.2846 52.5641 59.1159 52.5641H60.8421C61.3792 52.5641 61.8558 52.9084 62.0245 53.4181C62.1933 53.9279 62.0163 54.4886 61.5855 54.8091L61.2545 55.0553H66.4166C65.8073 59.4923 61.9913 62.9215 57.3896 62.9215H50.6788L47.6606 65.1665C47.4399 65.3305 47.1786 65.4126 46.9172 65.4126H57.3896C63.7875 65.4126 68.9926 60.2076 68.9926 53.8097C68.9926 53.1218 68.4349 52.5643 67.747 52.5643Z" fill="black"/>
<path d="M43.1806 62.9218H22.6349C18.0331 62.9218 14.2172 59.4924 13.6079 55.0555H32.6922L32.36 54.8064C31.9311 54.4847 31.7561 53.9246 31.9257 53.4161C32.0954 52.9076 32.5713 52.5645 33.1074 52.5645H20.9087C18.7399 52.5645 16.9756 50.8001 16.9756 48.6314C16.9756 46.7925 18.2333 45.22 19.9985 44.8046C19.7585 44.7359 19.4915 44.6982 19.1825 44.6982C18.2543 44.6982 17.7869 45.3428 17.1009 46.3944C16.6682 47.0576 16.2209 47.7435 15.5336 48.162C15.2589 48.384 14.8921 48.4978 14.4872 48.518C14.4865 48.5558 14.4846 48.5936 14.4846 48.6315C14.4846 50.1125 14.9896 51.4768 15.8347 52.5646H12.2775C11.5897 52.5646 11.032 53.1223 11.032 53.8102C11.032 60.208 16.237 65.4131 22.6349 65.4131H46.9171C46.6541 65.4131 46.3912 65.3301 46.1698 65.164L43.1806 62.9218Z" fill="black"/>
</svg>
