<svg width="80" height="80" viewBox="0 0 80 80" fill="none" xmlns="http://www.w3.org/2000/svg">
<path d="M60.6746 27.1439C60.3556 24.943 59.254 22.9295 57.5725 21.4742C55.891 20.0189 53.7404 19.2173 51.5166 19.2173H45.8885L46.7898 15.9997C47.1694 14.6444 46.8995 13.2239 46.049 12.1023C45.1985 10.9809 43.9034 10.3376 42.496 10.3376H38.2591C36.8515 10.3376 35.5565 10.9809 34.7061 12.1023C33.8556 13.2238 33.5856 14.6443 33.9652 15.9997L34.8666 19.2173H28.4835C26.2596 19.2173 24.109 20.0188 22.4275 21.4742C20.746 22.9296 19.6444 24.943 19.3255 27.1439L18.8904 30.1463L21.5268 30.5283L21.9619 27.5259C22.4282 24.3079 25.2319 21.8813 28.4834 21.8813H51.5164C54.768 21.8813 57.5716 24.308 58.0379 27.5259L58.473 30.5283L61.1094 30.1463L60.6746 27.1439ZM36.5306 15.2811C36.3778 14.7355 36.4864 14.1637 36.8288 13.7121C37.1713 13.2606 37.6926 13.0017 38.2592 13.0017H42.4961C43.0627 13.0017 43.584 13.2606 43.9265 13.7121C44.2689 14.1636 44.3775 14.7355 44.2247 15.2811L43.122 19.2173H37.6334L36.5306 15.2811Z" fill="#ADADAD"/>
<path d="M65.849 43.6744H62.3665V39.4339C64.1675 39.1563 65.551 37.5959 65.551 35.7184V32.7645C65.551 30.6915 63.8645 29.0051 61.7917 29.0051H18.2084C16.1355 29.0051 14.4491 30.6916 14.4491 32.7645V35.7184C14.4491 37.5959 15.8325 39.1563 17.6336 39.4339V43.6744H14.1511C11.3109 43.6744 9.00024 45.985 9.00024 48.8252C9.00024 51.6655 11.3109 53.9762 14.1511 53.9762H17.6336V63.3795C17.6336 66.8439 20.4526 69.6623 23.9177 69.6623H56.0825C59.5476 69.6623 62.3666 66.8439 62.3666 63.3795V53.9762H65.8491C68.6893 53.9762 70.9999 51.6655 70.9999 48.8252C70.9999 45.985 68.6891 43.6744 65.849 43.6744ZM17.1131 35.7184V32.7645C17.1131 32.1604 17.6045 31.6692 18.2084 31.6692H61.7918C62.3957 31.6692 62.8871 32.1606 62.8871 32.7645V35.7184C62.8871 36.3224 62.3957 36.8137 61.7918 36.8137H18.2084C17.6044 36.8137 17.1131 36.3224 17.1131 35.7184ZM14.1511 51.312C12.7798 51.312 11.6643 50.1964 11.6643 48.8251C11.6643 47.4539 12.7798 46.3384 14.1511 46.3384H17.6336V51.312H14.1511ZM59.7024 63.3794C59.7024 65.3748 58.0785 66.9981 56.0824 66.9981H23.9176C21.9215 66.9981 20.2975 65.3748 20.2975 63.3794V39.4777H59.7023L59.7024 63.3794ZM65.849 51.312H62.3665V46.3384H65.849C67.2202 46.3384 68.3358 47.4539 68.3358 48.8251C68.3358 50.1964 67.2202 51.312 65.849 51.312Z" fill="black"/>
<path d="M45.3295 62.0573H34.6709C31.9333 62.0573 29.7061 59.8301 29.7061 57.0925V49.3838C29.7061 46.6462 31.9333 44.4189 34.6709 44.4189H45.3296C48.0671 44.4189 50.2944 46.6462 50.2944 49.3838V57.0925C50.2943 59.8301 48.0671 62.0573 45.3295 62.0573ZM34.6709 47.083C33.4022 47.083 32.3701 48.1151 32.3701 49.3838V57.0925C32.3701 58.3612 33.4022 59.3933 34.6709 59.3933H45.3296C46.5983 59.3933 47.6303 58.3612 47.6303 57.0925V49.3838C47.6303 48.1151 46.5983 47.083 45.3296 47.083H34.6709Z" fill="#ADADAD"/>
<path d="M41.4214 54.57H38.5781C37.8425 54.57 37.2461 53.9737 37.2461 53.238C37.2461 52.5024 37.8425 51.906 38.5781 51.906H41.4213C42.1569 51.906 42.7533 52.5024 42.7533 53.238C42.7533 53.9737 42.157 54.57 41.4214 54.57Z" fill="#ADADAD"/>
</svg>
