<svg width="80" height="80" viewBox="0 0 80 80" fill="none" xmlns="http://www.w3.org/2000/svg">
<path d="M55.0671 68.9113L18.0004 64.0603C17.2239 63.9587 16.6768 63.2468 16.7784 62.4703C16.88 61.6938 17.5919 61.1467 18.3684 61.2483L55.4351 66.0994C56.2116 66.201 56.7587 66.9129 56.6571 67.6893C56.5555 68.4658 55.8436 69.0129 55.0671 68.9113Z" fill="#ADADAD"/>
<path d="M41.2864 57.8129L34.1728 56.8819C29.2597 56.2389 25.7591 51.9222 26.3693 47.2593C26.6903 44.8072 28.1235 42.6233 30.3016 41.2676C30.9665 40.8537 31.8407 41.0571 32.2547 41.7221C32.6686 42.3869 32.465 43.2613 31.8002 43.6752C30.3461 44.5803 29.3914 46.0208 29.1812 47.6275C28.7738 50.7398 31.1781 53.63 34.5407 54.07L41.6543 55.001C45.0169 55.4411 48.0839 53.2669 48.4913 50.1546C48.8301 47.5653 47.1517 44.9948 44.5003 44.0425C43.7633 43.7778 43.3805 42.9657 43.6453 42.2287C43.9101 41.4916 44.7217 41.1087 45.4591 41.3735C49.356 42.7731 51.8139 46.6209 51.3032 50.5226C50.6931 55.1855 46.1996 58.4559 41.2864 57.8129Z" fill="#ADADAD"/>
<path d="M63.4546 9.78822L25.1098 4.76994C24.3334 4.66832 23.6215 5.21543 23.5199 5.99192L15.3233 68.6219C15.2217 69.3984 15.7688 70.1103 16.5453 70.2119L54.89 75.2302C55.6665 75.3318 56.3784 74.7847 56.48 74.0082L64.6766 11.3782C64.7782 10.6017 64.2311 9.88984 63.4546 9.78822ZM47.3274 22.752L46.1238 31.9489L36.1541 30.6441L37.3577 21.4473L47.3274 22.752ZM37.7258 18.6353L38.9294 9.43867L48.8991 10.7434L47.6955 19.9401L37.7258 18.6353ZM58.9054 33.6215L48.9357 32.3168L50.1394 23.1199L60.109 24.4246L58.9054 33.6215ZM33.3423 30.276L23.3726 28.9713L24.5762 19.7744L34.5459 21.0791L33.3423 30.276ZM23.0046 31.7832L55.2252 36L37.3435 44.6177L22.609 34.8062L23.0046 31.7832ZM60.477 21.6128L50.5074 20.3081L51.7109 11.1114L61.6806 12.4162L60.477 21.6128ZM36.1175 9.07066L34.9139 18.2673L24.9442 16.9625L26.1478 7.7659L36.1175 9.07066ZM18.3193 67.5839L22.1988 37.9401L36.4448 47.4264C36.6286 47.5487 36.8347 47.6243 37.0465 47.652C37.3155 47.6872 37.5936 47.6451 37.8461 47.5235L58.3811 37.6272L53.8519 72.2342L18.3193 67.5839Z" fill="black"/>
</svg>
