<svg width="80" height="80" viewBox="0 0 80 80" fill="none" xmlns="http://www.w3.org/2000/svg">
<path d="M53.8671 27.7789H52.1292C50.52 24.1762 47.9621 21.0992 44.6909 18.842C41.0964 16.3618 36.8799 15.0508 32.4971 15.0508C20.6436 15.0508 11 24.6942 11 36.5478V43.4526C11 55.306 20.6436 64.9496 32.497 64.9496H53.867C62.2114 64.9496 69 58.1609 69 49.8166V42.9118C69 34.5675 62.2114 27.7789 53.8671 27.7789ZM32.497 17.5825C40.303 17.5825 47.2183 22.2661 50.1148 29.5145C50.3069 29.9954 50.7724 30.3107 51.2902 30.3107H53.867C60.8154 30.3107 66.4682 35.9634 66.4682 42.9118C66.4682 49.8602 60.8153 55.513 53.867 55.513H32.497C22.0395 55.513 13.5317 47.0051 13.5317 36.5477C13.5317 26.0903 22.0395 17.5825 32.497 17.5825ZM53.8671 62.4177H32.4971C23.3921 62.4177 15.7661 55.9678 13.9456 47.3973C17.6822 53.7619 24.5984 58.0448 32.4971 58.0448H53.8671C59.0525 58.0448 63.6366 55.4227 66.3646 51.4354C65.5678 57.6219 60.267 62.4177 53.8671 62.4177Z" fill="black"/>
<path d="M53.867 51.14H32.497C24.4508 51.14 17.9048 44.594 17.9048 36.5478C17.9048 28.5016 24.4507 21.9554 32.4969 21.9554C36.2805 21.9554 39.8674 23.3975 42.5969 26.0161C45.0236 28.3441 46.5506 31.3862 46.9704 34.6836H53.8669C58.404 34.6836 62.095 38.3747 62.095 42.9118C62.095 47.4489 58.404 51.14 53.867 51.14ZM32.4969 24.4872C25.8467 24.4872 20.4364 29.8975 20.4364 36.5477C20.4364 43.1979 25.8467 48.6082 32.4969 48.6082H53.8669C57.0079 48.6082 59.5633 46.0528 59.5633 42.9118C59.5633 39.7707 57.0079 37.2153 53.8669 37.2153H45.8092C45.1318 37.2153 44.5744 36.682 44.5446 36.0053C44.2592 29.5466 38.9672 24.4872 32.4969 24.4872Z" fill="#ADADAD"/>
<path d="M32.4971 41.2658C29.8954 41.2658 27.7788 39.1492 27.7788 36.5475C27.7788 33.9458 29.8954 31.8292 32.4971 31.8292C35.0987 31.8292 37.2153 33.9458 37.2153 36.5475C37.2153 39.1492 35.0988 41.2658 32.4971 41.2658ZM32.4971 34.3611C31.2915 34.3611 30.3107 35.342 30.3107 36.5475C30.3107 37.7531 31.2915 38.734 32.4971 38.734C33.7027 38.734 34.6836 37.7531 34.6836 36.5475C34.6836 35.342 33.7028 34.3611 32.4971 34.3611Z" fill="black"/>
</svg>
