<svg width="80" height="80" viewBox="0 0 80 80" fill="none" xmlns="http://www.w3.org/2000/svg">
<path d="M62.9313 42.2668C59.3784 38.7953 55.7045 35.2056 56.0828 25.6084C56.0965 25.263 55.9688 24.9269 55.7291 24.6776C55.4893 24.4283 55.1586 24.2875 54.8129 24.2875H52.2784L53.4995 15.1047C53.7939 12.837 52.1884 10.7526 49.9209 10.4582C48.8224 10.3155 47.7339 10.6092 46.8564 11.2851C45.9787 11.961 45.4169 12.9382 45.2748 14.0329L43.9111 24.2875H41.3254L42.5465 15.1047C42.8409 12.837 41.2354 10.7526 38.9679 10.4582C37.8693 10.3155 36.781 10.6092 35.9035 11.2851C35.0257 11.961 34.4639 12.9382 34.3218 14.0329L32.9581 24.2875H30.2524L31.4735 15.1047C31.7679 12.837 30.1624 10.7526 27.8948 10.4582C26.7959 10.3155 25.7078 10.6092 24.8303 11.2851C23.9526 11.961 23.3908 12.9382 23.2487 14.0329L21.885 24.2875H20.4486C19.9077 24.2875 19.4262 24.6297 19.2484 25.1404L12.4206 44.7458C11.2216 48.1884 10.7783 51.5835 11.1027 54.8366C11.4176 57.9936 12.4807 60.9058 14.177 63.2587C17.1677 67.4066 21.9086 69.6472 27.5207 69.5755H52.3992C52.4888 69.5766 52.5782 69.5773 52.6682 69.5773C52.758 69.5773 52.8484 69.5767 52.9387 69.5755C56.9036 69.5736 60.6598 68.2974 63.5156 65.9815C66.7594 63.3507 68.6513 59.5642 68.9866 55.0313C68.988 55.0141 68.9889 54.9969 68.9894 54.9797C69.2079 48.3994 66.017 45.2818 62.9313 42.2668ZM47.7948 14.364C47.8502 13.9387 48.0675 13.5604 48.4074 13.2988C48.7469 13.0372 49.1675 12.9233 49.5937 12.9787C50.4715 13.0926 51.0929 13.8995 50.9794 14.7734L49.7143 24.2874H46.4754L47.7948 14.364ZM36.8417 14.364C36.8971 13.9387 37.1144 13.5604 37.4543 13.2988C37.7937 13.0372 38.2144 12.9233 38.6406 12.9787C39.5184 13.0926 40.1398 13.8995 40.0263 14.7734L38.7612 24.2874H35.5223L36.8417 14.364ZM25.7686 14.364C25.8239 13.9387 26.0413 13.5604 26.3812 13.2988C26.7206 13.0372 27.1415 12.9233 27.5675 12.9787C28.4453 13.0926 29.0668 13.8995 28.9533 14.7734L27.6882 24.2874H24.4492L25.7686 14.364ZM21.3517 26.8292H44.078L39.8759 38.8955C38.4076 39.2293 37.5094 40.2183 36.7724 41.0298C35.9267 41.9612 35.4411 42.4472 34.4907 42.4472C33.5404 42.4472 33.0548 41.9612 32.2091 41.0298C31.2986 40.0274 30.1655 38.7796 28.0458 38.7796C25.9261 38.7796 24.793 40.0274 23.8825 41.0298C23.0368 41.9612 22.5512 42.4472 21.6009 42.4472C20.6505 42.4472 20.1649 41.9612 19.3192 41.0298C18.74 40.3921 18.0494 39.6314 17.0512 39.1778L21.3517 26.8292ZM27.5125 67.0336C27.5067 67.0336 27.5008 67.0336 27.4952 67.0337C22.7304 67.0999 18.7324 65.2304 16.2388 61.7721C13.2149 57.5782 12.6981 51.6771 14.821 45.5817L16.2078 41.5994C16.6049 41.8359 16.9664 42.2199 17.4376 42.7386C18.348 43.7412 19.4812 44.989 21.6009 44.989C23.7206 44.989 24.8537 43.7412 25.7642 42.7387C26.6099 41.8074 27.0955 41.3213 28.0458 41.3213C28.9961 41.3213 29.4817 41.8074 30.3274 42.7387C31.2379 43.7412 32.371 44.989 34.4907 44.989C36.4667 44.989 37.5853 43.9048 38.4655 42.9457L37.8386 44.7458C36.6395 48.1886 36.196 51.5838 36.5204 54.8369C36.8353 57.9938 37.8983 60.9059 39.5946 63.2587C40.6915 64.7801 42.0233 66.0451 43.5475 67.0336H27.5125ZM66.4499 54.8695C65.8153 63.2719 59.2054 67.0336 52.9302 67.0336H52.4236C47.8744 66.9683 44.0637 65.1111 41.6562 61.7721C38.6325 57.5785 38.1159 51.6772 40.2387 45.5817L46.7694 26.8292H53.514C53.4787 36.5848 57.5473 40.5598 61.1548 44.0847C64.0884 46.9508 66.6222 49.4269 66.4499 54.8695Z" fill="black"/>
<path d="M52.1496 49.2855C49.8561 49.2855 47.9902 51.1513 47.9902 53.4448C47.9902 55.7383 49.8561 57.6041 52.1496 57.6041C54.4431 57.6041 56.3089 55.7382 56.3089 53.4448C56.3089 51.1514 54.443 49.2855 52.1496 49.2855ZM52.1496 55.0623C51.2577 55.0623 50.532 54.3366 50.532 53.4448C50.532 52.553 51.2577 51.8273 52.1496 51.8273C53.0415 51.8273 53.7671 52.5529 53.7671 53.4448C53.7671 54.3367 53.0414 55.0623 52.1496 55.0623Z" fill="black"/>
<path d="M52.7571 64.2327C47.9142 64.2327 45.2979 62.0098 43.9534 60.1349C42.716 58.4096 41.9851 56.1831 41.8392 53.6962C41.7035 51.3806 42.0725 48.8912 42.9062 46.4972L48.4534 30.5692C48.6479 30.0109 49.2001 29.66 49.7893 29.7236C50.3771 29.7868 50.8437 30.2469 50.9151 30.8338C51.4021 34.8382 52.689 38.2521 54.8494 41.2704C56.0444 42.94 57.4118 44.3514 58.7115 45.6277C58.8848 45.798 59.0606 45.9687 59.2375 46.1404C60.0816 46.96 60.9543 47.8074 61.7105 48.7453C63.1379 50.516 63.6946 52.2366 63.6317 54.6836C63.6311 54.7079 63.6298 54.732 63.6278 54.7562C63.1539 60.4604 58.9411 64.1798 52.8948 64.2321C52.8487 64.2325 52.8027 64.2327 52.7571 64.2327ZM49.3425 35.745L45.3066 47.3331C43.8133 51.621 44.0863 55.9588 46.0188 58.6536C47.4831 60.6952 49.7844 61.7171 52.8729 61.6905C57.6401 61.6492 60.71 58.9929 61.0918 54.5818C61.1337 52.7491 60.7759 51.6358 59.7317 50.3405C59.0727 49.523 58.2563 48.7304 57.4669 47.964C57.2865 47.7889 57.1073 47.6148 56.9305 47.4413C55.6152 46.1495 54.0938 44.582 52.7825 42.7499C51.2474 40.6047 50.1076 38.2884 49.3425 35.745Z" fill="#ADADAD"/>
</svg>
