<svg width="40" height="40" viewBox="0 0 40 40" fill="none" xmlns="http://www.w3.org/2000/svg">
<rect x="1" y="1" width="38" height="38" rx="19" stroke="white" stroke-width="2"/>
<path d="M20 24.1176C18.8676 24.1176 17.8983 23.7144 17.0921 22.9079C16.2856 22.1017 15.8824 21.1324 15.8824 20C15.8824 18.8676 16.2856 17.8983 17.0921 17.0921C17.8983 16.2856 18.8676 15.8824 20 15.8824C21.1324 15.8824 22.1017 16.2856 22.9079 17.0921C23.7144 17.8983 24.1176 18.8676 24.1176 20C24.1176 21.1324 23.7144 22.1017 22.9079 22.9079C22.1017 23.7144 21.1324 24.1176 20 24.1176ZM20 22.3529C20.6471 22.3529 21.201 22.1226 21.6618 21.6618C22.1226 21.201 22.3529 20.6471 22.3529 20C22.3529 19.3529 22.1226 18.799 21.6618 18.3382C21.201 17.8775 20.6471 17.6471 20 17.6471C19.3529 17.6471 18.799 17.8775 18.3382 18.3382C17.8775 18.799 17.6471 19.3529 17.6471 20C17.6471 20.6471 17.8775 21.201 18.3382 21.6618C18.799 22.1226 19.3529 22.3529 20 22.3529ZM12.1306 30C11.5337 30 11.0294 29.7941 10.6176 29.3824C10.2059 28.9706 10 28.4663 10 27.8694V23.5294H11.7647V27.8732C11.7647 27.9638 11.8025 28.0468 11.8779 28.1221C11.9532 28.1975 12.0362 28.2353 12.1268 28.2353H16.4706V30H12.1306ZM23.5294 30V28.2353H27.8732C27.9638 28.2353 28.0468 28.1975 28.1221 28.1221C28.1975 28.0468 28.2353 27.9638 28.2353 27.8732V23.5294H30V27.8694C30 28.4663 29.7941 28.9706 29.3824 29.3824C28.9706 29.7941 28.4663 30 27.8694 30H23.5294ZM10 16.4706V12.1306C10 11.5337 10.2059 11.0294 10.6176 10.6176C11.0294 10.2059 11.5337 10 12.1306 10H16.4706V11.7647H12.1268C12.0362 11.7647 11.9532 11.8025 11.8779 11.8779C11.8025 11.9532 11.7647 12.0362 11.7647 12.1268V16.4706H10ZM28.2353 16.4706V12.1268C28.2353 12.0362 28.1975 11.9532 28.1221 11.8779C28.0468 11.8025 27.9638 11.7647 27.8732 11.7647H23.5294V10H27.8694C28.4663 10 28.9706 10.2059 29.3824 10.6176C29.7941 11.0294 30 11.5337 30 12.1306V16.4706H28.2353Z" fill="white"/>
</svg>
