<svg width="207" height="231" viewBox="0 0 207 231" fill="none" xmlns="http://www.w3.org/2000/svg">
<path d="M35.6552 207H33.6752V194.4H35.6552V200.16H39.7052V194.4H41.6852V207H39.7052V200.7H35.6552V207ZM48.6103 206.64C50.0503 206.64 51.2203 205.47 51.2203 200.7C51.2203 195.93 50.0503 194.76 48.6103 194.76C47.1703 194.76 46.0003 195.93 46.0003 200.7C46.0003 205.47 47.1703 206.64 48.6103 206.64ZM48.7903 194.22C51.3103 194.22 53.2903 196.2 53.2903 200.43C53.2903 204.75 50.8603 207.18 48.4303 207.18C45.9103 207.18 43.9303 205.2 43.9303 200.97C43.9303 196.65 46.3603 194.22 48.7903 194.22ZM58.3324 207H55.5424V194.4H58.1524C61.4824 194.4 62.6524 195.57 62.6524 197.28C62.6524 199.8 59.8624 200.34 59.8624 200.34V200.43C62.2924 200.43 63.4624 201.6 63.4624 203.31C63.4624 205.47 61.9324 207 58.3324 207ZM57.5224 194.94V200.25H58.0624C59.7724 200.25 60.5824 199.44 60.5824 197.64C60.5824 195.75 59.7724 194.94 58.0624 194.94H57.5224ZM58.3324 200.79H57.5224V206.46H58.3324C60.4024 206.46 61.3024 205.56 61.3024 203.58C61.3024 201.69 60.4024 200.79 58.3324 200.79ZM69.7568 206.64C71.1968 206.64 72.3668 205.47 72.3668 200.7C72.3668 195.93 71.1968 194.76 69.7568 194.76C68.3168 194.76 67.1468 195.93 67.1468 200.7C67.1468 205.47 68.3168 206.64 69.7568 206.64ZM69.9368 194.22C72.4568 194.22 74.4368 196.2 74.4368 200.43C74.4368 204.75 72.0068 207.18 69.5768 207.18C67.0568 207.18 65.0768 205.2 65.0768 200.97C65.0768 196.65 67.5068 194.22 69.9368 194.22ZM76.6889 207V194.4H83.5289V195.84L78.6689 194.85V200.16L82.9889 199.8V200.97L78.6689 200.61V206.55L83.5289 205.65V207H76.6889ZM91.6239 207H89.6439V194.4H91.6239V205.11H91.7139L95.7639 194.4H97.7439V207H95.7639V196.29H95.6739L91.6239 207ZM104.667 194.76C103.317 194.76 102.057 196.02 102.057 200.7C102.057 205.11 103.407 206.46 104.847 206.46C106.827 206.46 107.547 203.58 107.547 203.58L108.087 203.76C108.087 203.76 107.367 207.18 104.487 207.18C101.967 207.18 99.9869 205.2 99.9869 200.97C99.9869 196.56 102.327 194.22 104.847 194.22C106.827 194.22 108.087 195.48 108.087 197.46V198.36H106.287V197.64C106.287 195.57 105.477 194.76 104.667 194.76ZM115.74 207L112.77 200.7H112.05V207H110.07V194.4H112.05V200.16H113.04C114.03 195.93 115.02 194.22 116.1 194.22C116.73 194.22 117.18 194.67 117.18 195.93V197.28H115.38V196.47C115.38 195.93 115.29 195.84 115.11 195.84C114.93 195.84 114.48 196.83 114.03 198.81L117.9 207H115.74ZM125.46 194.4H126.81L123.39 202.14C121.68 206.01 120.87 206.82 119.43 207.27L118.71 205.2C120.42 205.02 121.392 204.678 122.22 203.04L117.81 194.4H120.06L123.21 200.7H123.3L125.46 194.4ZM131.843 194.76C130.493 194.76 129.233 196.02 129.233 200.7C129.233 205.11 130.583 206.46 132.023 206.46C134.003 206.46 134.723 203.58 134.723 203.58L135.263 203.76C135.263 203.76 134.543 207.18 131.663 207.18C129.143 207.18 127.163 205.2 127.163 200.97C127.163 196.56 129.503 194.22 132.023 194.22C134.003 194.22 135.263 195.48 135.263 197.46V198.36H133.463V197.64C133.463 195.57 132.653 194.76 131.843 194.76ZM141.476 194.76C140.126 194.76 138.866 196.02 138.866 200.7C138.866 205.11 140.216 206.46 141.656 206.46C143.636 206.46 144.356 203.58 144.356 203.58L144.896 203.76C144.896 203.76 144.176 207.18 141.296 207.18C138.776 207.18 136.796 205.2 136.796 200.97C136.796 196.56 139.136 194.22 141.656 194.22C143.636 194.22 144.896 195.48 144.896 197.46V198.36H143.096V197.64C143.096 195.57 142.286 194.76 141.476 194.76ZM151.018 207H149.038V194.85L145.798 196.2V194.4H154.258V196.2L151.018 194.85V207ZM158.668 207H155.878V194.4H158.488C161.818 194.4 162.988 195.57 162.988 197.28C162.988 199.8 160.198 200.34 160.198 200.34V200.43C162.628 200.43 163.798 201.6 163.798 203.31C163.798 205.47 162.268 207 158.668 207ZM157.858 194.94V200.25H158.398C160.108 200.25 160.918 199.44 160.918 197.64C160.918 195.75 160.108 194.94 158.398 194.94H157.858ZM158.668 200.79H157.858V206.46H158.668C160.738 206.46 161.638 205.56 161.638 203.58C161.638 201.69 160.738 200.79 158.668 200.79ZM170.093 206.64C171.533 206.64 172.703 205.47 172.703 200.7C172.703 195.93 171.533 194.76 170.093 194.76C168.653 194.76 167.483 195.93 167.483 200.7C167.483 205.47 168.653 206.64 170.093 206.64ZM170.273 194.22C172.793 194.22 174.773 196.2 174.773 200.43C174.773 204.75 172.343 207.18 169.913 207.18C167.393 207.18 165.413 205.2 165.413 200.97C165.413 196.65 167.843 194.22 170.273 194.22ZM51.7655 227H49.7855V214.4H57.6155V227H55.6355V214.94H51.7655V227ZM62.2948 227H60.3148V214.4H62.2948V225.11H62.3848L66.4348 214.4H68.4148V227H66.4348V216.29H66.3448L62.2948 227ZM73.8978 227H71.1078V214.4H73.7178C77.0478 214.4 78.2178 215.57 78.2178 217.28C78.2178 219.8 75.4278 220.34 75.4278 220.34V220.43C77.8578 220.43 79.0278 221.6 79.0278 223.31C79.0278 225.47 77.4978 227 73.8978 227ZM73.0878 214.94V220.25H73.6278C75.3378 220.25 76.1478 219.44 76.1478 217.64C76.1478 215.75 75.3378 214.94 73.6278 214.94H73.0878ZM73.8978 220.79H73.0878V226.46H73.8978C75.9678 226.46 76.8678 225.56 76.8678 223.58C76.8678 221.69 75.9678 220.79 73.8978 220.79ZM85.3222 226.64C86.7622 226.64 87.9322 225.47 87.9322 220.7C87.9322 215.93 86.7622 214.76 85.3222 214.76C83.8822 214.76 82.7122 215.93 82.7122 220.7C82.7122 225.47 83.8822 226.64 85.3222 226.64ZM85.5022 214.22C88.0222 214.22 90.0022 216.2 90.0022 220.43C90.0022 224.75 87.5722 227.18 85.1422 227.18C82.6222 227.18 80.6422 225.2 80.6422 220.97C80.6422 216.65 83.0722 214.22 85.5022 214.22ZM95.0443 227H92.2543V214.4H94.8643C98.1943 214.4 99.3643 215.57 99.3643 217.28C99.3643 219.8 96.5743 220.34 96.5743 220.34V220.43C99.0043 220.43 100.174 221.6 100.174 223.31C100.174 225.47 98.6443 227 95.0443 227ZM94.2343 214.94V220.25H94.7743C96.4843 220.25 97.2943 219.44 97.2943 217.64C97.2943 215.75 96.4843 214.94 94.7743 214.94H94.2343ZM95.0443 220.79H94.2343V226.46H95.0443C97.1143 226.46 98.0143 225.56 98.0143 223.58C98.0143 221.69 97.1143 220.79 95.0443 220.79ZM104.579 214.85L106.199 214.22H106.289L109.889 227H107.819L106.829 223.328H103.139L102.329 227H101.069L104.579 214.85ZM104.759 215.93L103.265 222.77H106.685L104.849 215.93H104.759ZM113.394 227H111.414V214.4H114.294C117.444 214.4 118.974 215.93 118.974 218.216C118.974 220.52 117.084 222.41 113.664 222.41H113.394V227ZM113.394 214.94V221.87H113.754C115.734 221.87 116.904 220.7 116.904 218.36C116.904 215.93 115.734 214.94 113.754 214.94H113.394ZM120.959 227V214.4H127.799V215.84L122.939 214.85V220.16L127.259 219.8V220.97L122.939 220.61V226.55L127.799 225.65V227H120.959ZM131.939 227H129.959V214.4H131.939V220.16H135.989V214.4H137.969V227H135.989V220.7H131.939V227ZM142.644 227H140.664V214.4H142.644V225.11H142.734L146.784 214.4H148.764V227H146.784V216.29H146.694L142.644 227ZM150.647 227L153.257 221.24C151.997 220.88 150.917 219.8 150.917 218.09C150.917 215.984 152.681 214.4 155.777 214.4H158.207V227H156.227V221.6H155.237L152.807 227H150.647ZM156.227 221.06V214.94H155.957C154.085 214.94 152.987 215.984 152.987 218C152.987 219.98 154.139 221.06 155.957 221.06H156.227Z" fill="black"/>
<g clip-path="url(#clip0_2002_67)">
<path d="M117.673 50.2658L122.601 51.8669L122.066 53.5062L118.946 52.4896L117.902 55.6856L120.385 56.4925L119.85 58.1318L117.368 57.3249L116.272 60.6861L119.392 61.7027L118.857 63.342L113.93 61.7408L117.679 50.2594L117.673 50.2658ZM148.78 74.3468C149.003 74.7471 149.219 75.1474 149.429 75.5477C150.219 75.4842 150.995 75.4206 151.772 75.3571C151.326 74.6709 150.874 73.9846 150.403 73.3175C146.812 68.2281 142.343 63.7804 137.212 60.4192C141.961 64.3014 145.838 69.0985 148.773 74.3405L148.78 74.3468ZM106.29 50.0878L106.315 48.3596L101.286 48.277L101.088 60.3557L102.992 60.3874L103.075 55.3997L105.532 55.4378L105.558 53.7095L103.1 53.6714L103.158 50.0307L106.283 50.0815L106.29 50.0878ZM89.1003 56.4036C90.1253 56.4862 90.711 57.2613 91.0994 58.4559L91.6787 60.2286C91.8633 60.7877 92.0098 61.188 92.3345 61.5565L90.4946 62.1538C90.2972 61.8933 90.1762 61.7344 89.8706 60.7941L89.2786 58.9896C88.9284 57.9221 88.4382 57.6489 87.6169 57.9158L86.993 58.1191L88.521 62.7955L86.7129 63.3864L82.9566 51.905L85.6879 51.0155C87.5596 50.4055 88.6483 51.0155 89.2276 52.7819L89.5205 53.6841C89.9088 54.8659 89.7815 55.7618 89.1003 56.3972V56.4036ZM87.8461 54.688L87.4768 53.557C87.2095 52.7374 86.8084 52.4642 86.1717 52.6739L85.2995 52.9598L86.4518 56.4862L87.1585 56.2574C87.8334 56.035 88.1453 55.6093 87.8461 54.688ZM74.6547 76.666C75.2277 76.6977 75.8007 76.7232 76.3801 76.7486C83.3896 69.95 92.8756 65.9725 102.839 65.9725C112.803 65.9725 122.34 69.9754 129.356 76.8057C129.935 76.7803 130.508 76.7486 131.081 76.7232C123.759 69.1494 113.567 64.689 102.839 64.689C92.1116 64.689 81.9698 69.1303 74.6547 76.6596V76.666ZM94.9511 58.8625V61.08L93.2194 61.3341L93.3849 49.103L96.1416 48.7027L99.8087 60.3747L97.9115 60.6543L97.2685 58.5321L94.9575 58.8689L94.9511 58.8625ZM94.9511 57.2041L96.7655 56.9373L94.9702 51.0282L94.9511 57.2041ZM70.3892 76.4309C70.9113 76.4626 71.4333 76.4881 71.9554 76.5198C72.2164 76.1704 72.4838 75.8209 72.7575 75.4778C73.999 73.9084 75.3742 72.428 76.8512 71.0428C75.1768 72.1802 73.5661 73.4382 72.0508 74.817C71.4779 75.3317 70.924 75.8717 70.3828 76.4245L70.3892 76.4309ZM206.486 138.591L187.794 148.064C187.794 149.17 187.704 149.875 187.692 149.951L187.577 150.758L186.126 150.371C186.641 154.272 185.724 156.928 185.686 157.042L185.463 157.69L182.84 156.921C182.885 158.224 182.745 159.476 182.726 159.622L182.637 160.346L181.917 160.251C181.758 160.232 178.155 159.73 175.653 157.881L175.494 159.831L174.634 159.565C174.602 159.552 174.545 159.533 174.469 159.514C173.584 159.215 170.082 157.919 168.204 155.435L167.847 156.483C168.548 162.564 167.809 166.871 167.765 167.126L167.586 168.11L166.701 167.634C166.663 167.615 163.002 165.645 158.355 164C156.159 163.218 154.497 161.744 153.376 160.448C153.529 167.304 148.913 172.596 148.691 172.844L147.863 173.772L147.462 172.596C147.462 172.596 146.52 169.966 143.12 165.601C142.343 164.61 141.726 163.593 141.216 162.583C130.171 169.794 116.986 173.988 102.833 173.988C88.6801 173.988 76.2273 170.023 65.3724 163.174C64.9268 163.98 64.4047 164.794 63.7872 165.594C60.3811 169.959 59.4516 172.571 59.4452 172.59L59.0441 173.765L58.2165 172.838C57.9936 172.584 53.3779 167.297 53.5307 160.441C52.4102 161.738 50.755 163.212 48.5521 163.993C43.9046 165.639 40.2375 167.609 40.2057 167.628L39.3207 168.104L39.1425 167.119C39.0979 166.865 38.3594 162.557 39.0597 156.483L38.6968 155.428C36.8187 157.913 33.3171 159.209 32.4322 159.507C32.3622 159.533 32.3049 159.552 32.2667 159.558L31.4072 159.825L31.248 157.874C28.746 159.723 25.1426 160.219 24.9834 160.244L24.264 160.34L24.1749 159.615C24.1558 159.469 24.0157 158.218 24.0603 156.915L21.4373 157.684L21.2145 157.036C21.1763 156.921 20.2595 154.272 20.7752 150.364L19.3236 150.752L19.209 149.945C19.1963 149.869 19.1071 149.151 19.1071 148.026L0.510634 138.603C0.720729 138.565 1.7521 138.362 3.52198 138.057L19.279 145.592C19.3427 145.084 19.4318 144.544 19.5464 143.985L3.59838 138.044C7.08722 137.428 13.3709 136.386 21.8065 135.236C21.0808 136.754 20.7815 138.355 20.6733 139.315L21.5901 139.181C21.6537 139.169 24.143 138.699 25.2954 137.682C25.2444 137.396 25.1999 137.11 25.1617 136.837C24.9197 137.015 24.6842 137.186 24.4359 137.345C23.6783 137.841 22.8634 138.241 22.0103 138.533L20.7179 138.984L21.7811 138.12C22.4368 137.587 23.0162 136.989 23.5128 136.329C23.7547 136.011 23.9902 135.674 24.194 135.325C24.2449 135.242 24.334 135.07 24.4359 134.874C25.1107 134.785 25.7983 134.696 26.4986 134.607C26.4668 135.312 26.4986 136.125 26.6387 137.04C27.9056 136.691 30.3695 135.808 32.4195 133.87C33.1389 133.787 33.8774 133.698 34.6159 133.615L34.5841 133.66C33.3617 136.926 34.0684 140.764 34.5777 142.695L35.399 141.507C36.3221 140.173 37.067 138.902 37.6846 137.631C38.4231 136.068 38.8942 134.766 39.1552 133.539C39.0915 133.406 39.0342 133.266 38.9706 133.133C39.569 133.069 40.1802 133.005 40.7914 132.936C51.7736 156.153 75.4569 172.266 102.846 172.266C130.234 172.266 153.739 156.28 164.779 133.202L164.301 132.745C165.454 132.866 166.58 132.98 167.695 133.101C167.72 133.241 167.739 133.374 167.771 133.52C168.032 134.753 168.503 136.055 169.248 137.631C169.859 138.902 170.61 140.173 171.534 141.507L172.355 142.695C172.864 140.764 173.571 136.926 172.348 133.66L172.317 133.615C173.062 133.698 173.794 133.787 174.513 133.87C176.563 135.801 179.033 136.691 180.294 137.04C180.434 136.125 180.466 135.312 180.434 134.607C181.134 134.696 181.822 134.785 182.497 134.874C182.599 135.07 182.688 135.242 182.739 135.325C182.949 135.674 183.178 136.011 183.42 136.329C183.916 136.983 184.496 137.587 185.151 138.12L186.215 138.984L184.922 138.533C184.069 138.235 183.254 137.834 182.497 137.345C182.248 137.186 182.013 137.015 181.771 136.837C181.739 137.11 181.695 137.39 181.637 137.682C182.79 138.699 185.279 139.169 185.342 139.181L186.259 139.315C186.151 138.355 185.858 136.754 185.126 135.236C193.53 136.379 199.801 137.421 203.296 138.038L187.38 143.966C187.494 144.525 187.583 145.059 187.647 145.567L203.366 138.05C205.384 138.406 206.46 138.616 206.46 138.616V138.578C206.46 138.578 206.486 138.591 206.498 138.603L206.486 138.591ZM45.1397 144.131C45.1397 144.131 45.1397 146.45 46.8587 147.899C47.0115 147.645 47.2025 147.321 47.4062 146.946C46.6549 145.986 45.9292 145.002 45.2225 144.004L45.1588 144.068L45.1397 144.093V144.131ZM41.3389 144.944C42.0201 144.633 43.0515 144.068 43.9683 143.216L43.9555 143.203L44.1529 143.045L44.3121 142.886L44.3248 142.898C44.3248 142.898 44.3757 142.848 44.4012 142.822C44.2611 142.613 44.1274 142.403 43.9874 142.193C43.6118 142.733 43.1215 143.261 42.5104 143.756L41.6127 144.487L42.3194 143.114C42.6186 142.536 42.9051 141.99 43.1215 141.405C43.1725 141.278 43.2043 141.164 43.2489 141.043C42.7141 140.192 42.192 139.328 41.6891 138.451C41.4981 138.838 41.2562 139.289 40.976 139.702C40.9633 140.306 40.9569 142.377 41.3389 144.951V144.944ZM34.5841 142.746C34.6286 142.917 34.6732 143.083 34.7178 143.222C39.4353 140.643 40.5749 137.421 40.7659 136.767C40.5813 136.418 40.3967 136.074 40.212 135.725C39.2889 138.146 37.7482 140.274 35.7428 141.844L34.5841 142.746ZM34.1639 149.392L34.7751 148.909C35.8064 148.102 36.7105 147.187 37.4745 146.183C37.8501 145.694 38.2066 145.173 38.5313 144.62C38.8242 144.125 39.3908 142.86 39.6136 142.295C39.5945 141.983 39.5754 141.685 39.5627 141.418C38.4995 142.498 37.0161 143.655 34.9406 144.728C34.7687 144.963 34.5904 145.199 34.4122 145.434C34.0429 146.965 34.062 148.407 34.1639 149.392ZM32.9734 142.212C31.9865 143.324 30.2994 144.957 28.0966 146.145C28.1094 148.248 28.434 149.856 28.746 150.904L29.1089 150.421C29.8856 149.386 30.605 148.267 31.3117 147.003C32.0056 145.764 32.6105 144.55 33.107 143.4L33.2025 143.172C33.1261 142.886 33.0434 142.562 32.967 142.206L32.9734 142.212ZM32.6359 140.357C32.6168 140.211 32.5977 140.065 32.5786 139.918C32.2667 140.223 31.9292 140.535 31.56 140.865C30.5796 141.723 29.5163 142.543 28.4022 143.292L27.5109 143.896C27.5937 144.207 27.6701 144.481 27.7465 144.703C30.3122 143.216 32.0948 141.062 32.6359 140.363V140.357ZM27.4472 143.623L28.0903 142.93C28.9816 141.971 29.8028 140.967 30.535 139.944C30.9361 139.378 31.2799 138.857 31.5791 138.362C31.9674 137.707 32.2412 137.186 32.4067 136.773L32.5086 136.526C32.5341 136.227 32.5659 135.928 32.6105 135.63C30.9233 136.983 29.1344 137.765 27.8674 138.184C27.6701 138.247 27.4918 138.305 27.3263 138.355C26.8997 140.414 27.1353 142.32 27.4472 143.629V143.623ZM20.5651 148.204L21.5582 147.219C22.4559 146.329 23.239 145.351 23.8947 144.309C24.2194 143.788 24.5059 143.248 24.7479 142.708C24.9579 142.238 25.4609 140.992 25.6583 140.37C25.6646 139.969 25.6965 139.55 25.7474 139.131C25.0916 139.569 24.3149 139.893 23.621 140.128C23.0416 140.325 22.5259 140.452 22.2013 140.522C20.8006 143.458 20.5523 146.431 20.5651 148.21V148.204ZM26.3458 145.04C26.2503 144.741 26.1421 144.385 26.0466 143.972C25.7092 144.385 25.3527 144.792 24.9707 145.167C24.0412 146.082 22.9907 146.901 21.8575 147.594L20.5714 148.382C20.5714 148.585 20.5778 148.769 20.5905 148.935L20.7561 148.89L20.8134 148.871C23.9266 147.67 25.6583 145.897 26.3522 145.046L26.3458 145.04ZM22.3859 155.746L23.1753 154.914C24.073 153.967 24.8179 152.88 25.3909 151.686C25.6774 151.089 25.9257 150.491 26.123 149.894C26.2949 149.379 26.575 148.318 26.7151 147.677C26.696 147.41 26.6769 147.13 26.6705 146.838C25.7792 147.727 24.3786 148.839 22.3477 149.773C21.8702 152.467 22.1567 154.64 22.3923 155.74L22.3859 155.746ZM27.7592 152.461C27.6382 152.169 27.4982 151.787 27.3517 151.311C27.0971 151.686 26.8361 152.054 26.5496 152.416C25.6646 153.541 24.6269 154.507 23.4809 155.276L22.6533 155.835L24.6014 155.263C24.9261 155.072 26.6069 154.056 27.7656 152.461H27.7592ZM25.5182 157.779L26.2249 157.245C27.1417 156.559 28.0266 155.816 28.8415 155.034C29.2299 154.666 29.6309 154.259 30.0257 153.833C30.4268 153.401 30.7323 153.039 30.9806 152.728C30.9806 152.55 30.987 152.378 30.9934 152.2C30.4395 152.607 29.8092 153.026 29.0771 153.446L28.5996 153.719C27.4918 155.079 26.1612 155.987 25.5564 156.362C25.5118 156.839 25.5055 157.334 25.5118 157.779H25.5182ZM31.1143 156.102C31.0952 155.911 31.0761 155.644 31.057 155.32C30.5732 155.619 30.1148 155.892 29.6564 156.146C28.6314 156.712 27.5555 157.22 26.4604 157.665L25.5246 158.046C25.5309 158.287 25.5437 158.503 25.5564 158.681C26.9061 158.402 29.5864 157.671 31.1143 156.102ZM32.6614 148.674C32.6487 148.325 32.6423 147.95 32.6614 147.549C32.585 147.638 32.515 147.721 32.4386 147.81C31.4518 148.909 30.4522 149.9 29.4591 150.752L28.8606 151.266C28.9243 151.463 28.9943 151.648 29.0516 151.794C29.962 151.222 30.6878 150.65 31.248 150.148L31.2671 150.072L31.3244 150.085C32.0629 149.417 32.4959 148.89 32.6678 148.674H32.6614ZM32.6614 157.264L33.5845 156.426C34.4822 155.612 35.2335 154.577 35.8892 153.262C36.1757 152.677 36.4304 152.073 36.6468 151.457C36.7678 151.114 36.8696 150.784 36.9651 150.472C36.3858 150.739 35.7428 151 35.017 151.247C34.6605 151.368 34.2785 151.482 33.8838 151.597L33.1834 151.794L32.9925 151.095C32.9925 151.095 32.9352 150.885 32.8842 150.599C32.7887 150.695 32.6805 150.803 32.5659 150.904C32.3367 152.232 32.4322 154.329 32.515 155.479L32.585 156.305L32.6105 156.534L32.6741 157.271L32.6614 157.264ZM38.092 153.687C38.0283 153.465 37.9519 153.185 37.8819 152.868C37.6145 153.255 37.3408 153.643 37.0479 154.005C36.0547 155.238 34.9852 156.184 33.8647 156.813L32.6741 157.487L32.706 157.874C34.1957 157.271 37.067 155.867 38.092 153.681V153.687ZM40.0529 146.005C40.0338 145.904 40.0211 145.802 40.002 145.7C39.9956 145.707 39.9892 145.72 39.9829 145.726C39.499 146.234 38.9833 146.711 38.4613 147.136C37.4235 148.001 36.2648 148.731 35.0234 149.316L34.1957 149.703C34.2085 149.799 34.2212 149.9 34.2339 149.989C38.1939 148.719 39.5754 146.99 40.0529 146.005ZM39.811 154.208L40.5304 152.741C41.1798 151.413 41.6827 150.059 42.0265 148.712C42.2111 147.969 42.3321 147.295 42.4085 146.654C42.434 146.425 42.4531 146.202 42.4658 145.993C42.0583 146.202 41.7082 146.355 41.4535 146.457C41.1416 147.187 40.5113 148.159 39.2252 149.132C38.8496 150.466 39.1679 152.099 39.4099 153.02L39.811 154.202V154.208ZM44.9423 147.931C44.6622 147.543 44.4521 147.143 44.2866 146.755C44.2548 146.851 44.2293 146.946 44.1975 147.047C43.9746 147.727 43.6882 148.426 43.3253 149.182C42.6822 150.498 41.8801 151.775 40.9378 152.988L39.8683 154.373L40.002 154.761C41.3134 153.846 43.8664 151.654 44.9423 147.931ZM53.97 157.315L55.0332 155.238C54.3647 154.621 53.709 153.992 53.066 153.344C52.8686 153.757 52.6713 154.176 52.4866 154.602C51.8245 156.127 51.2643 157.709 50.8123 159.329C50.9778 157.658 51.2579 155.981 51.6654 154.329C51.8182 153.694 51.9964 153.071 52.181 152.442C52.0983 152.359 52.0155 152.277 51.9391 152.194C51.7099 152.366 51.4871 152.544 51.2579 152.721C50.9778 153.262 50.6658 153.967 50.4175 154.532C50.1501 155.142 49.9018 155.765 49.6663 156.394C49.1952 157.652 48.7941 158.936 48.463 160.251C48.5076 158.897 48.6285 157.538 48.8259 156.178C48.9087 155.606 49.0105 155.041 49.1188 154.469C48.8386 154.71 48.5585 154.952 48.2911 155.212C47.9664 155.784 47.559 156.527 47.2598 157.125C46.9605 157.735 46.674 158.345 46.4066 158.967C46.1393 159.59 45.891 160.219 45.6872 160.867C45.4835 161.515 45.2989 162.17 45.2352 162.856C45.1779 162.17 45.2479 161.477 45.3371 160.791C45.4262 160.105 45.5663 159.425 45.7191 158.745C45.8209 158.313 45.9419 157.887 46.0565 157.455C46.0438 157.468 46.031 157.487 46.0119 157.5L45.4835 158.065C45.3116 158.256 45.1524 158.459 44.9869 158.662L43.9937 159.863L43.0833 161.128L42.6249 161.763L42.2175 162.43L41.3898 163.771L41.9883 162.309L42.2875 161.579L42.6377 160.867L43.3444 159.444L44.1402 158.065C44.2739 157.836 44.4012 157.601 44.5476 157.372L44.9869 156.705C45.2861 156.267 45.5663 155.803 45.8846 155.377L46.8396 154.088C47.1579 153.649 47.5144 153.255 47.8455 152.836C48.584 151.946 49.3543 151.089 50.1565 150.25C49.5517 149.564 48.9532 148.865 48.3739 148.159C47.9728 148.852 47.6799 149.278 47.6417 149.335L47.2534 149.881L46.6804 149.538C46.4576 149.405 46.2602 149.265 46.0692 149.112C44.6686 153.065 41.8546 155.269 40.5813 156.102C40.0147 160.619 40.2566 164.222 40.4412 165.88C41.8355 165.181 44.6622 163.841 48.0683 162.633C51.8818 161.28 53.9446 157.353 53.9637 157.315H53.97ZM64.1437 162.386C62.8322 161.522 61.5525 160.613 60.3047 159.66C60.3302 160.232 60.3811 161.166 60.4511 161.63C60.5402 162.201 60.6612 162.78 60.9159 163.32C60.5593 162.843 60.3111 162.284 60.101 161.725C59.8909 161.159 59.7253 160.581 59.5789 159.997C59.5471 159.87 59.4961 159.571 59.4579 159.31C59.2287 160.086 58.9486 161.077 58.7831 161.788C58.452 163.294 58.2292 164.826 58.1464 166.389C57.8854 164.851 57.7581 163.269 57.7517 161.674C57.7645 160.53 57.8663 158.98 57.9682 157.811C57.2169 157.188 56.4848 156.553 55.759 155.905L55.3197 157.811C53.97 163.656 57.1087 168.905 58.5857 170.963C59.1842 169.737 60.4002 167.596 62.6412 164.718C63.2078 163.987 63.7235 163.142 64.1373 162.386H64.1437ZM174.309 135.623C174.354 135.922 174.386 136.221 174.411 136.519L174.513 136.767C174.679 137.18 174.946 137.701 175.341 138.355C175.64 138.857 175.984 139.372 176.385 139.938C177.117 140.954 177.945 141.964 178.83 142.924L179.473 143.616C179.778 142.308 180.02 140.401 179.594 138.343C179.428 138.292 179.25 138.241 179.052 138.171C177.792 137.745 175.996 136.964 174.309 135.617V135.623ZM174.284 140.357C174.819 141.049 176.601 143.203 179.173 144.697C179.25 144.474 179.326 144.201 179.409 143.89L178.518 143.286C177.403 142.536 176.347 141.717 175.36 140.859C174.991 140.528 174.653 140.217 174.341 139.912C174.322 140.065 174.303 140.211 174.284 140.351V140.357ZM173.717 143.178L173.813 143.407C174.309 144.55 174.914 145.764 175.608 147.009C176.315 148.274 177.041 149.392 177.811 150.428L178.174 150.911C178.486 149.862 178.81 148.255 178.823 146.152C176.62 144.963 174.933 143.324 173.946 142.219C173.87 142.574 173.787 142.898 173.711 143.184L173.717 143.178ZM171.986 144.728C169.91 143.661 168.427 142.504 167.364 141.418C167.351 141.685 167.338 141.983 167.313 142.295C167.535 142.86 168.102 144.125 168.395 144.62C168.72 145.167 169.076 145.694 169.452 146.183C170.216 147.187 171.12 148.102 172.151 148.909L172.762 149.392C172.864 148.407 172.883 146.965 172.514 145.434C172.329 145.199 172.158 144.963 171.986 144.728ZM165.696 135.255C165.887 135.954 166.122 136.64 166.122 136.64C166.122 136.64 166.924 140.338 172.202 143.222C172.24 143.083 172.285 142.924 172.336 142.746L171.177 141.844C168.764 139.95 167.013 137.25 166.218 134.206C166.046 134.562 165.867 134.912 165.696 135.261V135.255ZM161.806 142.003C162.067 142.352 162.334 142.67 162.595 142.892L162.608 142.879L162.767 143.038L162.964 143.197L162.952 143.21C163.868 144.061 164.9 144.627 165.581 144.938C165.963 142.365 165.95 140.3 165.944 139.69C165.275 138.705 164.798 137.479 164.798 137.479C164.798 137.479 164.779 137.32 164.747 137.072C164.269 137.955 163.773 138.826 163.257 139.683C163.397 140.23 163.569 140.783 163.805 141.393C164.021 141.977 164.301 142.524 164.607 143.102L165.314 144.474L164.416 143.743C163.709 143.165 163.149 142.555 162.754 141.926C162.595 141.691 162.455 141.45 162.321 141.196C162.156 141.462 161.984 141.729 161.812 141.99L161.806 142.003ZM159.023 145.967C159.412 146.781 159.787 147.448 160.061 147.899C161.78 146.45 161.78 144.156 161.78 144.131V144.093L161.761 144.068L161.595 143.902L161.615 143.883C161.417 143.642 161.239 143.381 161.073 143.121C160.666 143.718 160.246 144.309 159.826 144.894C159.978 145.446 160.15 146.005 160.354 146.558C160.354 146.558 160.004 146.012 159.571 145.237C159.393 145.484 159.208 145.732 159.023 145.974V145.967ZM151.6 157.811L150.938 154.958C150.257 155.6 149.563 156.229 148.85 156.845C148.85 156.864 148.856 156.883 148.856 156.909C149.047 158.497 149.149 160.092 149.162 161.68C149.162 163.269 149.028 164.851 148.767 166.395C148.684 164.832 148.468 163.301 148.13 161.795C147.939 160.975 147.71 160.168 147.462 159.368C147.417 159.577 147.385 159.793 147.328 160.003C147.188 160.588 147.023 161.166 146.806 161.731C146.596 162.29 146.348 162.849 145.991 163.326C146.246 162.786 146.36 162.214 146.456 161.636C146.545 161.058 146.59 160.48 146.609 159.895C146.622 159.495 146.615 159.094 146.609 158.694C145.259 159.768 143.865 160.797 142.439 161.776C142.923 162.761 143.515 163.752 144.266 164.718C146.507 167.596 147.723 169.737 148.321 170.963C149.798 168.905 152.943 163.656 151.587 157.811H151.6ZM166.332 156.108C165.065 155.282 162.245 153.077 160.844 149.119C160.653 149.265 160.456 149.411 160.233 149.545L159.66 149.888L159.272 149.341C159.221 149.265 158.68 148.483 158.037 147.244C157.406 148.045 156.757 148.827 156.088 149.602C157.126 150.644 158.132 151.718 159.062 152.849C159.399 153.268 159.756 153.668 160.068 154.1L161.023 155.39C161.341 155.822 161.621 156.28 161.92 156.718L162.359 157.385C162.5 157.608 162.627 157.843 162.767 158.078L163.563 159.457L164.269 160.88L164.62 161.591L164.919 162.322L165.517 163.784L164.69 162.443L164.282 161.776L163.824 161.14L162.913 159.876L161.92 158.675C161.755 158.478 161.595 158.275 161.424 158.078L160.895 157.512C160.895 157.512 160.87 157.48 160.851 157.468C160.965 157.893 161.086 158.326 161.188 158.758C161.347 159.431 161.481 160.111 161.57 160.804C161.659 161.49 161.723 162.182 161.672 162.869C161.608 162.182 161.424 161.528 161.22 160.88C161.016 160.232 160.768 159.603 160.5 158.98C160.233 158.357 159.947 157.741 159.647 157.137C159.348 156.534 159.03 155.924 158.711 155.346L158.737 155.333L158.724 155.32C158.425 155.028 158.107 154.755 157.788 154.481C157.897 155.053 158.005 155.619 158.081 156.191C158.279 157.544 158.4 158.91 158.444 160.263C158.113 158.948 157.712 157.658 157.241 156.407C157.012 155.778 156.757 155.155 156.49 154.545C156.222 153.941 155.936 153.319 155.643 152.772L155.681 152.76C155.318 152.48 154.943 152.213 154.573 151.94C154.822 152.734 155.051 153.541 155.242 154.348C155.643 156 155.929 157.677 156.095 159.349C155.649 157.728 155.089 156.146 154.42 154.621C154.115 153.903 153.777 153.204 153.427 152.512C152.791 153.173 152.135 153.821 151.473 154.456L152.943 157.328C152.963 157.366 155.025 161.299 158.839 162.646C162.239 163.853 165.072 165.194 166.466 165.893C166.65 164.235 166.892 160.632 166.326 156.114L166.332 156.108ZM167.052 154.373L165.982 152.988C165.046 151.775 164.244 150.498 163.595 149.182C163.232 148.426 162.945 147.727 162.722 147.047C162.691 146.946 162.665 146.851 162.633 146.755C162.468 147.143 162.251 147.543 161.977 147.931C163.047 151.654 165.606 153.846 166.918 154.761L167.052 154.373ZM167.701 149.138C166.415 148.166 165.785 147.194 165.473 146.463C165.212 146.361 164.861 146.209 164.46 145.999C164.473 146.209 164.492 146.425 164.518 146.66C164.588 147.302 164.715 147.975 164.9 148.719C165.243 150.059 165.746 151.419 166.396 152.747L167.115 154.215L167.516 153.033C167.765 152.111 168.077 150.472 167.701 149.144V149.138ZM172.686 149.989C172.699 149.907 172.711 149.805 172.724 149.703L171.896 149.316C170.655 148.731 169.496 148.001 168.459 147.136C167.937 146.711 167.427 146.234 166.937 145.726C166.931 145.72 166.924 145.707 166.918 145.7C166.899 145.802 166.886 145.904 166.867 146.005C167.344 146.99 168.726 148.719 172.686 149.989ZM174.246 157.487L173.055 156.813C171.935 156.178 170.865 155.231 169.872 154.005C169.579 153.643 169.305 153.255 169.038 152.868C168.968 153.185 168.891 153.465 168.828 153.687C169.853 155.873 172.718 157.277 174.214 157.881L174.246 157.493V157.487ZM174.36 150.898C174.246 150.79 174.144 150.688 174.042 150.593C173.985 150.879 173.94 151.057 173.934 151.089L173.743 151.787L173.042 151.59C172.648 151.476 172.266 151.362 171.909 151.241C171.183 151 170.54 150.739 169.961 150.466C170.05 150.777 170.158 151.114 170.279 151.451C170.496 152.067 170.751 152.671 171.037 153.255C171.693 154.57 172.444 155.606 173.342 156.419L174.265 157.258L174.328 156.521L174.354 156.292L174.424 155.466C174.507 154.316 174.602 152.226 174.373 150.892L174.36 150.898ZM177.875 151.794C177.932 151.648 177.996 151.463 178.066 151.266L177.467 150.752C176.474 149.9 175.474 148.909 174.488 147.81C174.411 147.721 174.341 147.638 174.265 147.549C174.284 147.95 174.278 148.325 174.265 148.674C174.43 148.89 176.964 151.222 177.875 151.794ZM181.402 158.046L180.466 157.665C179.371 157.226 178.301 156.712 177.27 156.146C176.811 155.892 176.347 155.619 175.869 155.32C175.85 155.644 175.825 155.905 175.812 156.102C177.346 157.665 180.02 158.402 181.37 158.681C181.383 158.503 181.395 158.281 181.402 158.046ZM181.408 157.779C181.414 157.334 181.408 156.839 181.363 156.362C180.752 155.987 179.422 155.072 178.32 153.719L177.843 153.446C177.111 153.033 176.48 152.607 175.926 152.2C175.933 152.372 175.939 152.55 175.939 152.728C176.187 153.039 176.493 153.401 176.894 153.833C177.295 154.265 177.69 154.666 178.078 155.034C178.9 155.816 179.778 156.559 180.695 157.245L181.402 157.779H181.408ZM184.273 155.835L183.445 155.276C182.293 154.501 181.262 153.541 180.377 152.416C180.09 152.054 179.823 151.686 179.574 151.311C179.434 151.781 179.294 152.162 179.167 152.461C180.326 154.056 182.006 155.079 182.331 155.263L184.279 155.835H184.273ZM184.585 149.78C182.548 148.846 181.153 147.734 180.262 146.844C180.249 147.136 180.237 147.416 180.217 147.683C180.358 148.325 180.638 149.386 180.81 149.9C181.007 150.491 181.255 151.095 181.542 151.692C182.115 152.887 182.86 153.973 183.757 154.92L184.547 155.752C184.776 154.653 185.062 152.48 184.591 149.786L184.585 149.78ZM186.355 148.382L185.069 147.594C183.936 146.901 182.885 146.088 181.956 145.167C181.574 144.786 181.217 144.385 180.88 143.972C180.784 144.385 180.676 144.741 180.58 145.04C181.274 145.891 183.006 147.664 186.119 148.865L186.177 148.884L186.342 148.928C186.348 148.763 186.355 148.579 186.361 148.375L186.355 148.382ZM186.355 148.204C186.368 146.425 186.119 143.458 184.719 140.516C184.388 140.439 183.872 140.312 183.299 140.122C182.605 139.887 181.828 139.563 181.172 139.124C181.223 139.55 181.255 139.963 181.262 140.363C181.453 140.986 181.962 142.231 182.172 142.701C182.414 143.242 182.7 143.782 183.025 144.303C183.674 145.338 184.458 146.317 185.362 147.213L186.355 148.198V148.204ZM108.588 50.2594L110.549 50.5771L108.887 60.7941L110.765 61.0991L112.427 50.8821L114.388 51.1998L114.662 49.4969L108.862 48.5566L108.582 50.2594H108.588ZM145.762 75.8273C146.507 75.7701 147.245 75.7192 147.984 75.6621C147.793 75.3825 147.596 75.0966 147.398 74.8234C144.069 70.1787 139.943 66.1313 135.226 63.0815C139.561 66.646 143.088 71.0365 145.762 75.8273ZM66.3656 76.1831C66.9831 76.2212 67.6007 76.2593 68.2182 76.2974C70.1473 73.4763 72.3819 70.8204 74.8585 68.3869C71.7898 70.6616 68.9249 73.2667 66.3656 76.1831ZM129.687 58.5575L126.866 63.9773C125.975 65.6929 124.657 66.1948 122.97 65.3244L120.302 63.9392L125.879 53.2203L128.547 54.6054C130.234 55.4823 130.578 56.842 129.687 58.5575ZM127.726 56.124L126.777 55.6347L122.798 63.2911L123.747 63.7804C124.282 64.0599 124.746 63.9519 125.147 63.1831L128.044 57.6108C128.445 56.8483 128.261 56.4036 127.726 56.124ZM134.321 76.558C134.85 76.5262 135.372 76.5008 135.894 76.469C133.901 74.3659 131.686 72.5042 129.235 71.0492C131.176 72.6758 132.857 74.5438 134.315 76.558H134.321ZM141.898 76.1005C142.598 76.056 143.292 76.0052 143.979 75.9607C140.949 71.9768 137.326 68.4632 133.226 65.7437C136.683 68.7364 139.567 72.2755 141.898 76.1068V76.1005ZM138.18 76.3356C138.81 76.2974 139.44 76.2593 140.07 76.2212C137.486 73.1968 134.512 70.5409 131.234 68.3933C133.914 70.7442 136.231 73.4319 138.18 76.3356ZM146.832 64.2124C144.476 61.8361 141.917 59.6949 139.211 57.7696C141.713 59.9426 144.037 62.3063 146.119 64.8542C148.219 67.383 150.066 70.1024 151.689 72.9299C152.135 73.6987 152.549 74.4739 152.95 75.2618C153.765 75.1919 154.58 75.122 155.382 75.0521C154.72 73.9783 154.038 72.9172 153.306 71.8942C151.352 69.1494 149.2 66.5634 146.825 64.2061L146.832 64.2124ZM29.4591 134.238C28.3513 135.159 27.4218 135.909 27.4218 135.909C28.6951 135.414 29.8792 134.746 30.9424 134.054C30.4395 134.117 29.9493 134.175 29.4591 134.238ZM111.51 28.453C112.879 28.4721 114.235 28.5864 115.598 28.7262C116.279 28.8088 116.96 28.8787 117.648 28.974C117.972 29.0185 118.367 29.0693 118.762 29.082C119.156 29.0884 119.551 29.082 119.952 29.0121C120.742 28.8851 121.563 28.5356 122.123 27.9256C122.677 27.322 122.97 26.5341 122.894 25.7971C122.569 26.4452 122.098 26.9535 121.557 27.2331C121.022 27.5253 120.43 27.6143 119.825 27.6079C119.519 27.6016 119.214 27.5698 118.902 27.519C118.59 27.4809 118.291 27.3919 117.921 27.3284C117.215 27.1822 116.495 27.0869 115.776 27.0107C114.331 26.8772 112.86 26.89 111.408 27.125C109.97 27.3728 108.531 27.8303 107.334 28.669C108.773 28.4784 110.142 28.4212 111.51 28.4466V28.453ZM109.53 18.7507C109.715 18.6109 109.906 18.4711 110.097 18.344L110.695 17.9183C111.116 17.6006 111.51 17.2258 111.829 16.7746C112.147 16.3299 112.383 15.8025 112.44 15.2497C112.491 14.7033 112.383 14.1314 112.058 13.7312C112.09 14.2331 111.981 14.6842 111.784 15.0718C111.593 15.4594 111.319 15.7834 111.001 16.0694C110.683 16.3553 110.333 16.6094 109.951 16.8382C109.772 16.9462 109.549 17.086 109.333 17.2131C109.123 17.3465 108.913 17.4863 108.709 17.6388C107.894 18.236 107.156 18.9349 106.538 19.7419C105.94 20.5488 105.418 21.4574 105.258 22.474C105.927 21.7243 106.627 21.0953 107.334 20.4789C108.047 19.869 108.779 19.3035 109.53 18.7507ZM52.7922 71.9069C52.0792 72.9045 51.4107 73.9402 50.755 74.9822C51.5571 75.0521 52.372 75.122 53.187 75.1919C53.5817 74.4358 53.9828 73.6797 54.4093 72.9426C57.6562 67.2877 61.8963 62.1474 66.8749 57.7696C61.4952 61.6455 56.6949 66.4172 52.7859 71.9069H52.7922ZM90.711 27.017C89.9916 27.0933 89.2722 27.1886 88.5655 27.3347C88.1963 27.3983 87.897 27.4872 87.5851 27.5253C87.2731 27.5762 86.9675 27.6079 86.6619 27.6143C86.0571 27.6143 85.465 27.5317 84.9303 27.2394C84.3891 26.9599 83.9243 26.4515 83.5933 25.8035C83.5169 26.5405 83.8098 27.322 84.3636 27.932C84.9239 28.542 85.7452 28.8914 86.5346 29.0185C86.9357 29.0884 87.3304 29.0947 87.7251 29.0884C88.1199 29.0757 88.5082 29.0248 88.8393 28.9804C89.5205 28.8851 90.2081 28.8152 90.8893 28.7326C92.2517 28.5928 93.6141 28.4848 94.9766 28.4594C96.3454 28.4339 97.7142 28.4911 99.153 28.6817C97.9561 27.843 96.5173 27.3856 95.0784 27.1378C93.6269 26.9027 92.1562 26.89 90.711 27.0234V27.017ZM176.334 72.86C176.697 72.8155 177.06 72.7711 177.423 72.7266C177.512 72.3898 177.588 72.034 177.639 71.6528L177.798 70.5091L176.99 71.8307C176.773 72.1865 176.557 72.5296 176.334 72.86ZM102.839 170.029C129.095 170.029 151.829 154.717 162.576 132.58C160.895 132.415 159.17 132.249 157.419 132.091C147.156 151.749 126.548 165.2 102.839 165.2C79.1304 165.2 58.5985 151.794 48.3166 132.199C46.5531 132.364 44.8341 132.529 43.147 132.701C53.9127 154.78 76.622 170.029 102.839 170.029ZM102.839 37.6089C76.883 37.6089 54.3775 52.5658 43.4781 74.2896C45.1715 74.4612 46.9032 74.6264 48.6667 74.7916C59.0569 55.5458 79.4423 42.4378 102.839 42.4378C126.236 42.4378 146.698 55.5966 157.075 74.8996C158.839 74.7408 160.57 74.5756 162.258 74.4104C151.384 52.6167 128.84 37.6089 102.839 37.6089ZM179.498 135.909C179.498 135.909 178.569 135.153 177.461 134.238C176.971 134.175 176.474 134.117 175.977 134.054C177.041 134.746 178.225 135.414 179.498 135.909ZM77.9462 55.9715C78.481 55.6919 78.9712 55.8063 79.3723 56.5688L79.9708 57.7188L81.5624 56.8865L81.0149 55.8444C80.1172 54.1289 78.7484 53.6015 77.0931 54.4656C75.4378 55.3298 75.094 56.753 75.9917 58.4686L78.9076 64.0345C79.8052 65.7437 81.174 66.2774 82.8293 65.4133C84.4846 64.5492 84.8284 63.1259 83.9307 61.4104L83.1858 59.9871L81.5942 60.8195L82.3964 62.3508C82.7975 63.1132 82.6065 63.5643 82.0653 63.8439C81.5305 64.1235 81.0467 64.0218 80.6456 63.2594L77.6152 57.4774C77.2141 56.7149 77.3987 56.2447 77.9335 55.9651L77.9462 55.9715ZM55.8036 73.4064C55.3579 74.0291 54.9314 74.6709 54.5048 75.3126C55.2752 75.3761 56.0582 75.4397 56.8413 75.5032C57.0323 75.1474 57.2233 74.7916 57.4207 74.4421C60.3811 69.2129 64.2073 64.4031 68.8676 60.4319C63.819 63.8947 59.407 68.3551 55.7972 73.4128L55.8036 73.4064ZM0.497901 68.3551L20.6415 58.1445C20.6797 56.6259 20.9343 55.3552 21.0426 54.8723C21.0617 54.796 21.0744 54.7389 21.0808 54.7071L21.3036 53.8366L23.0607 54.7134C22.787 51.6191 24.2322 48.2897 24.2958 48.1436L24.5887 47.4764L25.2572 47.775C25.3909 47.8386 26.5368 48.366 27.6255 49.0839L28.3322 46.4471L29.0007 46.5932C29.1216 46.6186 31.8656 47.2223 34.9342 49.6939L35.3544 48.2516L36.0993 48.5756C36.2139 48.6265 37.9201 49.3826 39.9128 50.9774C40.333 46.4153 41.4853 43.3718 41.5554 43.1876L41.8419 42.4505L42.4531 42.9525C42.4531 42.9525 45.006 45.0492 48.3484 47.0253C49.9273 47.9593 50.9841 49.3508 51.6526 50.5263C52.5758 45.2081 56.9432 41.8215 57.1596 41.6626L57.9364 41.0717L58.07 42.0439C58.07 42.0439 58.3884 44.1724 60.292 47.972C65.9518 43.6705 72.28 40.2013 79.0922 37.755L75.336 31.2233H79.2068C79.2068 31.2233 74.3237 28.6246 74.9922 20.282C75.6097 12.5557 83.8543 10.0459 88.6546 12.2062C88.6546 12.2062 88.0371 6.17643 95.314 6.64026C95.314 6.64026 95.9315 0.0132022 103.183 -0.00585938C103.183 -0.00585938 103.189 -0.00585938 103.196 -0.00585938C103.202 -0.00585938 103.202 -0.00585938 103.208 -0.00585938C110.46 0.0132022 111.077 6.64026 111.077 6.64026C118.354 6.17643 117.737 12.2062 117.737 12.2062C122.537 10.0396 130.432 12.2062 131.049 19.9325C131.718 28.2751 127.178 31.2169 127.178 31.2169H131.049L127.166 37.9647C134.124 40.5317 140.561 44.1661 146.29 48.6709C146.373 48.4803 146.456 48.2897 146.551 48.0991C148.512 44.2105 148.837 42.0566 148.843 42.0375L148.977 41.0654L149.754 41.6563C149.964 41.8151 154.331 45.2017 155.261 50.5199C155.929 49.3508 156.986 47.9593 158.565 47.0189C161.907 45.0429 164.435 42.9652 164.46 42.9461L165.072 42.4442L165.358 43.1812C165.428 43.3655 166.58 46.4026 167.001 50.9647C168.993 49.3699 170.7 48.6138 170.814 48.5629L171.559 48.2389L171.979 49.6812C175.048 47.2096 177.792 46.6059 177.913 46.5805L178.581 46.4344L179.288 49.0712C180.377 48.3532 181.516 47.8195 181.656 47.7623L182.325 47.4637L182.618 48.1309C182.681 48.277 184.133 51.6064 183.853 54.7007L185.61 53.8239L185.833 54.6944C185.839 54.7325 185.858 54.7833 185.871 54.8596C185.979 55.3425 186.234 56.6005 186.272 58.1064L206.447 68.3297C206.447 68.3297 206.447 68.3297 206.441 68.3297C206.269 68.3615 195.472 70.4646 178.021 72.6313C178.167 71.602 178.117 70.6552 178.04 70.0198C175.64 71.0365 173.876 72.123 173.367 72.447C173.24 72.7202 173.093 72.9934 172.947 73.2476C172.31 73.3238 171.667 73.3937 171.012 73.47C171.744 72.5233 173.329 69.9182 173.112 65.2799C172.972 65.318 172.813 65.3625 172.641 65.4133L172.469 66.8683C172.183 69.2892 171.241 71.6147 169.764 73.6034C168.974 73.6924 168.178 73.7813 167.364 73.8639C168.198 73.0379 169.006 72.0277 169.878 70.6997C170.649 69.5179 171.343 68.2154 172.005 66.7349L172.59 65.4197C170.674 65.9915 167.026 67.3894 164.868 70.1342L164.836 70.2168L164.811 70.2041C164.76 70.2676 164.715 70.3375 164.664 70.4074C165.294 71.5702 165.887 72.7584 166.453 73.9592C165.855 74.0228 165.25 74.0863 164.639 74.1498C153.548 51.2125 130.011 35.3469 102.826 35.3469C75.6415 35.3469 52.1874 51.1553 41.0715 74.0291C39.7346 73.8893 38.4231 73.7495 37.137 73.6034C35.6664 71.6083 34.7178 69.2828 34.4313 66.8683L34.2594 65.4133C34.0875 65.3625 33.9283 65.318 33.7883 65.2799C33.5718 69.9182 35.1571 72.5233 35.8892 73.47C35.2398 73.3937 34.5904 73.3238 33.9538 73.2476C33.8074 72.9934 33.6609 72.7266 33.5336 72.447C33.0243 72.123 31.2544 71.0365 28.8606 70.0198C28.7842 70.6552 28.7333 71.6083 28.8797 72.6313C11.8111 70.5091 1.09635 68.4504 0.485168 68.3361L0.497901 68.3551ZM158.183 57.9031C157.877 58.1382 157.566 58.3733 157.247 58.6147C157.215 58.6401 157.184 58.6655 157.152 58.6909C157.292 58.8307 157.432 58.9769 157.559 59.123C157.744 58.6973 157.96 58.2907 158.189 57.9094L158.183 57.9031ZM159.756 62.2555C160.061 61.8043 160.736 60.7242 160.889 60.4319C161.08 60.0697 161.245 59.7012 161.392 59.3263C161.691 58.5639 161.907 57.7569 162.022 56.9182L162.207 55.5649L162.493 56.9055C162.684 57.7887 162.767 58.6909 162.741 59.5932C162.741 59.8855 162.716 60.1777 162.684 60.4764C162.932 60.362 163.2 60.254 163.474 60.146C163.741 58.6338 162.85 56.2701 162.824 56.2066L162.461 55.3552C161.36 56.2066 159.291 58.0746 158.578 60.4954C158.985 61.1562 159.272 61.7662 159.463 62.2618C159.495 62.3063 159.526 62.3508 159.565 62.4016C159.622 62.3508 159.692 62.2999 159.749 62.2491L159.756 62.2555ZM163.633 61.6264C162.175 62.2364 161.137 62.9544 160.411 63.5834C161.137 64.6191 161.837 65.6675 162.506 66.7413C162.799 64.8351 163.066 62.8845 163.066 62.8845C163.378 64.6318 163.365 66.3982 163.251 67.9612C163.429 68.2535 163.601 68.5458 163.773 68.8444C164.594 65.8517 164.015 62.9798 163.626 61.6264H163.633ZM168.147 63.4436C168.637 62.2872 169.07 61.0609 169.426 59.8029L169.687 58.8943C168.408 59.3136 166.65 60.1015 165.116 61.5438C165.161 61.709 165.205 61.8933 165.25 62.0903C165.543 63.3864 165.81 65.318 165.53 67.4593C165.766 67.2686 166.001 67.078 166.243 66.9065L166.402 66.6904C166.67 66.3346 166.969 65.8327 167.332 65.1592C167.605 64.6445 167.866 64.0854 168.147 63.4436ZM170.757 58.5893C170.528 58.6401 170.254 58.7164 169.942 58.8117L169.891 59.8855C169.827 61.2261 169.681 62.5541 169.464 63.8376C169.375 64.3268 169.286 64.7716 169.184 65.1973C169.318 65.1337 169.458 65.0702 169.592 65.013C169.904 64.1934 170.821 61.5502 170.757 58.5893ZM177.092 66.0995C177.55 64.9304 177.868 63.6787 178.021 62.3825L178.11 61.6074C177.219 62.0331 175.971 62.7638 174.857 63.8757C174.749 64.1553 174.64 64.4285 174.526 64.6953C174.691 67.0208 174.475 68.8889 174.106 70.3566C174.341 70.2232 174.602 70.0834 174.882 69.9436C175.252 69.4544 176.035 68.317 176.308 67.8087C176.608 67.2496 176.875 66.6714 177.092 66.0995ZM177.187 58.7799L177.244 58.7227C177.378 57.9857 177.493 57.0644 177.505 55.9906C177.353 56.016 177.162 56.0605 176.958 56.1049L176.831 56.8865C176.614 58.1763 176.289 59.5424 175.863 60.9593C175.831 61.0736 175.793 61.1753 175.761 61.2833C176.092 61.0609 176.417 60.8703 176.722 60.6988C176.818 60.4446 177.047 59.7965 177.232 58.818L177.193 58.7799H177.187ZM185.648 62.3317L187.138 62.0013L187.195 62.8337C187.195 62.8845 187.214 63.1958 187.195 63.6914L203.665 68.6728L186.157 60.2985C186.062 60.9847 185.903 61.6772 185.642 62.3253L185.648 62.3317ZM185.342 63.8757L184.719 65.5086C184.171 66.9382 183.49 68.2916 182.707 69.5242C182.248 70.2295 181.796 70.8331 181.332 71.3796C181.262 71.4558 181.192 71.5321 181.128 71.6083C181.548 71.5511 182 71.5194 182.478 71.5575C185.101 68.7046 185.648 65.3879 185.75 63.7931L185.349 63.882L185.342 63.8757ZM185.177 63.9138L183.961 64.187C183.044 64.4602 181.478 65.0384 180.536 66.055C180.377 67.6562 179.874 68.6982 179.409 69.3463C179.453 69.6196 179.504 70.0008 179.536 70.4519C179.708 70.3312 179.886 70.2041 180.071 70.0643C180.58 69.6704 181.09 69.2129 181.631 68.6665C182.599 67.6753 183.496 66.5379 184.292 65.2926L185.177 63.9138ZM184.267 56.124L184.311 57.4837C184.349 58.7672 184.101 60.1714 183.566 61.6582C183.407 62.0966 183.222 62.5287 183.025 62.9607C183.337 62.8591 183.611 62.7765 183.834 62.7193C185.171 60.7115 184.878 57.5345 184.617 55.9524L184.267 56.1303V56.124ZM181.013 49.7384L181.179 50.7359C181.37 51.8987 181.491 53.0805 181.548 54.2496C181.574 54.7706 181.58 55.3107 181.574 55.8762C181.86 55.7237 182.096 55.603 182.274 55.5204C182.815 53.3982 182.045 50.7359 181.58 49.4397C181.421 49.5223 181.23 49.624 181.02 49.7447L181.013 49.7384ZM178.938 55.1646C178.963 56.0033 178.931 56.7594 178.868 57.4456C179.014 57.3503 179.161 57.255 179.313 57.1597C179.453 56.7848 179.6 56.3337 179.765 55.7682C179.925 55.2027 180.065 54.6563 180.179 54.1289C180.421 53.0233 180.599 51.886 180.708 50.7486L180.79 49.8718C180.408 50.0942 179.982 50.3611 179.6 50.647C179.6 51.3586 179.511 52.9725 178.925 54.6181L178.938 55.1709V55.1646ZM178.473 59.8855C178.747 59.7838 178.925 59.7266 178.957 59.7203L179.657 59.5169L179.855 60.2159C179.969 60.6098 180.065 60.9974 180.147 61.3596C180.319 62.103 180.434 62.7892 180.504 63.4246C180.727 63.1831 180.956 62.9226 181.185 62.643C181.599 62.1411 181.987 61.6074 182.338 61.0609C183.127 59.8156 183.617 58.6338 183.846 57.4519L184.082 56.2257L183.42 56.5561L183.21 56.6577L182.465 57.0326C181.44 57.56 179.594 58.5702 178.581 59.4598C178.549 59.6123 178.518 59.752 178.486 59.8855H178.473ZM178.397 61.4739L178.499 62.3825C178.645 63.7423 178.626 65.1083 178.422 66.449C178.327 67.1161 178.187 67.796 178.008 68.4759C178.008 68.4886 178.008 68.4949 178.002 68.5076C178.097 68.4695 178.193 68.4314 178.288 68.3933C178.881 67.472 179.638 65.3942 178.664 61.3596C178.588 61.3913 178.492 61.4358 178.403 61.4739H178.397ZM177.582 49.4397C177.518 50.8185 177.238 52.2037 176.735 53.5443C176.576 53.9764 176.398 54.3957 176.207 54.8024C176.684 54.6753 177.085 54.5991 177.397 54.5482C178.155 52.731 178.155 50.7677 178.148 50.3928L177.626 48.4358L177.582 49.4334V49.4397ZM172.024 56.5433C172.278 56.4036 172.527 56.2701 172.762 56.1494C173.24 55.6983 174.004 54.9041 174.348 54.4911C174.749 54.0145 175.137 53.4871 175.494 52.9344C176.219 51.8224 176.76 50.6216 177.104 49.3635L177.403 48.2579C176.34 48.6328 174.335 49.5224 172.278 51.3332C172.539 53.5507 172.317 55.3234 172.017 56.5433H172.024ZM171.355 64.3268C171.699 64.2061 172.017 64.1108 172.304 64.0282L172.444 63.8248C173.17 62.8082 173.889 61.6582 174.589 60.4192C175.303 59.1548 175.882 57.9603 176.366 56.7594L176.589 56.2002C175.532 56.4798 173.985 57.0389 172.177 58.1255C172.304 60.6225 171.788 62.9099 171.349 64.3332L171.355 64.3268ZM170.165 52.0575C170.165 53.3855 170.012 54.7007 169.713 55.9715C169.585 56.4925 169.426 57.0072 169.248 57.5091C169.649 57.3757 170.012 57.2804 170.318 57.2105C170.687 56.1748 171.298 53.7794 170.706 50.5008L170.693 50.4437L170.642 50.2785C170.496 50.3547 170.337 50.45 170.158 50.5517V52.0575H170.165ZM164.295 56.035C164.403 56.3527 164.562 56.861 164.696 57.4519C164.855 58.1636 164.982 58.9959 164.951 59.7838C165.288 59.5169 165.625 59.2755 165.963 59.0595C166.396 58.5702 167.198 57.4901 167.491 57.0644C167.828 56.5751 168.14 56.0477 168.42 55.5013C168.968 54.4085 169.394 53.2266 169.694 52.0003L170.018 50.6406C168.49 51.5556 166.078 53.3156 164.295 56.035ZM154.484 56.2511C155.025 56.8356 155.56 57.4265 156.082 58.0365C156.222 57.6299 156.356 57.2169 156.477 56.8039C156.655 56.1812 156.821 55.5458 156.961 54.9041C157.241 53.6269 157.432 52.318 157.534 50.9964C157.661 52.3117 157.699 53.6523 157.636 54.9867C157.61 55.6411 157.559 56.2955 157.483 56.95C157.725 56.6831 157.967 56.4163 158.209 56.1431H158.183C158.329 55.6665 158.457 55.1455 158.565 54.6372C158.68 54.1225 158.775 53.6079 158.864 53.0869C159.036 52.0448 159.151 50.9901 159.202 49.9226C159.374 50.9774 159.488 52.0448 159.539 53.125C159.565 53.5761 159.571 54.0336 159.571 54.4911C159.775 54.2305 159.978 53.9764 160.163 53.7032V53.6905H160.15C160.316 53.1949 160.462 52.6802 160.602 52.1655C160.742 51.6509 160.87 51.1299 160.978 50.6089C161.086 50.0878 161.188 49.5605 161.245 49.0331C161.303 48.5057 161.347 47.9657 161.296 47.4319C161.443 47.953 161.5 48.4994 161.532 49.0458C161.564 49.5922 161.564 50.1387 161.545 50.6851C161.532 51.0346 161.506 51.384 161.481 51.7271C161.487 51.7144 161.5 51.7017 161.506 51.6827L161.831 51.1616C161.933 50.9837 162.028 50.8058 162.124 50.6279L162.71 49.5478L163.219 48.4358L163.474 47.8767L163.69 47.2985L164.123 46.1421L163.887 47.362L163.766 47.972L163.607 48.5756L163.276 49.7829L162.869 50.971C162.799 51.168 162.735 51.3713 162.659 51.5683L162.423 52.1465C162.258 52.5341 162.111 52.928 161.933 53.3092L161.449 54.3259C161.997 53.9001 162.372 53.6651 162.385 53.6587L163.098 53.2139L163.639 54.472C164.359 53.4999 165.148 52.6548 165.925 51.9368C165.676 48.3723 164.938 45.6338 164.55 44.3821C163.582 45.1318 161.595 46.5996 159.157 48.0483C156.42 49.6685 155.42 53.017 155.414 53.0487L154.49 56.2701L154.484 56.2511ZM147.214 49.427C148.194 50.2276 149.162 51.0536 150.098 51.8987C150.002 51.4857 149.888 51.0727 149.741 50.6787C149.582 50.2467 149.404 49.821 149.124 49.4461C149.474 49.7574 149.747 50.1514 149.996 50.558C150.244 50.9647 150.46 51.384 150.658 51.8161C150.728 51.9686 150.792 52.1338 150.855 52.2926C150.919 51.6382 150.976 50.9774 151.002 50.3102C151.027 49.0966 150.97 47.8831 150.792 46.6631C151.231 47.8132 151.568 49.014 151.817 50.2403C152.046 51.4666 152.211 52.7183 152.307 53.97C152.307 53.9827 152.307 53.9955 152.307 54.0018C152.943 54.6308 153.567 55.2726 154.179 55.927L154.28 52.8518C154.433 48.1309 151.212 44.5536 149.754 43.1876C149.474 44.2232 148.863 46.0595 147.57 48.6265C147.436 48.8933 147.315 49.1602 147.207 49.4207L147.214 49.427ZM99.6559 14.2395C96.5809 11.107 92.9266 11.6662 92.4491 14.6715C91.8506 18.4521 98.6118 19.7292 102.139 25.6637C102.139 25.6637 102.731 17.3783 99.6559 14.2395ZM88.9921 19.8435C83.2177 19.5576 80.4228 24.1642 82.842 28.256C85.8852 33.4026 94.0152 27.2648 101.693 30.715C101.693 30.715 96.3899 20.2121 88.9921 19.8435ZM104.259 25.6637C107.786 19.7292 114.541 18.4521 113.949 14.6715C113.478 11.6662 109.817 11.107 106.742 14.2395C103.667 17.3719 104.259 25.6637 104.259 25.6637ZM104.698 30.7086C112.383 27.2585 120.513 33.3963 123.549 28.2497C125.969 24.1578 123.174 19.5576 117.399 19.8372C109.995 20.1994 104.698 30.7086 104.698 30.7086ZM105.131 1.53177L105.621 1.81134L105.87 1.95112C105.946 2.00196 106.022 2.06549 106.092 2.12268L106.538 2.46579L106.933 2.85972C107.436 3.40615 107.862 4.02248 108.149 4.70869C108.442 5.38855 108.645 6.10654 108.766 6.83723C108.881 7.56157 108.932 8.31768 108.887 9.03566L108.856 9.48043L109.257 9.25169C110.008 8.81328 110.925 8.57818 111.797 8.62901C112.236 8.66078 112.663 8.7688 113.064 8.92764C113.255 9.02931 113.465 9.10555 113.643 9.23263L113.923 9.41054L114.172 9.61386C114.846 10.1603 115.267 10.9418 115.426 11.7932C115.579 12.6383 115.502 13.5723 115.26 14.3792L114.993 15.2751L115.833 14.8812C116.374 14.627 116.973 14.4364 117.584 14.2903C118.189 14.1441 118.813 14.0425 119.43 13.9917C120.672 13.8836 121.932 13.9599 123.116 14.2839C124.294 14.608 125.389 15.1925 126.23 16.0439C126.656 16.4633 127.013 16.9525 127.299 17.4799C127.586 18.0073 127.828 18.5728 127.993 19.1637C128.089 19.456 128.14 19.7546 128.21 20.0532C128.254 20.3582 128.312 20.6568 128.324 20.9618C128.382 21.5718 128.362 22.1881 128.292 22.7917C128.229 23.4017 128.108 24.0117 127.936 24.6026C127.764 25.1998 127.554 25.7844 127.293 26.3499C126.784 27.4872 126.128 28.5674 125.37 29.5776C124.619 30.5815 123.772 31.56 122.868 32.3924L121.951 33.2311H123.174L126.694 33.193L124.988 36.0522C123.594 35.6456 122.187 35.3088 120.767 35.0292C119.246 34.737 117.718 34.4955 116.19 34.2922C114.655 34.0952 113.121 33.9364 111.587 33.8029C110.052 33.6695 108.512 33.5678 106.971 33.5107C108.505 33.6695 110.033 33.8601 111.561 34.0571C113.089 34.2604 114.611 34.4955 116.126 34.7624C117.641 35.0356 119.15 35.3152 120.646 35.6583C122.136 36.0077 123.619 36.3953 125.065 36.8718L125.351 36.9672L125.517 36.7066L127.866 32.9769L128.286 32.3161H127.49L124.358 32.2844C125.014 31.6172 125.618 30.9183 126.185 30.1749C126.981 29.1202 127.681 27.9828 128.235 26.7629C128.515 26.1593 128.744 25.5239 128.935 24.8821C129.126 24.2404 129.266 23.5733 129.337 22.8997C129.419 22.2262 129.426 21.5464 129.362 20.8665C129.343 20.5234 129.279 20.193 129.228 19.8563C129.152 19.5259 129.095 19.1891 128.98 18.8651C128.598 17.5689 127.942 16.3045 126.949 15.326C125.962 14.3411 124.689 13.6803 123.371 13.3436C122.047 13.0068 120.684 12.9496 119.354 13.0831C118.284 13.1974 117.234 13.4198 116.222 13.8137C116.253 13.5914 116.272 13.369 116.285 13.1402C116.304 12.6446 116.285 12.1363 116.171 11.6407C115.967 10.6559 115.426 9.69646 114.604 9.08649L114.299 8.85775L113.974 8.66714C113.764 8.52735 113.522 8.45111 113.293 8.34309C112.815 8.17789 112.319 8.06988 111.816 8.05081C110.944 8.03811 110.097 8.25414 109.333 8.66714C109.314 8.0254 109.25 7.39637 109.117 6.77369C108.957 6.02394 108.709 5.29325 108.372 4.60703C108.041 3.91446 107.569 3.29179 107.022 2.76442L106.595 2.38954L106.124 2.07185C106.048 2.02102 105.965 1.96383 105.889 1.91936L105.634 1.79863L105.125 1.55083L105.131 1.53177ZM100.936 11.3993C102.145 13.5596 102.916 15.7135 103.177 16.4824C103.177 16.4824 104.246 13.5596 105.456 11.3993C106.933 8.74974 105.946 5.37585 103.215 5.25512C103.215 5.25512 103.202 5.25512 103.196 5.25512C103.189 5.25512 103.183 5.25512 103.177 5.25512C100.445 5.37585 99.4586 8.75609 100.936 11.4056V11.3993ZM80.6074 36.7003L80.7729 36.9608L81.0594 36.8655C82.5046 36.389 83.988 36.0077 85.4778 35.6519C86.9739 35.3088 88.4827 35.0292 89.998 34.756C91.5132 34.4892 93.0348 34.2604 94.5627 34.0507C96.0907 33.8538 97.6187 33.6568 99.153 33.5043C97.6123 33.5615 96.0716 33.6568 94.5373 33.7966C93.003 33.93 91.4623 34.0889 89.9343 34.2858C88.4 34.4828 86.8784 34.7306 85.3568 35.0229C83.9371 35.3024 82.5301 35.6392 81.1358 36.0458L79.4296 33.1866L82.9503 33.212H84.1726L83.2559 32.386C82.3455 31.5537 81.4987 30.5752 80.7538 29.5713C80.0026 28.561 79.3468 27.4809 78.8312 26.3435C78.5701 25.778 78.36 25.1871 78.1881 24.5962C78.0163 23.999 77.8889 23.3953 77.8316 22.7854C77.7616 22.1754 77.7489 21.5591 77.7998 20.9555C77.8125 20.6505 77.8698 20.3519 77.9144 20.0469C77.9844 19.7482 78.0354 19.4496 78.1309 19.1573C78.29 18.5664 78.5319 18.0009 78.8248 17.4736C79.1113 16.9462 79.4742 16.4569 79.8944 16.0376C80.7411 15.1862 81.8298 14.6016 83.0076 14.2776C84.1917 13.9535 85.4523 13.8773 86.6938 13.9853C87.3177 14.0361 87.9352 14.1378 88.5401 14.2839C89.1449 14.4237 89.7433 14.6143 90.2908 14.8748L91.1312 15.2688L90.8638 14.3729C90.6219 13.566 90.5455 12.6319 90.6983 11.7869C90.8575 10.9355 91.2776 10.1539 91.9525 9.60751L92.2008 9.40418L92.4809 9.22628C92.6592 9.0992 92.8693 9.02295 93.0602 8.92129C93.4677 8.76244 93.8943 8.65443 94.3272 8.62266C95.193 8.57183 96.1162 8.80692 96.8674 9.24534L97.2685 9.47407L97.2367 9.02931C97.1921 8.31132 97.2367 7.55521 97.3576 6.83088C97.4786 6.10018 97.6823 5.3822 97.9752 4.70234C98.2617 4.01612 98.6946 3.3998 99.1912 2.85337L99.5859 2.45943L100.032 2.11632C100.108 2.05914 100.178 2.00196 100.254 1.94477L100.503 1.80499L100.993 1.52542L100.484 1.77322L100.229 1.89394C100.146 1.94477 100.07 1.9956 99.9934 2.04643L99.5222 2.36412L99.0957 2.739C98.5482 3.26637 98.0834 3.88905 97.746 4.58162C97.4086 5.26783 97.1603 5.99852 97.0011 6.74828C96.8738 7.37095 96.8037 7.99998 96.7847 8.64172C96.0207 8.22872 95.1803 8.01269 94.3017 8.0254C93.7988 8.04446 93.3022 8.14612 92.8247 8.31768C92.5955 8.42569 92.3536 8.50829 92.1435 8.64172L91.8188 8.83234L91.5132 9.06108C90.6919 9.67104 90.1508 10.6305 89.947 11.6153C89.8388 12.1109 89.8133 12.6129 89.8324 13.1148C89.8452 13.3436 89.8643 13.566 89.8961 13.7883C88.8838 13.3944 87.827 13.1784 86.7638 13.0576C85.4332 12.9242 84.0708 12.9814 82.7465 13.3181C81.4287 13.6485 80.1554 14.3093 79.1686 15.3005C78.1754 16.279 77.5133 17.5435 77.1377 18.8396C77.0294 19.1637 76.9721 19.5004 76.8894 19.8308C76.8384 20.1676 76.7748 20.5043 76.7557 20.8411C76.692 21.521 76.7048 22.2008 76.7812 22.8743C76.8512 23.5478 76.9912 24.2086 77.1822 24.8567C77.3732 25.4985 77.6024 26.1339 77.8826 26.7375C78.4364 27.9511 79.1367 29.0884 79.9326 30.1495C80.4992 30.8929 81.0976 31.5982 81.7597 32.259L78.6274 32.2844H77.8316L78.2518 32.9515L80.601 36.6812L80.6074 36.7003ZM32.8206 70.3566C32.4513 68.8889 32.2348 67.0208 32.4004 64.6953C32.2921 64.4285 32.1775 64.1553 32.0693 63.8757C30.9488 62.7638 29.7073 62.0331 28.816 61.6074L28.9052 62.3825C29.058 63.6787 29.3699 64.9304 29.8347 66.0995C30.0575 66.6714 30.3185 67.2496 30.6178 67.8087C30.8915 68.317 31.6746 69.4544 32.0438 69.9436C32.324 70.0897 32.585 70.2295 32.8206 70.3566ZM29.7392 58.7799L29.701 58.818C29.8856 59.7965 30.1148 60.4446 30.2103 60.6988C30.5159 60.8703 30.8406 61.0609 31.1716 61.2833C31.1398 61.1753 31.1016 61.0673 31.0698 60.9593C30.6432 59.5487 30.3122 58.1763 30.1021 56.8865L29.9747 56.1049C29.771 56.0605 29.58 56.016 29.4272 55.9906C29.44 57.0644 29.5545 57.9793 29.6882 58.7227L29.7455 58.7799H29.7392ZM41.5044 69.537C39.3207 67.2051 36.0866 65.9725 34.323 65.4451L34.9088 66.7603C35.5709 68.2408 36.2648 69.537 37.0352 70.7251C37.8373 71.9451 38.5886 72.8918 39.3462 73.6797C40.0211 72.2691 40.7405 70.8903 41.5044 69.537ZM37.328 65.013C37.4617 65.0702 37.5954 65.1337 37.7355 65.1973C37.64 64.7716 37.5445 64.3204 37.4554 63.8376C37.2325 62.5541 37.0861 61.2198 37.0288 59.8855L36.9779 58.8117C36.6723 58.7164 36.3922 58.6465 36.163 58.5893C36.0993 61.5502 37.0161 64.1934 37.328 65.013ZM41.8164 61.5375C40.2821 60.1015 38.5249 59.3136 37.2453 58.8879L37.5063 59.7965C37.8628 61.0546 38.2957 62.2809 38.786 63.4373C39.0597 64.0726 39.3271 64.6381 39.6009 65.1528C39.9574 65.8263 40.263 66.3283 40.5304 66.6841L40.6895 66.9001C40.9315 67.078 41.1734 67.2623 41.4026 67.4529C41.1225 65.3117 41.3899 63.3801 41.6827 62.0839C41.7273 61.8869 41.7718 61.7027 41.8164 61.5375ZM45.7063 62.9544C45.0697 62.5033 44.2802 62.0394 43.2934 61.6201C42.9751 62.7383 42.5295 64.8732 42.835 67.2623C43.7391 65.7882 44.7004 64.3522 45.7063 62.9544ZM48.0938 59.8283C47.2343 57.7379 45.458 56.1303 44.4585 55.3552L44.0956 56.2066C44.0701 56.2701 43.1788 58.6338 43.4462 60.146C43.72 60.254 43.9874 60.362 44.2357 60.4764C44.2102 60.1777 44.1847 59.8855 44.1784 59.5932C44.1529 58.6909 44.2357 57.7887 44.4267 56.9055L44.7132 55.5649L44.8978 56.9182C45.0124 57.7506 45.2225 58.5639 45.5281 59.3263C45.6745 59.7012 45.84 60.0697 46.031 60.4319C46.1265 60.6162 46.4321 61.1181 46.725 61.5756C47.1706 60.9847 47.629 60.4065 48.0938 59.8283ZM52.6394 52.8518L52.6967 54.669C53.3652 53.9891 54.0528 53.3219 54.7467 52.6675C54.8422 51.8479 54.9505 51.0346 55.1033 50.234C55.3516 49.0077 55.689 47.8068 56.1283 46.6568C55.95 47.8767 55.8927 49.0966 55.9182 50.3039C55.9309 50.7169 55.9627 51.1235 55.9946 51.5302C56.2492 51.3078 56.4975 51.079 56.7522 50.8567C56.8095 50.755 56.8668 50.647 56.9241 50.5517C57.1724 50.1514 57.4461 49.7574 57.7963 49.4397C57.5798 49.732 57.4334 50.0561 57.2997 50.3928C57.9809 49.8146 58.6749 49.2428 59.3752 48.69C59.3624 48.6709 59.3561 48.6519 59.3433 48.6265C58.0509 46.0659 57.4398 44.2232 57.1596 43.1876C55.7017 44.5536 52.4803 48.1309 52.6331 52.8518H52.6394ZM41.0079 51.9241C41.7846 52.6421 42.5676 53.4808 43.2871 54.4529L43.8282 53.1949L44.5413 53.6396C44.5413 53.6396 44.9296 53.8811 45.4771 54.3068L44.9933 53.2902C44.815 52.909 44.6686 52.515 44.5031 52.1274L44.2675 51.5492C44.1911 51.3523 44.1274 51.1553 44.0574 50.952L43.65 49.7638L43.3189 48.5566L43.1597 47.9529L43.0388 47.343L42.8032 46.123L43.2361 47.2794L43.4526 47.8576L43.7073 48.4168L44.2166 49.5287L44.7959 50.6089C44.8914 50.7868 44.9869 50.971 45.0888 51.1426L45.4135 51.6636C45.4135 51.6636 45.4326 51.689 45.4389 51.7081C45.4135 51.3586 45.388 51.0092 45.3753 50.6597C45.3562 50.1133 45.3562 49.5668 45.388 49.0204C45.4198 48.474 45.4771 47.9275 45.6236 47.4065C45.5726 47.9466 45.6108 48.4803 45.6745 49.0077C45.7382 49.5351 45.8337 50.0624 45.9419 50.5834C46.0501 51.1045 46.1775 51.6255 46.3175 52.1401C46.4576 52.6548 46.6104 53.1695 46.7695 53.6651H46.7441L46.7504 53.6841C46.9351 53.9573 47.1388 54.2115 47.3425 54.472C47.3425 54.0145 47.3489 53.5634 47.3743 53.1059C47.4316 52.0258 47.5399 50.9583 47.7118 49.9036C47.7691 50.971 47.8837 52.0258 48.0492 53.0678C48.132 53.5888 48.2338 54.1035 48.3484 54.6181C48.463 55.1264 48.5904 55.6475 48.7304 56.1176H48.7049C48.9405 56.3972 49.1824 56.6577 49.4307 56.9246C49.3607 56.2701 49.3034 55.6157 49.2779 54.9612C49.2143 53.6206 49.2525 52.2863 49.3798 50.971C49.4817 52.2926 49.6726 53.5952 49.9528 54.8786C50.0928 55.5204 50.252 56.1494 50.4366 56.7784C50.4557 56.8483 50.4812 56.9119 50.5003 56.9818C51.0351 56.3845 51.5826 55.7936 52.1428 55.2154L51.5126 53.0106C51.5062 52.9788 50.5067 49.6304 47.7691 48.0101C45.3243 46.5615 43.3444 45.1001 42.3767 44.344C41.9819 45.5957 41.2562 48.3405 41.0015 51.905L41.0079 51.9241ZM36.9078 50.6406L37.2325 52.0003C37.5254 53.233 37.9583 54.4085 38.5058 55.5013C38.786 56.0477 39.0979 56.5751 39.4353 57.0644C39.7282 57.4901 40.5304 58.5702 40.9633 59.0595C41.3007 59.2755 41.6381 59.5169 41.9756 59.7838C41.9437 58.9959 42.0647 58.1636 42.2302 57.4519C42.3639 56.8547 42.5231 56.3527 42.6313 56.035C40.8487 53.3092 38.4358 51.5556 36.9078 50.6406ZM36.6022 57.2105C36.9078 57.2867 37.2707 57.3821 37.6718 57.5091C37.4936 57.0072 37.3344 56.4925 37.2071 55.9715C36.9078 54.7007 36.755 53.3791 36.755 52.0575V50.5517C36.5832 50.45 36.4176 50.3547 36.2712 50.2785L36.2203 50.4437L36.2075 50.5008C35.6154 53.7794 36.2266 56.1748 36.5959 57.2105H36.6022ZM34.7432 58.1255C32.9352 57.0453 31.3881 56.4798 30.3313 56.2002L30.5541 56.7594C31.0379 57.9603 31.6173 59.1548 32.3303 60.4192C33.0307 61.6582 33.7501 62.8082 34.4758 63.8248L34.6223 64.0282C34.9024 64.1108 35.2271 64.2124 35.5709 64.3268C35.138 62.9099 34.6159 60.6162 34.7432 58.1191V58.1255ZM29.51 48.2579L29.8092 49.3635C30.153 50.6216 30.6942 51.8224 31.4199 52.9344C31.7765 53.4871 32.1648 54.0145 32.5659 54.4911C32.9161 54.9041 33.6737 55.6983 34.1512 56.1494C34.3931 56.2701 34.6414 56.4036 34.8897 56.5433C34.5968 55.3234 34.3676 53.5507 34.6286 51.3332C32.5723 49.5224 30.5668 48.6392 29.5036 48.2579H29.51ZM29.5227 54.5482C29.841 54.5991 30.2358 54.6753 30.7132 54.8024C30.5223 54.3894 30.344 53.9764 30.1848 53.5443C29.6819 52.2037 29.4018 50.8185 29.3381 49.4397L29.2935 48.4422L28.7715 50.3992C28.7651 50.7741 28.7651 52.7374 29.5227 54.5546V54.5482ZM28.4277 62.3825L28.5295 61.4739C28.4404 61.4358 28.3449 61.3913 28.2685 61.3596C27.2944 65.3942 28.0521 67.472 28.6441 68.3933C28.7396 68.4314 28.8351 68.4695 28.9306 68.5076C28.9306 68.4949 28.9243 68.4886 28.9243 68.4759C28.7396 67.796 28.5996 67.1098 28.5104 66.449C28.3131 65.1147 28.2876 63.7486 28.434 62.3825H28.4277ZM26.1357 49.8718L26.2185 50.7486C26.3267 51.8923 26.505 53.0297 26.7469 54.1289C26.8615 54.6499 26.9952 55.2027 27.1607 55.7682C27.3199 56.3337 27.4663 56.7848 27.6128 57.1597C27.7656 57.255 27.912 57.3503 28.0584 57.4456C27.9948 56.7657 27.9693 56.0033 27.9884 55.1646L28.0011 54.6118C27.4154 52.9661 27.3326 51.3523 27.3263 50.6406C26.9443 50.3547 26.5241 50.0878 26.1357 49.8655V49.8718ZM24.6587 55.514C24.8306 55.603 25.0662 55.7173 25.359 55.8698C25.3527 55.3043 25.359 54.7643 25.3845 54.2433C25.4354 53.0742 25.5628 51.8923 25.7538 50.7296L25.9193 49.732C25.7092 49.6113 25.5182 49.5096 25.359 49.427C24.8943 50.7232 24.1303 53.3855 24.6651 55.5077L24.6587 55.514ZM22.857 56.2257L23.0926 57.4519C23.3218 58.6401 23.812 59.8219 24.6014 61.0609C24.9516 61.6074 25.3399 62.1411 25.7538 62.643C25.9829 62.9226 26.2121 63.1895 26.435 63.4246C26.505 62.7892 26.6196 62.1093 26.7915 61.3596C26.8743 60.991 26.9698 60.6098 27.0844 60.2159L27.2817 59.5169L27.982 59.7203C27.982 59.7203 28.1921 59.7838 28.4659 59.8855C28.434 59.752 28.4022 59.6059 28.3704 59.4598C27.3517 58.5702 25.5118 57.56 24.4868 57.0326L23.7419 56.6577L23.5319 56.5561L22.8697 56.2193L22.857 56.2257ZM23.0926 62.7193C23.3154 62.7765 23.5955 62.8591 23.9011 62.9607C23.7037 62.535 23.5191 62.0966 23.36 61.6582C22.8252 60.1714 22.5705 58.7672 22.6151 57.4837L22.6596 56.124L22.3095 55.9461C22.0485 57.5345 21.7556 60.7051 23.0926 62.7129V62.7193ZM21.7492 63.9138L22.6342 65.2926C23.43 66.5379 24.3277 67.6689 25.2954 68.6665C25.8365 69.2129 26.3458 69.664 26.8552 70.0643C27.0398 70.2041 27.218 70.3312 27.3899 70.4519C27.4218 70.0008 27.4727 69.6196 27.5173 69.3463C27.0525 68.6982 26.5496 67.6562 26.3904 66.055C25.4482 65.0448 23.882 64.4602 22.9652 64.187L21.7492 63.9138ZM21.1763 63.7867C21.2781 65.3815 21.8193 68.6982 24.4486 71.5511C24.9261 71.5194 25.3781 71.5448 25.7983 71.602C25.7283 71.5257 25.6646 71.4495 25.5946 71.3732C25.1298 70.8268 24.6778 70.2232 24.2194 69.5179C23.43 68.2852 22.7551 66.9319 22.2076 65.5023L21.5837 63.8693L21.1826 63.7804L21.1763 63.7867ZM3.13999 68.6982L19.7438 62.516L19.7756 62.0013L20.616 62.1919L21.1444 61.9949C20.9534 61.4358 20.8261 60.8576 20.7433 60.2794L3.13363 68.7046L3.13999 68.6982ZM29.9302 71.8307L29.1216 70.5091L29.2808 71.6528C29.3317 72.034 29.4081 72.3835 29.4972 72.7266C29.8601 72.7711 30.2167 72.8155 30.5859 72.86C30.3631 72.5296 30.1466 72.1929 29.9302 71.8307ZM97.7715 17.6324C97.5677 17.4799 97.3576 17.3401 97.1475 17.2067C96.9311 17.0733 96.7146 16.9335 96.53 16.8318C96.148 16.6031 95.7978 16.3489 95.4795 16.063C95.1612 15.7771 94.8938 15.453 94.6964 15.0655C94.4991 14.6842 94.3909 14.2267 94.4227 13.7248C94.098 14.1251 93.9898 14.6906 94.0407 15.2434C94.098 15.7961 94.3335 16.3235 94.6519 16.7683C94.9702 17.2194 95.3649 17.5943 95.7851 17.912L96.3836 18.3377C96.5809 18.4648 96.7655 18.6045 96.9502 18.7443C97.7014 19.2908 98.4336 19.8626 99.1466 20.4726C99.8533 21.0889 100.554 21.7179 101.222 22.4677C101.063 21.4574 100.541 20.5488 99.9424 19.7355C99.3249 18.9286 98.5864 18.2297 97.7715 17.6324ZM58.8722 74.9441C58.7067 75.1665 58.5475 75.3952 58.3884 75.6176C59.1205 75.6748 59.859 75.7319 60.6039 75.7828C63.316 71.0936 66.773 66.773 70.8667 63.0751C66.3083 66.3283 62.2401 70.3503 58.8659 74.9377L58.8722 74.9441ZM62.1637 75.9035C62.8576 75.9543 63.5516 75.9988 64.2519 76.0496C66.6266 72.2818 69.5297 68.8063 72.8658 65.7374C68.874 68.5648 65.2451 71.9895 62.1637 75.9035ZM142.108 137.097C141.936 138.089 141.649 139.207 141.255 140.452C140.86 141.698 140.363 142.956 139.758 144.22C138.409 147.067 136.823 149.341 134.99 151.05C132.813 153.071 130.444 154.088 127.891 154.088C125.338 154.088 124.027 153.001 123.95 150.828C122.123 153.001 120.092 154.088 117.851 154.088C116.686 154.088 115.763 153.719 115.082 152.988C114.541 152.391 114.318 151.495 114.401 150.307C111.587 152.823 108.658 154.088 105.602 154.088C103.75 154.088 102.362 153.611 101.426 152.658C100.49 151.705 100.216 150.129 100.605 147.924C101.12 144.963 102.381 142.104 104.374 139.334C105.895 137.224 107.729 135.719 109.881 134.823C110.988 134.34 112.096 134.105 113.197 134.105C114.999 134.105 116.158 134.441 116.686 135.121C117.215 135.801 117.38 136.697 117.183 137.822C116.795 140.033 115.572 141.914 113.516 143.464C111.459 145.014 109.218 145.866 106.799 146.018C106.608 146.749 106.487 147.27 106.43 147.575C106.194 148.903 106.277 149.78 106.672 150.199C107.067 150.625 107.69 150.834 108.537 150.834C110.033 150.834 111.345 150.504 112.484 149.837C113.217 149.405 114.006 148.846 114.834 148.153C114.955 147.759 115.095 147.346 115.267 146.908L120.092 134.448H125.701L120.595 147.651C120.462 147.982 120.366 148.312 120.309 148.636C120.111 149.773 120.398 150.345 121.168 150.345C122.537 150.345 123.779 149.201 124.886 146.914L129.712 134.454H135.321L130.215 147.657C129.967 148.28 129.814 148.744 129.763 149.062C129.61 149.919 129.98 150.351 130.864 150.351C132.068 150.351 133.354 149.545 134.729 147.924C136.575 145.764 138.071 143.057 139.211 139.804C139.523 138.896 139.739 138.082 139.867 137.377C139.778 137.517 139.58 137.612 139.268 137.663L138.854 137.739C138.74 137.752 138.644 137.758 138.568 137.758C138.11 137.758 137.804 137.542 137.638 137.104C137.473 136.665 137.441 136.189 137.53 135.661C137.619 135.134 137.893 134.677 138.351 134.276C138.81 133.876 139.364 133.679 140.026 133.679C141.051 133.679 141.707 134.003 141.98 134.657C142.26 135.312 142.311 136.132 142.14 137.123L142.108 137.097ZM107.41 144.144C108.926 144.042 110.358 143.35 111.72 142.06C113.083 140.77 113.91 139.264 114.21 137.548C114.375 136.614 114.133 136.144 113.484 136.144C112.529 136.17 111.466 137.008 110.288 138.66C109.11 140.312 108.149 142.142 107.404 144.15L107.41 144.144ZM83.4596 151.864C83.3768 151.94 83.2941 152.016 83.2113 152.092C83.1094 152.181 83.0076 152.27 82.8993 152.359C82.511 152.696 82.1035 153.014 81.6706 153.306C81.1995 153.617 80.6902 153.872 80.1427 154.062C78.2709 154.907 76.0872 155.39 73.9417 155.231C71.2423 155.034 69.7717 153.592 69.0522 152.569C68.1418 151.546 67.7853 150.059 68.3392 148.636L75.928 129.136L81.817 128.38L78.481 136.989H78.7102C80.2063 136.989 81.6324 136.322 82.9885 134.982C84.3445 133.641 85.1531 132.211 85.4205 130.693C85.7515 128.793 85.0576 127.516 83.3386 126.842C82.7211 126.614 81.9889 126.499 81.1486 126.499C80.3082 126.499 79.4805 126.582 78.672 126.753C77.8635 126.925 77.074 127.179 76.3037 127.522C74.5847 128.291 73.1332 129.39 71.9426 130.813C70.7585 132.237 69.9881 133.946 69.638 135.941C69.4597 136.964 69.4788 137.758 69.6953 138.311C69.7271 138.413 69.7398 138.502 69.7271 138.578C67.6771 138.578 66.4929 137.949 66.181 136.684C66.0727 136.227 66.0727 135.674 66.1873 135.013C66.4292 133.647 67.0404 132.357 68.0272 131.137C69.014 129.918 70.2428 128.825 71.7198 127.865C74.9922 125.768 78.4555 124.714 82.1163 124.714C84.8284 124.714 86.7829 125.311 87.9798 126.506C89.1767 127.7 89.6224 129.161 89.3168 130.896C89.113 132.059 88.5846 133.196 87.7315 134.308C86.8784 135.42 85.7452 136.335 84.3445 137.059C85.8598 137.377 86.8911 138.101 87.4387 139.239C87.9862 140.376 88.1199 141.736 87.8461 143.318C87.6869 144.239 87.3559 145.345 86.8657 146.634C86.108 148.591 85.0448 150.25 83.6952 151.603C83.6188 151.686 83.536 151.768 83.4532 151.851L83.4596 151.864ZM74.5975 147.003C74.502 147.683 74.521 148.477 74.9158 149.379C75.6288 150.313 76.3801 150.784 77.1759 150.784C78.5447 150.784 79.7161 149.989 80.6902 148.395C81.486 147.105 82.0399 145.573 82.3518 143.807C82.9312 140.509 81.9889 138.857 79.5315 138.857C78.9585 138.857 78.36 138.902 77.7234 138.991L74.5975 147.009V147.003ZM103.348 139.309C103.953 138.73 104.335 137.968 104.501 137.034C104.596 136.494 104.469 135.922 104.119 135.325C103.769 134.727 103.138 134.435 102.234 134.435C101.33 134.435 100.439 134.696 99.5732 135.21C98.701 135.731 97.8924 136.271 97.1475 136.843L98.0643 134.435H92.4554L84.9239 153.859H90.5328L96.2371 139.105C96.8419 138.61 97.3704 138.241 97.816 137.993C98.2617 137.745 98.7519 137.625 99.2867 137.625C99.5541 137.625 99.7069 137.72 99.7578 137.917C99.8024 138.114 99.8278 138.381 99.8151 138.711C99.8087 139.048 99.8915 139.372 100.057 139.696C100.229 140.02 100.668 140.179 101.381 140.179C102.094 140.179 102.744 139.887 103.348 139.309Z" fill="black"/>
<path d="M103.5 77.7709C46.6345 77.7709 0 68.8438 0 68.8438V138.069C0 138.069 27.7706 132.757 66.5744 130.324C66.6953 130.158 66.7972 129.987 66.9309 129.828C67.5548 129.053 68.2869 128.328 69.0891 127.649C67.9241 127.712 66.759 127.776 65.5876 127.839C63.4866 127.954 61.3857 128.119 59.2847 128.259C57.1838 128.398 55.0829 128.544 52.9819 128.729C44.5845 129.377 36.1998 130.222 27.8279 131.2C19.4624 132.185 11.1032 133.303 2.79489 134.714L2.76306 134.511C19.3032 131.054 36.0534 128.71 52.8609 127.108C59.2338 126.479 65.6194 126.003 72.0113 125.622C75.2392 123.773 78.6834 122.826 82.2614 122.826C85.2409 122.826 87.4883 123.519 88.9717 124.866C93.8038 124.739 98.6296 124.662 103.462 124.611C111.91 124.7 120.358 124.821 128.794 125.272C137.23 125.698 145.659 126.282 154.063 127.115C170.87 128.716 187.62 131.061 204.161 134.517L204.129 134.72C195.82 133.316 187.461 132.198 179.096 131.207C170.724 130.228 162.339 129.39 153.942 128.735C151.841 128.551 149.74 128.411 147.639 128.265C145.538 128.125 143.437 127.96 141.336 127.846C137.134 127.617 132.926 127.356 128.718 127.216C120.301 126.835 111.878 126.727 103.462 126.683C99.1262 126.708 94.7843 126.753 90.4487 126.842C90.8116 127.604 91.0026 128.436 91.0217 129.313C95.1217 129.218 99.2599 129.142 103.5 129.142C160.365 129.142 207 138.069 207 138.069V68.8438C207 68.8438 160.365 77.7709 103.5 77.7709ZM21.8243 113.473C17.4887 113.403 13.6497 111.338 9.25051 111.529C6.16913 111.592 2.92222 112.399 0.528418 114.242C1.78898 110.118 5.39242 107.424 10.5556 107.342C15.0758 107.278 18.8703 109.203 23.3332 109.4C25.7779 109.527 28.1335 109.235 30.7183 107.717C29.8716 111.37 26.3573 113.549 21.818 113.473H21.8243ZM24.3391 105.054C20.0035 104.984 16.1645 102.919 11.7653 103.11C8.68389 103.174 5.43698 103.98 3.04318 105.823C4.30375 101.699 7.90718 99.0054 13.0704 98.9228C17.5906 98.8593 21.385 100.785 25.8479 100.981C28.2927 101.109 30.6483 100.816 33.2331 99.2977C32.3863 102.951 28.872 105.131 24.3327 105.054H24.3391ZM5.55794 97.4043C6.81851 93.2806 10.4219 90.5866 15.5852 90.504C20.1054 90.4405 23.8998 92.3657 28.3627 92.5626C30.8074 92.6897 33.163 92.3974 35.7478 90.8789C34.9011 94.5323 31.3868 96.7117 26.8475 96.6355C22.5119 96.5656 18.6729 94.5006 14.2737 94.6912C11.1923 94.7547 7.94538 95.5617 5.55158 97.4043H5.55794ZM43.0693 113.333H31.7306L31.9279 112.533C34.2644 112.533 35.264 111.853 35.8624 109.635L40.268 94.1066C40.6691 92.7723 40.892 91.4888 39.0902 91.2855L38.1353 91.2156L38.3326 90.415H54.6754L55.3439 96.8007H54.7391C53.6058 91.9654 50.0024 91.6286 45.6668 91.6922L43.3367 99.8251H44.5336C48.067 99.8251 52.8673 101.363 52.8673 105.804C52.8673 110.639 47.3985 113.321 43.0629 113.321L43.0693 113.333ZM73.5457 113.333H64.6771L64.9382 112.393C66.9436 112.393 67.4784 111.186 67.5484 109.438L67.7458 106.757H60.7427L59.272 109.032C58.4698 110.315 57.2029 112.393 60.0041 112.393L59.7368 113.333H52.9373L53.2047 112.393C55.0001 112.12 56.2734 110.582 57.2029 109.165L69.0064 91.4317C70.5407 91.2919 72.2087 90.5612 73.673 89.9576L72.2087 109.635C72.075 110.906 72.005 112.387 73.8067 112.387L73.5393 113.327L73.5457 113.333ZM105.353 91.2283C103.093 91.2283 102.214 91.9717 101.622 94.113L97.1653 109.642C96.6178 111.732 97.0253 112.603 99.2854 112.539L99.0307 113.34H88.3605L88.6915 112.539C90.8943 112.539 91.8939 111.802 92.4923 109.642L96.8279 94.3163C97.1653 93.1027 96.6942 91.5651 95.1663 91.4952C93.4919 91.4317 92.0276 92.6452 91.028 95.3266L85.1645 110.652C84.2987 112.927 82.4269 113.867 79.7594 113.804C77.4929 113.74 75.8949 111.916 75.8949 109.782C75.8949 108.098 77.2319 106.878 78.4988 106.827C79.6957 106.757 80.899 107.697 80.899 108.771C80.3069 108.771 78.9635 109.229 79.0336 110.512C79.0336 111.383 79.8358 112.12 80.7653 112.19C81.5674 112.26 83.0381 111.319 83.4965 110.175L89.3027 95.1232C89.9648 93.4522 90.697 91.2283 87.8957 91.2283L88.1695 90.4214H105.569L105.365 91.2283H105.353ZM120.766 91.4317L115.494 109.642C114.826 112.126 115.896 112.393 118.092 112.393L117.895 113.333H106.352L106.486 112.393C108.822 112.393 110.026 112.056 110.694 109.642L116.093 91.4317C112.967 91.4952 109.09 94.113 107.766 96.9404H106.963L109.026 90.4214H128.297L126.572 96.9404H125.897C125.897 93.9796 123.835 91.4317 120.772 91.4317H120.766ZM151.032 94.1066L146.563 109.635C146.028 111.726 146.493 112.533 148.759 112.533L148.556 113.333H138.089L138.223 112.533C140.362 112.533 141.291 111.592 141.89 109.635L145.557 96.5338L133.824 109.775C133.493 111.726 133.957 112.533 135.823 112.533L135.562 113.333H125.159L125.292 112.533C127.298 112.323 128.692 111.383 129.157 109.635L133.563 94.1066C134.155 91.9717 133.626 91.222 131.36 91.222L131.691 90.415H142.157L141.89 91.222C139.954 91.222 138.751 92.5626 138.363 94.1066L134.753 106.547L146.493 93.5793C147.028 91.9082 146.429 91.2283 144.36 91.2283L144.628 90.4214H155.1L154.833 91.2283C152.567 91.2283 151.624 91.9717 151.032 94.113V94.1066ZM176.645 113.263H167.038L167.305 112.387C168.642 112.387 169.508 110.976 168.839 109.775L164.771 101.973L162.906 103.593L161.104 109.635C160.506 111.656 161.174 112.323 163.103 112.533L162.836 113.333H152.299L152.496 112.533C154.693 112.533 155.692 111.726 156.297 109.635L160.773 94.1066C161.371 91.9082 160.372 91.2855 158.634 91.222L158.908 90.415H168.909L168.712 91.222C166.706 91.2855 166.044 92.5626 165.573 94.1066L163.638 100.772L171.507 94.3798C172.901 93.2361 174.907 91.3554 171.437 91.222L171.704 90.415H179.172L178.905 91.222C176.969 91.3554 175.702 92.5626 174.365 93.7762L168.565 98.8212L173.964 109.629C174.633 110.97 175.104 112.457 176.899 112.38L176.632 113.257L176.645 113.263ZM199.042 113.333H190.173L190.441 112.393C192.44 112.393 192.905 111.186 193.045 109.438L193.242 106.757H186.245L184.775 109.032C183.972 110.379 182.642 112.393 185.507 112.393L185.176 113.333H178.51L178.777 112.393C180.573 112.12 181.776 110.582 182.705 109.165L194.509 91.4317C196.107 91.2919 197.705 90.5612 199.176 89.9576L197.711 109.635C197.578 110.976 197.45 112.387 199.309 112.387L199.042 113.327V113.333ZM154.069 79.0163C145.665 79.8486 137.236 80.4268 128.8 80.8589C120.365 81.2973 111.916 81.4307 103.468 81.5133C95.0198 81.4244 86.5715 81.3036 78.1359 80.8525C69.7003 80.4268 61.2711 79.8423 52.8673 79.0099C36.0598 77.4087 19.3096 75.0642 2.76942 71.614L2.80125 71.4107C11.1095 72.8149 19.4687 73.9332 27.8343 74.9244C36.2062 75.9029 44.5909 76.7416 52.9883 77.396C55.0892 77.5803 57.1902 77.7201 59.2911 77.8662C61.392 78.006 63.493 78.1712 65.5939 78.2856C69.8022 78.5143 74.0041 78.7748 78.2123 78.9146C86.6288 79.2958 95.0517 79.4038 103.468 79.4483C111.891 79.4038 120.314 79.2958 128.724 78.9146C132.932 78.7685 137.134 78.5143 141.342 78.2856C143.443 78.1712 145.544 78.006 147.645 77.8662C149.746 77.7264 151.847 77.5803 153.948 77.396C162.345 76.7479 170.73 75.9029 179.102 74.9244C187.468 73.9395 195.827 72.8213 204.135 71.4107L204.167 71.614C187.627 75.0705 170.877 77.4151 154.069 79.0163Z" fill="black"/>
<path d="M187.443 105.061H193.313L194.045 95.8667L193.51 95.9938L187.443 105.061Z" fill="black"/>
<path d="M61.9383 105.061H67.8082L68.5403 95.8667L68.0056 95.9938L61.9383 105.061Z" fill="black"/>
<path d="M43.6052 101.102H42.873L40.2055 110.842C40.0781 111.452 40.4729 112.05 41.1413 112.05C44.8084 112.05 48.0744 108.701 48.0744 104.806C48.0744 102.316 45.948 101.102 43.6115 101.102H43.6052Z" fill="black"/>
</g>
<defs>
<clipPath id="clip0_2002_67">
<rect width="207" height="174" fill="white"/>
</clipPath>
</defs>
</svg>
