<svg width="90" height="85" viewBox="0 0 90 85" fill="none" xmlns="http://www.w3.org/2000/svg">
<g clip-path="url(#clip0_728_59)">
<path d="M54.6544 5.84732C45.1782 24.609 44.6082 23.7184 44.2163 26.1442L43.5988 29.9879C43.3732 31.3942 42.815 32.7418 41.9719 33.902L24.29 58.2536C23.3875 59.4958 21.8675 60.152 20.3238 59.9645C15.5382 59.3786 11.085 56.1911 9.0069 51.9372C8.33003 50.5543 8.47253 48.9137 9.37503 47.6715L27.0569 23.3083C27.9 22.1481 29.0044 21.1989 30.2869 20.5309L33.7663 18.7145C35.9632 17.5661 34.9181 17.32 49.8688 2.43716C49.9875 1.87466 49.9875 1.58169 50.2963 1.49966C50.6525 1.41763 51.08 1.38247 51.0444 0.960599L50.9969 0.421537C50.9732 0.198881 51.1513 -0.000338036 51.3769 -0.000338036C51.9113 -0.0120568 52.9444 0.140287 54.4169 1.17154C55.8775 2.21451 56.3644 3.14029 56.5188 3.64419C56.59 3.85513 56.4475 4.07779 56.2338 4.13638L55.6994 4.26529C55.2957 4.37076 55.4025 4.78091 55.4263 5.13247C55.4381 5.4606 55.1531 5.55435 54.6544 5.84732ZM34.3244 4.26529C34.7282 4.37076 34.6213 4.78091 34.5975 5.13247C34.5738 5.44888 34.8469 5.54263 35.3575 5.8356C36.2957 7.69888 37.1744 9.40982 37.9938 10.9918C38.0769 11.1442 38.2669 11.1676 38.3856 11.0504C39.7156 9.64419 41.3069 7.98013 43.195 6.05826C43.3494 5.89419 43.3613 5.6481 43.2069 5.48404C42.2569 4.5231 41.2475 3.50357 40.1669 2.42544C40.0481 1.87466 40.0482 1.56997 39.7394 1.48794C39.3832 1.39419 38.9557 1.37076 38.9913 0.948881C39.0269 0.562162 39.1575 -0.000338036 38.6588 -0.0120568C38.1244 -0.0237755 37.0913 0.116849 35.6188 1.15982C34.1582 2.20279 33.6713 3.12857 33.5169 3.63247C33.3507 4.12466 33.9444 4.17154 34.3244 4.26529ZM80.625 47.6598L62.955 23.2965C61.3875 21.1286 59.7963 20.5543 56.2575 18.7145C54.9275 18.0231 54.5713 17.4372 52.6357 15.3278C52.5169 15.1989 52.2913 15.2223 52.2082 15.3864C46.71 25.7926 46.615 25.0895 46.3894 26.4958C46.1875 27.7497 46.235 28.8395 46.425 29.9879C46.6507 31.3942 47.2088 32.7418 48.0519 33.902L65.7338 58.2653C66.6363 59.5075 68.1325 60.1637 69.6644 59.9879C74.45 59.4137 78.9269 56.2379 81.0288 51.9489C81.67 50.5543 81.5394 48.9137 80.625 47.6598Z" fill="black"/>
</g>
<path d="M8.94908 80.132C8.48508 80.132 8.11708 79.976 7.84508 79.664C7.57308 79.352 7.43708 78.848 7.43708 78.152V73.136H8.42108V77.888C8.42108 78.416 8.49708 78.78 8.64908 78.98C8.80108 79.172 9.01308 79.268 9.28508 79.268C9.58108 79.268 9.84108 79.148 10.0651 78.908C10.2891 78.66 10.4011 78.32 10.4011 77.888V73.136H11.3971V80H10.4011V79.4L10.4611 78.872H10.4011C10.3131 79.112 10.2011 79.324 10.0651 79.508C9.95308 79.668 9.80508 79.812 9.62108 79.94C9.43708 80.068 9.21308 80.132 8.94908 80.132ZM12.8511 73.136H13.8351V73.736L13.7631 74.252H13.8351C13.9151 74.02 14.0231 73.812 14.1591 73.628C14.2711 73.468 14.4191 73.324 14.6031 73.196C14.7951 73.068 15.0231 73.004 15.2871 73.004C15.7511 73.004 16.1191 73.16 16.3911 73.472C16.6711 73.784 16.8111 74.288 16.8111 74.984V80H15.8151V75.248C15.8151 74.72 15.7351 74.356 15.5751 74.156C15.4231 73.956 15.2191 73.856 14.9631 73.856C14.6591 73.856 14.3951 73.98 14.1711 74.228C13.9471 74.476 13.8351 74.816 13.8351 75.248V80H12.8511V73.136ZM20.2452 80.132C20.0292 80.132 19.8292 80.092 19.6452 80.012C19.4612 79.932 19.2972 79.816 19.1532 79.664C19.0172 79.512 18.9092 79.332 18.8292 79.124C18.7572 78.916 18.7212 78.68 18.7212 78.416V73.988H17.7972V73.136H18.7212V71.552H19.7172V73.136H21.0252V73.988H19.7172V78.416C19.7172 78.72 19.7692 78.928 19.8732 79.04C19.9772 79.152 20.1452 79.208 20.3772 79.208C20.5372 79.208 20.6852 79.188 20.8212 79.148C20.8932 79.124 20.9612 79.1 21.0252 79.076V79.94C20.9612 79.972 20.8892 80.004 20.8092 80.036C20.7372 80.06 20.6532 80.08 20.5572 80.096C20.4612 80.12 20.3572 80.132 20.2452 80.132ZM23.2732 80.132C22.8412 80.132 22.4892 79.996 22.2172 79.724C21.9532 79.452 21.8212 79.08 21.8212 78.608C21.8212 78.344 21.8572 78.108 21.9292 77.9C22.0012 77.692 22.1172 77.492 22.2772 77.3C22.4372 77.1 22.6452 76.9 22.9012 76.7C23.1652 76.5 23.4892 76.28 23.8732 76.04L24.7972 75.44V75.116C24.7972 74.684 24.7092 74.368 24.5332 74.168C24.3572 73.96 24.1372 73.856 23.8732 73.856C23.6092 73.856 23.3892 73.96 23.2132 74.168C23.0372 74.368 22.9492 74.684 22.9492 75.116V75.644H22.1572C22.1332 75.588 22.1092 75.524 22.0852 75.452C22.0452 75.316 22.0252 75.136 22.0252 74.912C22.0252 74.632 22.0692 74.376 22.1572 74.144C22.2532 73.912 22.3852 73.712 22.5532 73.544C22.7212 73.376 22.9172 73.244 23.1412 73.148C23.3652 73.052 23.6092 73.004 23.8732 73.004C24.4732 73.004 24.9412 73.184 25.2772 73.544C25.6212 73.896 25.7932 74.42 25.7932 75.116V78.548C25.7932 78.78 25.8052 78.976 25.8292 79.136C25.8532 79.288 25.8852 79.416 25.9252 79.52C25.9572 79.64 26.0012 79.736 26.0572 79.808V80H25.0612C25.0052 79.92 24.9612 79.824 24.9292 79.712C24.8892 79.616 24.8572 79.5 24.8332 79.364C24.8092 79.22 24.7972 79.056 24.7972 78.872H24.7252C24.6532 79.112 24.5532 79.324 24.4252 79.508C24.3132 79.668 24.1612 79.812 23.9692 79.94C23.7852 80.068 23.5532 80.132 23.2732 80.132ZM23.6812 79.268C23.9772 79.268 24.2372 79.148 24.4612 78.908C24.6852 78.66 24.7972 78.32 24.7972 77.888V76.304L23.9452 76.904C23.5772 77.152 23.2972 77.392 23.1052 77.624C22.9132 77.848 22.8172 78.112 22.8172 78.416C22.8172 78.68 22.8932 78.888 23.0452 79.04C23.1972 79.192 23.4092 79.268 23.6812 79.268ZM27.1832 73.136H28.1672V73.736L28.0952 74.252H28.1672C28.2472 74.02 28.3552 73.812 28.4912 73.628C28.6032 73.468 28.7512 73.324 28.9352 73.196C29.1272 73.068 29.3552 73.004 29.6192 73.004C29.8512 73.004 30.0592 73.044 30.2432 73.124C30.4352 73.204 30.5952 73.332 30.7232 73.508C30.8592 73.684 30.9632 73.916 31.0352 74.204C31.1072 74.492 31.1432 74.84 31.1432 75.248V77.888C31.1432 78.304 31.1072 78.656 31.0352 78.944C30.9632 79.224 30.8592 79.452 30.7232 79.628C30.5952 79.804 30.4352 79.932 30.2432 80.012C30.0592 80.092 29.8512 80.132 29.6192 80.132C29.3552 80.132 29.1272 80.068 28.9352 79.94C28.7512 79.812 28.6032 79.668 28.4912 79.508C28.3552 79.324 28.2472 79.112 28.1672 78.872H28.0952L28.1672 79.4V82.64H27.1832V73.136ZM29.2232 79.268C29.5192 79.268 29.7472 79.172 29.9072 78.98C30.0672 78.78 30.1472 78.416 30.1472 77.888V75.248C30.1472 74.72 30.0672 74.356 29.9072 74.156C29.7472 73.956 29.5192 73.856 29.2232 73.856C28.9272 73.856 28.6752 73.972 28.4672 74.204C28.2672 74.436 28.1672 74.784 28.1672 75.248V77.888C28.1672 78.352 28.2672 78.7 28.4672 78.932C28.6752 79.156 28.9272 79.268 29.2232 79.268ZM32.5386 73.136H33.5226V73.736L33.4506 74.252H33.5226C33.6026 74.02 33.7106 73.812 33.8466 73.628C33.9586 73.468 34.1066 73.324 34.2906 73.196C34.4826 73.068 34.7106 73.004 34.9746 73.004C35.2066 73.004 35.4146 73.044 35.5986 73.124C35.7906 73.204 35.9506 73.332 36.0786 73.508C36.2146 73.684 36.3186 73.916 36.3906 74.204C36.4626 74.492 36.4986 74.84 36.4986 75.248V77.888C36.4986 78.304 36.4626 78.656 36.3906 78.944C36.3186 79.224 36.2146 79.452 36.0786 79.628C35.9506 79.804 35.7906 79.932 35.5986 80.012C35.4146 80.092 35.2066 80.132 34.9746 80.132C34.7106 80.132 34.4826 80.068 34.2906 79.94C34.1066 79.812 33.9586 79.668 33.8466 79.508C33.7106 79.324 33.6026 79.112 33.5226 78.872H33.4506L33.5226 79.4V82.64H32.5386V73.136ZM34.5786 79.268C34.8746 79.268 35.1026 79.172 35.2626 78.98C35.4226 78.78 35.5026 78.416 35.5026 77.888V75.248C35.5026 74.72 35.4226 74.356 35.2626 74.156C35.1026 73.956 34.8746 73.856 34.5786 73.856C34.2826 73.856 34.0306 73.972 33.8226 74.204C33.6226 74.436 33.5226 74.784 33.5226 75.248V77.888C33.5226 78.352 33.6226 78.7 33.8226 78.932C34.0306 79.156 34.2826 79.268 34.5786 79.268ZM39.3461 80.132C39.1141 80.132 38.9021 80.092 38.7101 80.012C38.5261 79.932 38.3661 79.804 38.2301 79.628C38.1021 79.452 38.0021 79.224 37.9301 78.944C37.8581 78.656 37.8221 78.304 37.8221 77.888V75.248C37.8221 74.84 37.8581 74.492 37.9301 74.204C38.0021 73.916 38.1021 73.684 38.2301 73.508C38.3661 73.332 38.5261 73.204 38.7101 73.124C38.9021 73.044 39.1141 73.004 39.3461 73.004C39.6021 73.004 39.8221 73.068 40.0061 73.196C40.1981 73.324 40.3501 73.468 40.4621 73.628C40.5981 73.812 40.7061 74.02 40.7861 74.252H40.8581L40.7861 73.736V70.364H41.7821V80H40.7861V79.4L40.8581 78.872H40.7861C40.7061 79.112 40.5981 79.324 40.4621 79.508C40.3501 79.668 40.1981 79.812 40.0061 79.94C39.8221 80.068 39.6021 80.132 39.3461 80.132ZM39.7421 79.268C40.0381 79.268 40.2861 79.156 40.4861 78.932C40.6861 78.7 40.7861 78.352 40.7861 77.888V75.248C40.7861 74.784 40.6861 74.436 40.4861 74.204C40.2861 73.972 40.0381 73.856 39.7421 73.856C39.4381 73.856 39.2061 73.956 39.0461 74.156C38.8861 74.356 38.8061 74.72 38.8061 75.248V77.888C38.8061 78.416 38.8861 78.78 39.0461 78.98C39.2061 79.172 39.4381 79.268 39.7421 79.268ZM43.0456 78.416H44.1016V80H43.0456V78.416ZM47.339 80.132C46.707 80.132 46.207 79.94 45.839 79.556C45.471 79.172 45.287 78.616 45.287 77.888V75.248C45.287 74.52 45.471 73.964 45.839 73.58C46.207 73.196 46.707 73.004 47.339 73.004C47.931 73.004 48.407 73.192 48.767 73.568C49.135 73.936 49.319 74.452 49.319 75.116C49.319 75.228 49.311 75.332 49.295 75.428C49.279 75.516 49.263 75.592 49.247 75.656C49.223 75.736 49.203 75.8 49.187 75.848H48.383V75.248C48.383 74.744 48.291 74.388 48.107 74.18C47.923 73.964 47.667 73.856 47.339 73.856C47.003 73.856 46.739 73.964 46.547 74.18C46.363 74.388 46.271 74.744 46.271 75.248V77.888C46.271 78.384 46.363 78.74 46.547 78.956C46.739 79.164 47.003 79.268 47.339 79.268C47.667 79.268 47.923 79.164 48.107 78.956C48.291 78.74 48.383 78.384 48.383 77.888V77.288H49.187C49.203 77.344 49.223 77.408 49.247 77.48C49.263 77.544 49.279 77.624 49.295 77.72C49.311 77.808 49.319 77.908 49.319 78.02C49.319 78.684 49.135 79.204 48.767 79.58C48.407 79.948 47.931 80.132 47.339 80.132ZM52.4835 80.132C51.8515 80.132 51.3515 79.94 50.9835 79.556C50.6155 79.172 50.4315 78.616 50.4315 77.888V75.248C50.4315 74.52 50.6155 73.964 50.9835 73.58C51.3515 73.196 51.8515 73.004 52.4835 73.004C53.1075 73.004 53.6035 73.196 53.9715 73.58C54.3395 73.964 54.5235 74.52 54.5235 75.248V77.888C54.5235 78.616 54.3395 79.172 53.9715 79.556C53.6035 79.94 53.1075 80.132 52.4835 80.132ZM52.4835 79.268C52.8115 79.268 53.0675 79.164 53.2515 78.956C53.4355 78.74 53.5275 78.384 53.5275 77.888V75.248C53.5275 74.744 53.4355 74.388 53.2515 74.18C53.0675 73.964 52.8115 73.856 52.4835 73.856C52.1475 73.856 51.8835 73.964 51.6915 74.18C51.5075 74.388 51.4155 74.744 51.4155 75.248V77.888C51.4155 78.384 51.5075 78.74 51.6915 78.956C51.8835 79.164 52.1475 79.268 52.4835 79.268ZM55.9175 73.136H56.9015V73.736L56.8535 74.252H56.8895C56.9855 74.02 57.1055 73.812 57.2495 73.628C57.3695 73.468 57.5175 73.324 57.6935 73.196C57.8775 73.068 58.0855 73.004 58.3175 73.004C58.6615 73.004 58.9495 73.104 59.1815 73.304C59.4215 73.504 59.5855 73.82 59.6735 74.252H59.7215C59.8175 74.02 59.9375 73.812 60.0815 73.628C60.2015 73.468 60.3495 73.324 60.5255 73.196C60.7095 73.068 60.9175 73.004 61.1495 73.004C61.3575 73.004 61.5495 73.04 61.7255 73.112C61.9015 73.184 62.0495 73.3 62.1695 73.46C62.2975 73.612 62.3975 73.816 62.4695 74.072C62.5415 74.32 62.5775 74.624 62.5775 74.984V80H61.5815V75.248C61.5815 74.72 61.5095 74.356 61.3655 74.156C61.2215 73.956 61.0335 73.856 60.8015 73.856C60.6655 73.856 60.5335 73.888 60.4055 73.952C60.2855 74.016 60.1735 74.108 60.0695 74.228C59.9735 74.348 59.8935 74.496 59.8295 74.672C59.7735 74.84 59.7455 75.032 59.7455 75.248V80H58.7495V75.248C58.7495 74.72 58.6735 74.356 58.5215 74.156C58.3775 73.956 58.1895 73.856 57.9575 73.856C57.8215 73.856 57.6895 73.888 57.5615 73.952C57.4415 74.016 57.3295 74.108 57.2255 74.228C57.1295 74.348 57.0495 74.496 56.9855 74.672C56.9295 74.84 56.9015 75.032 56.9015 75.248V80H55.9175V73.136Z" fill="#191919"/>
<path d="M72.1666 73.1667H78.8333V79.8334" stroke="#191919" stroke-linecap="square" stroke-linejoin="round"/>
<path d="M72.1666 79.8334L78 74" stroke="#191919" stroke-linecap="square" stroke-linejoin="round"/>
<defs>
<clipPath id="clip0_728_59">
<rect width="76" height="60" fill="white" transform="translate(7)"/>
</clipPath>
</defs>
</svg>
