<svg width="16" height="12" viewBox="0 0 16 12" fill="none" xmlns="http://www.w3.org/2000/svg">
<path fill-rule="evenodd" clip-rule="evenodd" d="M2.28578 3.76493L2.28489 3.7678H2.282L2.28578 3.76493Z" fill="#4F555B"/>
<path d="M12.645 1.59235C10.6175 1.50385 8.89371 0.63881 6.8402 0.667359C4.49579 0.704454 2.85925 1.91371 2.28578 3.76493C3.37291 2.93903 4.84616 2.57727 6.2444 2.54875C8.24295 2.4631 9.98698 3.39095 11.9566 3.42235C14.0188 3.45661 15.6153 2.47738 16 0.835798C14.8257 1.51812 13.7556 1.64945 12.645 1.59235Z" fill="#4F555B"/>
<path d="M10.8171 7.20512C8.84743 7.17372 7.1034 6.24587 5.10484 6.33152C3.70499 6.36006 2.22993 6.72264 1.14244 7.55057C1.71511 5.69773 3.35213 4.48724 5.69776 4.45013C7.75127 4.42158 9.47505 5.28661 11.5025 5.37512C12.6132 5.43221 13.6833 5.30089 14.8576 4.61857C14.4729 6.26014 12.8764 7.23938 10.8142 7.20512H10.8171Z" fill="#4F555B"/>
<path d="M9.67462 10.9879C7.70499 10.9565 5.96095 10.0286 3.9624 10.1143C2.56254 10.1428 1.08749 10.5054 0 11.3333C0.572668 9.48049 2.20969 8.27001 4.55531 8.23289C6.60882 8.20434 8.33261 9.06938 10.3601 9.15788C11.4707 9.21498 12.5409 9.08366 13.7151 8.40133C13.3304 10.0429 11.7339 11.0221 9.67173 10.9879H9.67462Z" fill="#4F555B"/>
</svg>
