<svg width="198" height="58" viewBox="0 0 198 58" fill="none" xmlns="http://www.w3.org/2000/svg">
<g clip-path="url(#clip0_1119_4768)">
<path d="M38.6559 16.7552L40.2747 17.2889L40.099 17.8353L39.0742 17.4965L38.7312 18.5618L39.5469 18.8308L39.3712 19.3772L38.5556 19.1082L38.1958 20.2286L39.2206 20.5675L39.0449 21.1139L37.4262 20.5802L38.658 16.7531L38.6559 16.7552ZM48.8746 24.7822C48.9478 24.9156 49.0189 25.0491 49.0879 25.1825C49.3472 25.1613 49.6024 25.1401 49.8575 25.119C49.7111 24.8902 49.5626 24.6615 49.4079 24.4391C48.2283 22.7426 46.7601 21.2601 45.0745 20.1397C46.6347 21.4337 47.9083 23.0328 48.8725 24.7801L48.8746 24.7822ZM34.9165 16.6959L34.9249 16.1198L33.2727 16.0923L33.2078 20.1185L33.8332 20.1291L33.8603 18.4665L34.6676 18.4792L34.676 17.9031L33.8687 17.8904L33.8875 16.6768L34.9144 16.6938L34.9165 16.6959ZM29.2697 18.8011C29.6064 18.8286 29.7988 19.087 29.9264 19.4852L30.1167 20.0761C30.1774 20.2625 30.2255 20.3959 30.3321 20.5188L29.7277 20.7179C29.6629 20.631 29.6232 20.5781 29.5228 20.2646L29.3283 19.6631C29.2132 19.3073 29.0522 19.2162 28.7824 19.3052L28.5775 19.373L29.0794 20.9318L28.4854 21.1287L27.2515 17.3016L28.1487 17.0051C28.7636 16.8018 29.1212 17.0051 29.3115 17.5939L29.4077 17.8946C29.5353 18.2886 29.4935 18.5872 29.2697 18.799V18.8011ZM28.8577 18.2293L28.7364 17.8523C28.6486 17.5791 28.5168 17.488 28.3077 17.5579L28.0211 17.6532L28.3997 18.8286L28.6318 18.7524C28.8535 18.6783 28.956 18.5364 28.8577 18.2293ZM24.5243 25.5553C24.7125 25.5658 24.9008 25.5743 25.0911 25.5828C27.3937 23.3166 30.5099 21.9907 33.783 21.9907C37.056 21.9907 40.1889 23.3251 42.4937 25.6018C42.684 25.5934 42.8722 25.5828 43.0604 25.5743C40.6553 23.0497 37.307 21.5629 33.783 21.5629C30.2589 21.5629 26.9273 23.0434 24.5243 25.5531V25.5553ZM31.1917 19.6208V20.3599L30.6228 20.4446L30.6772 16.3676L31.5828 16.2342L32.7875 20.1248L32.1642 20.218L31.953 19.5106L31.1938 19.6229L31.1917 19.6208ZM31.1917 19.068L31.7878 18.979L31.198 17.0093L31.1917 19.068ZM23.1231 25.4769C23.2946 25.4875 23.4661 25.4959 23.6376 25.5065C23.7233 25.3901 23.8111 25.2736 23.9011 25.1592C24.3089 24.6361 24.7606 24.1426 25.2458 23.6809C24.6958 24.06 24.1667 24.4793 23.6689 24.9389C23.4807 25.1105 23.2987 25.2905 23.121 25.4748L23.1231 25.4769ZM67.8311 46.1968L61.6907 49.3546C61.6907 49.7231 61.6614 49.9582 61.6572 49.9837L61.6196 50.2526L61.1427 50.1234C61.3121 51.4239 61.011 52.3092 60.9984 52.3473L60.9252 52.5633L60.0636 52.307C60.0782 52.7412 60.0322 53.1585 60.0259 53.2072L59.9967 53.4486L59.7603 53.4169C59.708 53.4105 58.5243 53.2432 57.7024 52.6269L57.6501 53.2771L57.3678 53.1881C57.3573 53.1839 57.3385 53.1775 57.3134 53.1712C57.0227 53.0716 55.8724 52.6396 55.2554 51.8114L55.1383 52.1609C55.3684 54.1878 55.1258 55.6238 55.1111 55.7085L55.0526 56.0368L54.7619 55.8779C54.7493 55.8716 53.5468 55.215 52.02 54.6664C51.2985 54.4059 50.7526 53.9146 50.3845 53.4825C50.4347 55.7678 48.9185 57.532 48.8453 57.6146L48.5734 57.9238L48.4416 57.532C48.4416 57.532 48.1321 56.6552 47.0153 55.2002C46.7601 54.8698 46.5573 54.5309 46.39 54.1941C42.7614 56.598 38.4301 57.9958 33.7809 57.9958C29.1317 57.9958 25.0409 56.6743 21.475 54.3911C21.3286 54.6601 21.1571 54.9312 20.9543 55.198C19.8354 56.6531 19.53 57.5236 19.5279 57.5299L19.3962 57.9217L19.1243 57.6125C19.0511 57.5278 17.5348 55.7657 17.585 53.4804C17.2169 53.9124 16.6732 54.4038 15.9495 54.6643C14.4228 55.2129 13.2182 55.8694 13.2077 55.8758L12.917 56.0346L12.8584 55.7064C12.8438 55.6216 12.6012 54.1857 12.8313 52.1609L12.712 51.8093C12.0951 52.6374 10.9448 53.0695 10.6541 53.169C10.6311 53.1775 10.6123 53.1839 10.5997 53.186L10.3174 53.2749L10.2651 52.6247C9.44318 53.2411 8.25944 53.4063 8.20716 53.4147L7.97083 53.4465L7.94155 53.2051C7.93527 53.1563 7.88926 52.7391 7.9039 52.3049L7.04224 52.5612L6.96904 52.3452C6.95649 52.307 6.65533 51.4239 6.82474 50.1213L6.3479 50.2505L6.31025 49.9815C6.30607 49.9561 6.27679 49.7168 6.27679 49.3419L0.167789 46.201C0.236806 46.1883 0.575614 46.1205 1.15702 46.0189L6.33326 48.5307C6.35417 48.3613 6.38345 48.1813 6.42109 47.9949L1.18212 46.0146C2.32821 45.8092 4.39243 45.4618 7.16354 45.0785C6.92512 45.5847 6.82683 46.1184 6.79127 46.4382L7.09244 46.3937C7.11335 46.3895 7.93109 46.2328 8.30964 45.8939C8.2929 45.7986 8.27826 45.7033 8.26571 45.6122C8.18624 45.6715 8.10886 45.7287 8.02729 45.7817C7.77842 45.9468 7.51072 46.0803 7.23047 46.1777L6.80591 46.3281L7.15518 46.04C7.37059 45.8621 7.56091 45.663 7.72404 45.4428C7.80351 45.3369 7.8809 45.2246 7.94782 45.1081C7.96455 45.0806 7.99383 45.0234 8.02729 44.9578C8.24898 44.9281 8.47486 44.8985 8.70491 44.8688C8.69445 45.1039 8.70491 45.375 8.75092 45.68C9.16711 45.5635 9.97649 45.2691 10.6499 44.6231C10.8862 44.5956 11.1289 44.5659 11.3715 44.5384L11.361 44.5532C10.9594 45.6419 11.1916 46.9211 11.3589 47.565L11.6287 47.1689C11.932 46.7241 12.1766 46.3005 12.3795 45.877C12.6221 45.3559 12.7769 44.9218 12.8626 44.513C12.8417 44.4685 12.8229 44.4219 12.802 44.3774C12.9986 44.3563 13.1993 44.3351 13.4001 44.3118C17.0078 52.0508 24.7878 57.4219 33.7851 57.4219C42.7823 57.4219 50.5038 52.0931 54.1303 44.4007L53.9734 44.2483C54.3519 44.2885 54.7221 44.3266 55.0881 44.3669C55.0965 44.4135 55.1028 44.4579 55.1132 44.5066C55.199 44.9175 55.3537 45.3517 55.5984 45.877C55.7992 46.3005 56.046 46.7241 56.3492 47.1689L56.619 47.565C56.7864 46.9211 57.0185 45.6419 56.6169 44.5532L56.6065 44.5384C56.8512 44.5659 57.0917 44.5956 57.328 44.6231C58.0015 45.267 58.8129 45.5635 59.227 45.68C59.273 45.375 59.2835 45.1039 59.273 44.8688C59.5031 44.8985 59.729 44.9281 59.9506 44.9578C59.9841 45.0234 60.0134 45.0806 60.0301 45.1081C60.0991 45.2246 60.1744 45.3369 60.2539 45.4428C60.417 45.6609 60.6073 45.8621 60.8228 46.04L61.172 46.3281L60.7475 46.1777C60.4672 46.0782 60.1995 45.9447 59.9506 45.7817C59.8691 45.7287 59.7917 45.6715 59.7122 45.6122C59.7018 45.7033 59.6871 45.7965 59.6683 45.8939C60.0468 46.2328 60.8646 46.3895 60.8855 46.3937L61.1867 46.4382C61.1511 46.1184 61.0549 45.5847 60.8144 45.0785C63.5751 45.4597 65.6351 45.8071 66.7833 46.0125L61.5548 47.9885C61.5924 48.1749 61.6217 48.3528 61.6426 48.5223L66.8063 46.0167C67.4693 46.1353 67.8227 46.2052 67.8227 46.2052V46.1925C67.8227 46.1925 67.8311 46.1968 67.8352 46.201L67.8311 46.1968ZM14.8286 48.0436C14.8286 48.0436 14.8285 48.8167 15.3932 49.2996C15.4434 49.2148 15.5062 49.1068 15.5731 48.9819C15.3263 48.6621 15.0879 48.3338 14.8557 48.0013L14.8348 48.0224L14.8286 48.0309V48.0436ZM13.58 48.3147C13.8038 48.2109 14.1426 48.0224 14.4437 47.7386L14.4395 47.7344L14.5044 47.6814L14.5567 47.6285L14.5608 47.6327C14.5608 47.6327 14.5776 47.6158 14.5859 47.6073C14.5399 47.5374 14.496 47.4675 14.45 47.3976C14.3266 47.5777 14.1656 47.7535 13.9648 47.9187L13.6699 48.1622L13.9021 47.7047C14.0004 47.512 14.0945 47.3299 14.1656 47.135C14.1823 47.0927 14.1928 47.0545 14.2074 47.0143C14.0317 46.7305 13.8602 46.4424 13.695 46.1502C13.6323 46.2794 13.5528 46.4297 13.4608 46.5674C13.4566 46.7686 13.4545 47.4591 13.58 48.3168V48.3147ZM11.361 47.5819C11.3756 47.6391 11.3903 47.6942 11.4049 47.7407C12.9546 46.8809 13.329 45.8071 13.3918 45.5889C13.3311 45.4724 13.2705 45.3581 13.2098 45.2416C12.9065 46.0485 12.4004 46.758 11.7416 47.2812L11.361 47.5819ZM11.223 49.7973L11.4237 49.6363C11.7625 49.3673 12.0595 49.0624 12.3105 48.7277C12.4339 48.5646 12.551 48.391 12.6577 48.2067C12.7539 48.0415 12.94 47.62 13.0132 47.4315C13.0069 47.3277 13.0007 47.2282 12.9965 47.1393C12.6472 47.4993 12.1599 47.8848 11.4781 48.2427C11.4216 48.3211 11.3631 48.3994 11.3045 48.4778C11.1832 48.9882 11.1895 49.469 11.223 49.7973ZM10.8319 47.404C10.5077 47.7746 9.95348 48.3189 9.22985 48.715C9.23404 49.416 9.3407 49.9519 9.44318 50.3013L9.56239 50.1404C9.81754 49.7952 10.0539 49.4224 10.286 49.0009C10.514 48.5879 10.7127 48.1834 10.8758 47.8001L10.9072 47.7238C10.8821 47.6285 10.8549 47.5205 10.8298 47.4019L10.8319 47.404ZM10.721 46.7856C10.7148 46.7368 10.7085 46.6881 10.7022 46.6394C10.5997 46.7411 10.4889 46.8449 10.3676 46.955C10.0455 47.2409 9.69624 47.5141 9.33024 47.764L9.03744 47.9653C9.06463 48.069 9.08973 48.1601 9.11483 48.2342C9.95766 47.7386 10.5433 47.0206 10.721 46.7877V46.7856ZM9.01653 47.8742L9.22776 47.6433C9.52056 47.3235 9.79035 46.9889 10.0309 46.6479C10.1626 46.4594 10.2756 46.2857 10.3739 46.1205C10.5014 45.9024 10.5914 45.7287 10.6457 45.591L10.6792 45.5084C10.6876 45.4089 10.698 45.3093 10.7127 45.2098C10.1584 45.6609 9.57075 45.9214 9.15456 46.0612C9.08973 46.0824 9.03117 46.1015 8.97679 46.1184C8.83667 46.8046 8.91405 47.44 9.01653 47.8763V47.8742ZM6.75572 49.4012L7.08198 49.0729C7.37687 48.7764 7.63411 48.4503 7.84953 48.1029C7.95619 47.9292 8.0503 47.7492 8.12977 47.5692C8.19879 47.4125 8.36401 46.9973 8.42885 46.7898C8.43094 46.6564 8.44139 46.5166 8.45812 46.3768C8.24271 46.5229 7.98756 46.6309 7.75959 46.7093C7.56928 46.775 7.39987 46.8173 7.29321 46.8406C6.8331 47.8191 6.75154 48.8103 6.75572 49.4033V49.4012ZM8.65472 48.3465C8.62335 48.2469 8.58779 48.1283 8.55642 47.9907C8.44558 48.1283 8.32846 48.2639 8.20297 48.3888C7.89763 48.6938 7.55255 48.967 7.18027 49.1979L6.75781 49.4605C6.75781 49.5283 6.7599 49.5897 6.76408 49.6448L6.81846 49.63L6.83728 49.6236C7.85998 49.2233 8.42885 48.6324 8.65681 48.3486L8.65472 48.3465ZM7.35386 51.9152L7.6132 51.6378C7.90808 51.3222 8.15278 50.96 8.34101 50.5619C8.43512 50.3628 8.51668 50.1637 8.58152 49.9646C8.63799 49.793 8.73001 49.4393 8.77602 49.2254C8.76974 49.1365 8.76347 49.0433 8.76138 48.9459C8.46858 49.2424 8.00847 49.613 7.34131 49.9244C7.18446 50.8224 7.27857 51.5467 7.35595 51.9131L7.35386 51.9152ZM9.11901 50.8202C9.07927 50.7228 9.03326 50.5957 8.98516 50.4369C8.9015 50.5619 8.81575 50.6847 8.72164 50.8054C8.43094 51.1803 8.09004 51.5022 7.71358 51.7585L7.4417 51.9449L8.08167 51.7543C8.18833 51.6907 8.74046 51.3518 9.1211 50.8202H9.11901ZM8.38283 52.593L8.61498 52.4151C8.91614 52.1863 9.20685 51.9385 9.47455 51.678C9.60212 51.5552 9.73388 51.4196 9.86355 51.2777C9.99531 51.1337 10.0957 51.013 10.1773 50.9092C10.1773 50.8499 10.1794 50.7927 10.1814 50.7334C9.99949 50.869 9.79244 51.0087 9.55193 51.1485L9.39507 51.2396C9.03117 51.6928 8.59407 51.9957 8.39538 52.1207C8.38074 52.2795 8.37865 52.4447 8.38074 52.593H8.38283ZM10.2212 52.0338C10.2149 51.9703 10.2086 51.8813 10.2024 51.7733C10.0434 51.8729 9.89283 51.9639 9.74225 52.0487C9.40553 52.2372 9.05208 52.4066 8.69236 52.5548L8.38492 52.6819C8.38702 52.7624 8.3912 52.8344 8.39538 52.8937C8.83876 52.8005 9.71924 52.557 10.2212 52.0338ZM10.7294 49.5579C10.7252 49.4415 10.7231 49.3165 10.7294 49.1831C10.7043 49.2127 10.6813 49.2403 10.6562 49.2699C10.332 49.6363 10.0037 49.9667 9.67741 50.2505L9.48082 50.4221C9.50174 50.4877 9.52474 50.5491 9.54356 50.5979C9.84264 50.4072 10.0811 50.2166 10.2651 50.0493L10.2714 50.0239L10.2902 50.0281C10.5328 49.8057 10.675 49.63 10.7315 49.5579H10.7294ZM10.7294 52.4214L11.0326 52.1418C11.3275 51.8707 11.5743 51.5255 11.7897 51.0871C11.8838 50.8923 11.9675 50.691 12.0386 50.4856C12.0783 50.3712 12.1118 50.2611 12.1432 50.1573C11.9529 50.2463 11.7416 50.3331 11.5032 50.4157C11.3861 50.456 11.2606 50.4941 11.1309 50.5322L10.9009 50.5979L10.8381 50.3649C10.8381 50.3649 10.8193 50.295 10.8026 50.1997C10.7712 50.2315 10.7357 50.2675 10.698 50.3013C10.6227 50.744 10.6541 51.4429 10.6813 51.8263L10.7043 52.1016L10.7127 52.1778L10.7336 52.4235L10.7294 52.4214ZM12.5134 51.229C12.4924 51.1549 12.4674 51.0617 12.4443 50.9558C12.3565 51.085 12.2666 51.2142 12.1704 51.3349C11.8441 51.7458 11.4928 52.0614 11.1247 52.271L10.7336 52.4955L10.744 52.6247C11.2334 52.4235 12.1766 51.9555 12.5134 51.2269V51.229ZM13.1575 48.6684C13.1512 48.6345 13.1471 48.6006 13.1408 48.5667C13.1387 48.5689 13.1366 48.5731 13.1345 48.5752C12.9756 48.7447 12.8062 48.9035 12.6347 49.0454C12.2938 49.3334 11.9131 49.577 11.5053 49.7719L11.2334 49.9011C11.2376 49.9328 11.2418 49.9667 11.246 49.9964C12.5468 49.5728 13.0007 48.9967 13.1575 48.6684ZM13.078 51.4027L13.3144 50.9134C13.5277 50.4708 13.6929 50.0197 13.8059 49.5707C13.8665 49.3229 13.9062 49.0984 13.9313 48.8844C13.9397 48.8082 13.946 48.7341 13.9502 48.6642C13.8163 48.7341 13.7013 48.7849 13.6176 48.8188C13.5151 49.0623 13.3081 49.3864 12.8856 49.7104C12.7622 50.1552 12.8668 50.6995 12.9463 51.0066L13.078 51.4006V51.4027ZM14.7637 49.3102C14.6717 49.181 14.6027 49.0475 14.5483 48.9183C14.5378 48.9501 14.5295 48.9819 14.519 49.0158C14.4458 49.2424 14.3517 49.4753 14.2325 49.7274C14.0213 50.1658 13.7577 50.5915 13.4482 50.996L13.0969 51.4577L13.1408 51.5869C13.5716 51.282 14.4103 50.5513 14.7637 49.3102ZM17.7293 52.4384L18.0786 51.7458C17.859 51.5403 17.6436 51.3307 17.4324 51.1146C17.3675 51.2523 17.3027 51.3921 17.242 51.534C17.0245 52.0423 16.8405 52.5697 16.692 53.1097C16.7464 52.5527 16.8384 51.9936 16.9722 51.4429C17.0224 51.2311 17.081 51.0236 17.1416 50.8139C17.1145 50.7864 17.0873 50.7588 17.0622 50.7313C16.9869 50.7885 16.9137 50.8478 16.8384 50.9071C16.7464 51.0871 16.6439 51.3222 16.5623 51.5107C16.4745 51.714 16.3929 51.9216 16.3155 52.1313C16.1608 52.5506 16.029 52.9784 15.9203 53.4169C15.9349 52.9657 15.9746 52.5125 16.0395 52.0592C16.0667 51.8686 16.1001 51.6801 16.1357 51.4895C16.0437 51.57 15.9516 51.6505 15.8638 51.7373C15.7571 51.9279 15.6233 52.1757 15.525 52.3748C15.4267 52.5781 15.3326 52.7815 15.2447 52.989C15.1569 53.1966 15.0753 53.4063 15.0084 53.6223C14.9415 53.8383 14.8808 54.0565 14.8599 54.2852C14.8411 54.0565 14.8641 53.8256 14.8934 53.5969C14.9227 53.3681 14.9687 53.1415 15.0189 52.9149C15.0523 52.7709 15.0921 52.629 15.1297 52.485C15.1255 52.4892 15.1213 52.4955 15.1151 52.4998L14.9415 52.6883C14.885 52.7518 14.8327 52.8196 14.7784 52.8874L14.4521 53.2877L14.153 53.7091L14.0024 53.9209L13.8686 54.1433L13.5967 54.5902L13.7933 54.1031L13.8916 53.8595L14.0066 53.6223L14.2388 53.1479L14.5002 52.6883C14.5441 52.612 14.5859 52.5337 14.634 52.4574L14.7784 52.235C14.8767 52.0889 14.9687 51.9343 15.0732 51.7924L15.387 51.3624C15.4915 51.2163 15.6086 51.085 15.7174 50.9452C15.96 50.6487 16.2131 50.3628 16.4766 50.0832C16.2779 49.8545 16.0813 49.6215 15.891 49.3864C15.7592 49.6172 15.663 49.7592 15.6505 49.7782L15.5229 49.9604L15.3347 49.846C15.2615 49.8015 15.1966 49.7549 15.1339 49.7041C14.6738 51.0215 13.7494 51.7564 13.3311 52.0338C13.145 53.5397 13.2244 54.7406 13.2851 55.2934C13.7431 55.0604 14.6717 54.6135 15.7906 54.2111C17.0433 53.76 17.721 52.4511 17.7272 52.4384H17.7293ZM21.0714 54.1285C20.6406 53.8404 20.2202 53.5376 19.8103 53.2199C19.8186 53.4105 19.8354 53.7218 19.8584 53.8764C19.8877 54.0671 19.9274 54.2598 20.0111 54.4398C19.8939 54.281 19.8124 54.0946 19.7434 53.9082C19.6743 53.7197 19.62 53.527 19.5719 53.3321C19.5614 53.2898 19.5447 53.1902 19.5321 53.1034C19.4568 53.3618 19.3648 53.6922 19.3104 53.9294C19.2017 54.4313 19.1285 54.9418 19.1013 55.4628C19.0155 54.9502 18.9737 54.4229 18.9716 53.8913C18.9758 53.51 19.0093 52.9933 19.0427 52.6036C18.7959 52.396 18.5554 52.1842 18.317 51.9682L18.1727 52.6036C17.7293 54.5521 18.7604 56.3015 19.2456 56.9877C19.4422 56.5789 19.8417 55.8652 20.5778 54.9058C20.764 54.6622 20.9334 54.3805 21.0693 54.1285H21.0714ZM57.2611 45.2077C57.2757 45.3072 57.2862 45.4068 57.2946 45.5063L57.328 45.5889C57.3824 45.7266 57.4702 45.9003 57.5999 46.1184C57.6982 46.2857 57.8111 46.4573 57.9429 46.6458C58.1834 46.9846 58.4553 47.3214 58.746 47.6412L58.9572 47.8721C59.0576 47.4358 59.1371 46.8004 58.997 46.1142C58.9426 46.0972 58.884 46.0803 58.8192 46.057C58.4051 45.9151 57.8153 45.6546 57.2611 45.2056V45.2077ZM57.2527 46.7856C57.4284 47.0164 58.014 47.7344 58.8589 48.2321C58.884 48.158 58.9091 48.0669 58.9363 47.9631L58.6435 47.7619C58.2775 47.512 57.9303 47.2388 57.6062 46.9529C57.4849 46.8427 57.374 46.739 57.2716 46.6373C57.2653 46.6881 57.259 46.7368 57.2527 46.7834V46.7856ZM57.0666 47.7259L57.098 47.8022C57.2611 48.1834 57.4598 48.5879 57.6877 49.003C57.9199 49.4245 58.1583 49.7973 58.4114 50.1425L58.5306 50.3035C58.6331 49.954 58.7397 49.4182 58.7439 48.7171C58.0203 48.3211 57.4661 47.7746 57.1419 47.4061C57.1168 47.5247 57.0896 47.6327 57.0645 47.728L57.0666 47.7259ZM56.4977 48.2427C55.8159 47.8869 55.3286 47.5014 54.9794 47.1393C54.9752 47.2282 54.971 47.3277 54.9626 47.4315C55.0358 47.62 55.222 48.0415 55.3182 48.2067C55.4248 48.3888 55.542 48.5646 55.6654 48.7277C55.9163 49.0624 56.2133 49.3673 56.5521 49.6363L56.7529 49.7973C56.7863 49.469 56.7926 48.9882 56.6713 48.4778C56.6107 48.3994 56.5542 48.3211 56.4977 48.2427ZM54.4314 45.0848C54.4942 45.3178 54.5715 45.5466 54.5715 45.5466C54.5715 45.5466 54.8351 46.7792 56.5688 47.7407C56.5814 47.6942 56.596 47.6412 56.6128 47.5819L56.2321 47.2812C55.4395 46.65 54.8643 45.7499 54.6029 44.7354C54.5465 44.854 54.4879 44.9705 54.4314 45.087V45.0848ZM53.1536 47.3341C53.2393 47.4506 53.3272 47.5565 53.4129 47.6306L53.4171 47.6264L53.4694 47.6793L53.5342 47.7323L53.53 47.7365C53.8312 48.0203 54.17 48.2088 54.3938 48.3126C54.5193 47.4548 54.5151 46.7665 54.513 46.5632C54.2934 46.2349 54.1365 45.8261 54.1365 45.8261C54.1365 45.8261 54.1303 45.7732 54.1198 45.6906C53.9629 45.985 53.7998 46.2751 53.6304 46.5611C53.6764 46.7432 53.7329 46.9275 53.8103 47.1308C53.8814 47.3256 53.9734 47.5078 54.0738 47.7005L54.3059 48.158L54.0111 47.9144C53.7789 47.7217 53.5949 47.5184 53.4652 47.3087C53.4129 47.2303 53.3669 47.1498 53.323 47.0651C53.2686 47.1541 53.2121 47.243 53.1557 47.3299L53.1536 47.3341ZM52.2396 48.6557C52.3672 48.9268 52.4906 49.1492 52.5805 49.2996C53.1452 48.8167 53.1452 48.0521 53.1452 48.0436V48.0309L53.1389 48.0224L53.0846 47.9674L53.0908 47.961C53.026 47.8805 52.9674 47.7937 52.9131 47.7069C52.7792 47.9059 52.6412 48.1029 52.5031 48.2978C52.5533 48.482 52.6098 48.6684 52.6767 48.8527C52.6767 48.8527 52.5617 48.6705 52.4195 48.4121C52.3609 48.4947 52.3003 48.5773 52.2396 48.6578V48.6557ZM49.801 52.6036L49.5835 51.6526C49.3598 51.8665 49.1318 52.0762 48.8976 52.2816C48.8976 52.288 48.8997 52.2943 48.8997 52.3028C48.9624 52.8323 48.9959 53.3639 49 53.8934C49 54.4229 48.9561 54.9502 48.8704 55.4649C48.8432 54.9439 48.7721 54.4335 48.6612 53.9315C48.5985 53.6583 48.5232 53.3893 48.4416 53.1225C48.427 53.1923 48.4165 53.2644 48.3977 53.3343C48.3517 53.5291 48.2973 53.7218 48.2262 53.9103C48.1572 54.0967 48.0756 54.2831 47.9585 54.4419C48.0422 54.2619 48.0798 54.0713 48.1112 53.8786C48.1405 53.6858 48.1551 53.4931 48.1614 53.2982C48.1656 53.1648 48.1635 53.0314 48.1614 52.8979C47.718 53.2559 47.26 53.599 46.7915 53.9252C46.9505 54.2534 47.145 54.5838 47.3917 54.9058C48.1279 55.8652 48.5274 56.5789 48.724 56.9877C49.2092 56.3015 50.2423 54.5521 49.7969 52.6036H49.801ZM54.6406 52.0359C54.2244 51.7606 53.2979 51.0257 52.8378 49.7062C52.775 49.7549 52.7102 49.8036 52.637 49.8481L52.4488 49.9625L52.3212 49.7803C52.3045 49.7549 52.1267 49.4944 51.9155 49.0814C51.7084 49.3483 51.4951 49.6088 51.2755 49.8672C51.6164 50.2145 51.9468 50.5724 52.2522 50.9494C52.363 51.0892 52.4801 51.2227 52.5826 51.3667L52.8963 51.7966C53.0009 51.9406 53.0929 52.0931 53.1912 52.2393L53.3355 52.4617C53.3815 52.5358 53.4234 52.6141 53.4694 52.6925L53.7308 53.1521L53.9629 53.6265L54.078 53.8637L54.1763 54.1073L54.3729 54.5944L54.101 54.1475L53.9671 53.9252L53.8165 53.7134L53.5175 53.2919L53.1912 52.8916C53.1368 52.8259 53.0846 52.7582 53.0281 52.6925L52.8545 52.504C52.8545 52.504 52.8461 52.4934 52.8399 52.4892C52.8775 52.6311 52.9172 52.7751 52.9507 52.9191C53.003 53.1436 53.0469 53.3703 53.0762 53.6011C53.1055 53.8298 53.1264 54.0607 53.1096 54.2894C53.0887 54.0607 53.0281 53.8426 52.9612 53.6265C52.8942 53.4105 52.8127 53.2008 52.7248 52.9933C52.637 52.7857 52.5429 52.5803 52.4446 52.3791C52.3463 52.1778 52.2417 51.9745 52.1371 51.7818L52.1455 51.7776L52.1413 51.7733C52.043 51.6759 51.9385 51.5848 51.8339 51.4938C51.8694 51.6844 51.905 51.8729 51.9301 52.0635C51.9949 52.5146 52.0347 52.97 52.0493 53.4211C51.9406 52.9827 51.8088 52.5527 51.654 52.1355C51.5787 51.9258 51.4951 51.7183 51.4072 51.5149C51.3194 51.3137 51.2253 51.1062 51.1291 50.924L51.1416 50.9198C51.0224 50.8266 50.899 50.7376 50.7777 50.6466C50.8593 50.9113 50.9346 51.1803 50.9973 51.4493C51.1291 51.9999 51.2232 52.5591 51.2776 53.1161C51.1312 52.576 50.9471 52.0487 50.7275 51.5403C50.6272 51.301 50.5163 51.068 50.4013 50.8372C50.1921 51.0575 49.9767 51.2735 49.7592 51.4853L50.2423 52.4426C50.2486 52.4553 50.9262 53.7663 52.179 54.2153C53.2958 54.6177 54.2265 55.0646 54.6845 55.2976C54.7451 54.7448 54.8246 53.5439 54.6385 52.0381L54.6406 52.0359ZM54.8769 51.4577L54.5255 50.996C54.2181 50.5915 53.9546 50.1658 53.7413 49.7274C53.622 49.4753 53.5279 49.2424 53.4547 49.0158C53.4443 48.9819 53.4359 48.9501 53.4255 48.9183C53.3711 49.0475 53.3 49.181 53.21 49.3102C53.5614 50.5513 54.4021 51.282 54.833 51.5869L54.8769 51.4577ZM55.0902 49.7126C54.6678 49.3885 54.4607 49.0645 54.3582 48.8209C54.2725 48.787 54.1574 48.7362 54.0257 48.6663C54.0299 48.7362 54.0362 48.8082 54.0445 48.8866C54.0675 49.1005 54.1093 49.325 54.17 49.5728C54.2829 50.0197 54.4482 50.4729 54.6615 50.9156L54.8978 51.4048L55.0296 51.0109C55.1111 50.7038 55.2136 50.1573 55.0902 49.7147V49.7126ZM56.7278 49.9964C56.732 49.9688 56.7362 49.9349 56.7403 49.9011L56.4685 49.7719C56.0606 49.577 55.68 49.3334 55.3391 49.0454C55.1676 48.9035 55.0003 48.7447 54.8392 48.5752C54.8372 48.5731 54.8351 48.5689 54.833 48.5667C54.8267 48.6006 54.8225 48.6345 54.8162 48.6684C54.9731 48.9967 55.4269 49.5728 56.7278 49.9964ZM57.2402 52.4955L56.8491 52.271C56.481 52.0592 56.1296 51.7437 55.8034 51.3349C55.7072 51.2142 55.6172 51.085 55.5294 50.9558C55.5064 51.0617 55.4813 51.1549 55.4604 51.229C55.7971 51.9576 56.7382 52.4256 57.2297 52.6269L57.2402 52.4977V52.4955ZM57.2778 50.2992C57.2402 50.2632 57.2067 50.2293 57.1733 50.1976C57.1544 50.2929 57.1398 50.3522 57.1377 50.3628L57.075 50.5957L56.8449 50.5301C56.7152 50.492 56.5898 50.4538 56.4726 50.4136C56.2342 50.3331 56.023 50.2463 55.8327 50.1552C55.8619 50.259 55.8975 50.3712 55.9372 50.4835C56.0083 50.6889 56.092 50.8901 56.1861 51.085C56.4015 51.5234 56.6483 51.8686 56.9432 52.1397L57.2465 52.4193L57.2674 52.1736L57.2757 52.0974L57.2987 51.822C57.3259 51.4387 57.3573 50.7419 57.282 50.2971L57.2778 50.2992ZM58.4323 50.5979C58.4511 50.5491 58.472 50.4877 58.495 50.4221L58.2984 50.2505C57.9722 49.9667 57.6438 49.6363 57.3197 49.2699C57.2946 49.2403 57.2716 49.2127 57.2465 49.1831C57.2527 49.3165 57.2506 49.4415 57.2465 49.5579C57.3008 49.63 58.1332 50.4072 58.4323 50.5979ZM59.5909 52.6819L59.2835 52.5548C58.9238 52.4087 58.5724 52.2372 58.2336 52.0487C58.083 51.9639 57.9303 51.8729 57.7735 51.7733C57.7672 51.8813 57.7589 51.9682 57.7547 52.0338C58.2587 52.5548 59.1371 52.8005 59.5805 52.8937C59.5847 52.8344 59.5888 52.7603 59.5909 52.6819ZM59.593 52.593C59.5951 52.4447 59.593 52.2795 59.5784 52.1207C59.3776 51.9957 58.9405 51.6907 58.5787 51.2396L58.4218 51.1485C58.1813 51.0109 57.9743 50.869 57.7923 50.7334C57.7944 50.7906 57.7965 50.8499 57.7965 50.9092C57.8781 51.013 57.9784 51.1337 58.1102 51.2777C58.242 51.4217 58.3716 51.5552 58.4992 51.678C58.769 51.9385 59.0576 52.1863 59.3588 52.4151L59.5909 52.593H59.593ZM60.5341 51.9449L60.2623 51.7585C59.8837 51.5001 59.5449 51.1803 59.2542 50.8054C59.1601 50.6847 59.0723 50.5619 58.9907 50.4369C58.9447 50.5936 58.8987 50.7207 58.8568 50.8202C59.2375 51.3518 59.7896 51.6928 59.8963 51.7543L60.5362 51.9449H60.5341ZM60.6366 49.9265C59.9674 49.6151 59.5094 49.2445 59.2166 48.948C59.2124 49.0454 59.2082 49.1386 59.2019 49.2275C59.2479 49.4415 59.34 49.7952 59.3964 49.9667C59.4613 50.1637 59.5428 50.3649 59.6369 50.564C59.8252 50.9621 60.0699 51.3243 60.3647 51.6399L60.6241 51.9173C60.6994 51.5509 60.7935 50.8266 60.6387 49.9286L60.6366 49.9265ZM61.218 49.4605L60.7956 49.1979C60.4233 48.967 60.0782 48.6959 59.7729 48.3888C59.6474 48.2618 59.5303 48.1283 59.4194 47.9907C59.3881 48.1283 59.3525 48.2469 59.3211 48.3465C59.5491 48.6303 60.118 49.2212 61.1407 49.6215L61.1595 49.6278L61.2139 49.6427C61.216 49.5876 61.218 49.5262 61.2201 49.4584L61.218 49.4605ZM61.218 49.4012C61.2222 48.8082 61.1407 47.8191 60.6805 46.8385C60.5718 46.8131 60.4024 46.7707 60.2142 46.7072C59.9862 46.6288 59.731 46.5208 59.5156 46.3747C59.5324 46.5166 59.5428 46.6542 59.5449 46.7877C59.6077 46.9952 59.775 47.4103 59.844 47.5671C59.9235 47.7471 60.0176 47.9271 60.1242 48.1008C60.3376 48.446 60.5948 48.7722 60.8918 49.0708L61.218 49.3991V49.4012ZM35.6715 16.7531L36.3157 16.859L35.7698 20.2646L36.3868 20.3663L36.9326 16.9606L37.5768 17.0665L37.6667 16.4989L35.7614 16.1855L35.6694 16.7531H35.6715ZM47.8832 25.2757C48.1279 25.2566 48.3705 25.2397 48.6131 25.2206C48.5504 25.1274 48.4855 25.0321 48.4207 24.941C47.3269 23.3928 45.9717 22.0437 44.422 21.0271C45.8462 22.2152 47.0048 23.6787 47.8832 25.2757ZM21.8013 25.3943C22.0042 25.407 22.207 25.4197 22.4099 25.4324C23.0436 24.492 23.7777 23.6067 24.5912 22.7956C23.5832 23.5538 22.642 24.4221 21.8013 25.3943ZM42.6024 19.5191L41.6759 21.3257C41.3831 21.8976 40.9502 22.0649 40.396 21.7747L39.5197 21.313L41.3518 17.74L42.2281 18.2017C42.7823 18.494 42.8952 18.9473 42.6024 19.5191ZM41.9583 18.7079L41.6467 18.5448L40.3395 21.097L40.6511 21.2601C40.8268 21.3532 40.9795 21.3172 41.1113 21.061L42.0628 19.2035C42.1946 18.9494 42.1339 18.8011 41.9583 18.7079ZM44.125 25.5192C44.2986 25.5087 44.4701 25.5002 44.6415 25.4896C43.9869 24.7886 43.2591 24.168 42.4539 23.683C43.0918 24.2252 43.6439 24.8479 44.1229 25.5192H44.125ZM46.6137 25.3668C46.8438 25.3519 47.0718 25.335 47.2976 25.3202C46.3021 23.9922 45.1121 22.821 43.7652 21.9145C44.9009 22.9121 45.8483 24.0917 46.6137 25.3689V25.3668ZM45.3924 25.4451C45.5994 25.4324 45.8065 25.4197 46.0135 25.407C45.1644 24.3989 44.1877 23.5135 43.1106 22.7977C43.9911 23.5813 44.7524 24.4772 45.3924 25.4451ZM48.2346 21.4041C47.4608 20.612 46.62 19.8982 45.7312 19.2565C46.5531 19.9808 47.3165 20.7687 48.0003 21.618C48.6905 22.4609 49.297 23.3674 49.8303 24.3099C49.9767 24.5662 50.1127 24.8246 50.2444 25.0872C50.5121 25.0639 50.7798 25.0406 51.0433 25.0173C50.8258 24.6594 50.6021 24.3057 50.3615 23.9647C49.7195 23.0497 49.0126 22.1877 48.2325 21.402L48.2346 21.4041ZM9.67741 44.746C9.31351 45.0531 9.00816 45.303 9.00816 45.303C9.42645 45.1378 9.81545 44.9154 10.1647 44.6846C9.99949 44.7057 9.83845 44.7248 9.67741 44.746ZM36.6315 9.48426C37.0811 9.49062 37.5266 9.52874 37.9741 9.57534C38.1979 9.60287 38.4217 9.62617 38.6476 9.65794C38.7542 9.67276 38.8839 9.68971 39.0136 9.69394C39.1432 9.69606 39.2729 9.69394 39.4047 9.67064C39.664 9.62829 39.9338 9.5118 40.1178 9.30848C40.2998 9.10727 40.396 8.84464 40.3709 8.59896C40.2642 8.81499 40.1095 8.98443 39.9317 9.07762C39.756 9.17504 39.5615 9.2047 39.3628 9.20258C39.2625 9.20046 39.1621 9.18987 39.0596 9.17293C38.9571 9.16022 38.8588 9.13057 38.7375 9.10939C38.5054 9.06067 38.269 9.02891 38.0327 9.00349C37.558 8.95901 37.0748 8.96325 36.598 9.04161C36.1253 9.12421 35.6527 9.27671 35.2595 9.55627C35.7322 9.49274 36.1818 9.47367 36.6315 9.48215V9.48426ZM35.981 6.25016C36.0417 6.20356 36.1044 6.15697 36.1672 6.11461L36.3638 5.97271C36.5018 5.86681 36.6315 5.74185 36.736 5.59148C36.8406 5.44322 36.918 5.26743 36.9368 5.08317C36.9535 4.90103 36.918 4.71041 36.8113 4.57698C36.8218 4.7443 36.7862 4.89467 36.7214 5.02387C36.6586 5.15306 36.5687 5.26108 36.4641 5.35639C36.3596 5.45169 36.2446 5.53641 36.1191 5.61266C36.0605 5.64866 35.9873 5.69526 35.9162 5.73762C35.8472 5.78209 35.7782 5.82869 35.7112 5.87952C35.4435 6.07861 35.2009 6.31158 34.9981 6.58056C34.8015 6.84954 34.63 7.1524 34.5777 7.49128C34.7973 7.24136 35.0274 7.03168 35.2595 6.82624C35.4937 6.62292 35.7342 6.43442 35.981 6.25016ZM17.3424 23.9689C17.1082 24.3014 16.8886 24.6467 16.6732 24.994C16.9367 25.0173 17.2044 25.0406 17.4721 25.0639C17.6018 24.8119 17.7335 24.5598 17.8736 24.3141C18.9403 22.4292 20.3331 20.7157 21.9686 19.2565C20.2014 20.5484 18.6245 22.139 17.3403 23.9689H17.3424ZM29.7988 9.00561C29.5625 9.03102 29.3262 9.06279 29.094 9.11151C28.9727 9.13269 28.8744 9.16234 28.772 9.17504C28.6695 9.19199 28.5691 9.20258 28.4687 9.2047C28.27 9.2047 28.0755 9.17716 27.8998 9.07974C27.7221 8.98655 27.5694 8.81711 27.4606 8.60108C27.4355 8.84676 27.5318 9.10727 27.7137 9.31059C27.8977 9.51392 28.1675 9.6304 28.4269 9.67276C28.5586 9.69606 28.6883 9.69818 28.818 9.69606C28.9476 9.69182 29.0752 9.67488 29.184 9.66005C29.4077 9.62829 29.6336 9.60499 29.8574 9.57745C30.305 9.53086 30.7525 9.49485 31.2001 9.48638C31.6497 9.47791 32.0994 9.49697 32.572 9.56051C32.1789 9.28094 31.7062 9.12845 31.2335 9.04585C30.7567 8.96749 30.2736 8.96325 29.7988 9.00773V9.00561ZM57.9262 24.2866C58.0454 24.2718 58.1646 24.2569 58.2838 24.2421C58.3131 24.1299 58.3382 24.0113 58.3549 23.8842L58.4072 23.503L58.1416 23.9435C58.0705 24.0621 57.9994 24.1765 57.9262 24.2866ZM33.783 56.6764C42.4079 56.6764 49.8763 51.5721 53.4066 44.1932C52.8545 44.1381 52.2877 44.0831 51.7126 44.0301C48.3412 50.583 41.5714 55.0667 33.783 55.0667C25.9946 55.0667 19.2498 50.5979 15.8722 44.0661C15.2928 44.1212 14.7282 44.1762 14.1739 44.2334C17.7105 51.5933 25.1706 56.6764 33.783 56.6764ZM33.783 12.5362C25.2563 12.5362 17.8632 17.5219 14.2827 24.7631C14.839 24.8203 15.4079 24.8754 15.9872 24.9305C19.4004 18.5152 26.097 14.1459 33.783 14.1459C41.4689 14.1459 48.1907 18.5321 51.5997 24.9665C52.179 24.9135 52.7478 24.8584 53.3021 24.8034C49.7299 17.5388 42.3243 12.5362 33.783 12.5362ZM58.9656 45.303C58.9656 45.303 58.6602 45.051 58.2963 44.746C58.1353 44.7248 57.9722 44.7057 57.809 44.6846C58.1583 44.9154 58.5473 45.1378 58.9656 45.303ZM25.6056 18.6571C25.7812 18.5639 25.9423 18.602 26.074 18.8562L26.2706 19.2395L26.7935 18.9621L26.6136 18.6147C26.3187 18.0429 25.8691 17.8671 25.3253 18.1551C24.7816 18.4432 24.6686 18.9176 24.9635 19.4894L25.9214 21.3448C26.2163 21.9145 26.6659 22.0924 27.2097 21.8044C27.7534 21.5163 27.8664 21.0419 27.5715 20.4701L27.3268 19.9956L26.8039 20.2731L27.0675 20.7835C27.1992 21.0377 27.1365 21.188 26.9587 21.2812C26.783 21.3744 26.6241 21.3405 26.4923 21.0864L25.4968 19.159C25.3651 18.9049 25.4257 18.7482 25.6014 18.655L25.6056 18.6571ZM18.3317 24.4687C18.1853 24.6763 18.0451 24.8902 17.905 25.1041C18.1581 25.1253 18.4153 25.1465 18.6726 25.1677C18.7353 25.0491 18.798 24.9305 18.8629 24.814C19.8354 23.0709 21.0923 21.4676 22.6232 20.1439C20.9647 21.2982 19.5154 22.785 18.3296 24.4709L18.3317 24.4687ZM0.163607 22.785L6.78082 19.3814C6.79337 18.8752 6.87702 18.4517 6.91258 18.2907C6.91885 18.2653 6.92303 18.2462 6.92512 18.2356L6.99832 17.9455L7.57555 18.2377C7.48562 17.2063 7.96037 16.0965 7.98128 16.0478L8.07749 15.8254L8.29709 15.9249C8.34101 15.9461 8.71746 16.1219 9.07509 16.3612L9.30723 15.4823L9.52683 15.531C9.56657 15.5395 10.468 15.7407 11.476 16.5646L11.6141 16.0838L11.8588 16.1918C11.8964 16.2087 12.4569 16.4608 13.1115 16.9924C13.2495 15.4717 13.6281 14.4572 13.6511 14.3958L13.7452 14.1501L13.946 14.3174C13.946 14.3174 14.7846 15.0163 15.8826 15.675C16.4013 15.9864 16.7485 16.4502 16.9681 16.842C17.2713 15.0693 18.706 13.9404 18.7771 13.8875L19.0323 13.6905L19.0762 14.0146C19.0762 14.0146 19.1808 14.7241 19.8061 15.9906C21.6654 14.5567 23.7442 13.4003 25.982 12.5849L24.7481 10.4077H26.0197C26.0197 10.4077 24.4156 9.54145 24.6352 6.76058C24.838 4.18516 27.5464 3.34857 29.1233 4.06867C29.1233 4.06867 28.9204 2.05874 31.3109 2.21335C31.3109 2.21335 31.5138 0.00433205 33.8959 -0.00202179C33.8959 -0.00202179 33.898 -0.00202179 33.9001 -0.00202179C33.9022 -0.00202179 33.9022 -0.00202179 33.9043 -0.00202179C36.2864 0.00433205 36.4892 2.21335 36.4892 2.21335C38.8797 2.05874 38.6769 4.06867 38.6769 4.06867C40.2538 3.34645 42.8471 4.06867 43.05 6.6441C43.2696 9.42496 41.7784 10.4056 41.7784 10.4056H43.05L41.7742 12.6548C44.0601 13.5105 46.1745 14.7219 48.0568 16.2236C48.084 16.16 48.1112 16.0965 48.1426 16.033C48.7867 14.7368 48.8934 14.0188 48.8955 14.0124L48.9394 13.6884L49.1945 13.8854C49.2636 13.9383 50.6983 15.0672 51.0036 16.8399C51.2232 16.4502 51.5704 15.9864 52.089 15.6729C53.187 15.0142 54.0173 14.3217 54.0257 14.3153L54.2265 14.148L54.3206 14.3937C54.3436 14.4551 54.7221 15.4675 54.8602 16.9882C55.5148 16.4565 56.0753 16.2045 56.1129 16.1876L56.3576 16.0796L56.4956 16.5603C57.5037 15.7364 58.4051 15.5352 58.4448 15.5268L58.6644 15.4781L58.8966 16.357C59.2542 16.1177 59.6286 15.9398 59.6746 15.9207L59.8942 15.8212L59.9904 16.0435C60.0113 16.0923 60.4881 17.2021 60.3961 18.2335L60.9733 17.9412L61.0465 18.2314C61.0486 18.2441 61.0549 18.261 61.0591 18.2865C61.0946 18.4474 61.1783 18.8668 61.1908 19.3687L67.8185 22.7765C67.8185 22.7765 67.8185 22.7765 67.8164 22.7765C67.76 22.7871 64.2129 23.4881 58.4804 24.2104C58.5285 23.8672 58.5118 23.5517 58.4867 23.3399C57.6982 23.6787 57.1189 24.0409 56.9516 24.1489C56.9097 24.24 56.8616 24.3311 56.8135 24.4158C56.6044 24.4412 56.3932 24.4645 56.1777 24.4899C56.4183 24.1743 56.939 23.306 56.8679 21.7599C56.8219 21.7726 56.7696 21.7874 56.7131 21.8044L56.6567 22.2894C56.5626 23.0963 56.253 23.8715 55.7678 24.5344C55.5085 24.5641 55.2471 24.5937 54.9794 24.6212C55.2533 24.3459 55.519 24.0091 55.8055 23.5665C56.0585 23.1726 56.2865 22.7384 56.504 22.2449L56.6964 21.8065C56.0669 21.9971 54.8685 22.463 54.1595 23.378L54.1491 23.4055L54.1407 23.4013C54.124 23.4225 54.1093 23.4458 54.0926 23.4691C54.2997 23.8567 54.4942 24.2527 54.6803 24.653C54.4837 24.6742 54.285 24.6954 54.0842 24.7165C50.441 17.0708 42.7091 11.7822 33.7788 11.7822C24.8485 11.7822 17.1437 17.0517 13.4921 24.6763C13.0529 24.6297 12.6221 24.5831 12.1997 24.5344C11.7165 23.8694 11.4049 23.0942 11.3108 22.2894L11.2543 21.8044C11.1979 21.7874 11.1456 21.7726 11.0996 21.7599C11.0285 23.306 11.5492 24.1743 11.7897 24.4899C11.5764 24.4645 11.3631 24.4412 11.1539 24.4158C11.1058 24.3311 11.0577 24.2421 11.0159 24.1489C10.8486 24.0409 10.2672 23.6787 9.48082 23.3399C9.45573 23.5517 9.43899 23.8694 9.4871 24.2104C3.88004 23.503 0.360199 22.8167 0.159424 22.7786L0.163607 22.785ZM51.9636 19.301C51.8632 19.3793 51.7607 19.4577 51.6561 19.5382C51.6457 19.5466 51.6352 19.5551 51.6248 19.5636C51.6708 19.6102 51.7168 19.6589 51.7586 19.7076C51.8193 19.5657 51.8904 19.4301 51.9657 19.3031L51.9636 19.301ZM52.4801 20.7517C52.5805 20.6014 52.8022 20.2413 52.8524 20.1439C52.9151 20.0232 52.9695 19.9003 53.0176 19.7754C53.1159 19.5212 53.187 19.2522 53.2247 18.9727L53.2853 18.5215L53.3794 18.9684C53.4422 19.2628 53.4694 19.5636 53.461 19.8643C53.461 19.9618 53.4526 20.0592 53.4422 20.1587C53.5237 20.1206 53.6116 20.0846 53.7015 20.0486C53.7894 19.5445 53.4966 18.7566 53.4882 18.7355L53.369 18.4517C53.0072 18.7355 52.3275 19.3581 52.0932 20.1651C52.2271 20.3853 52.3212 20.5887 52.3839 20.7539C52.3944 20.7687 52.4048 20.7835 52.4174 20.8005C52.4362 20.7835 52.4592 20.7666 52.478 20.7496L52.4801 20.7517ZM53.7538 20.5421C53.2749 20.7454 52.934 20.9847 52.6956 21.1944C52.934 21.5396 53.164 21.8891 53.3836 22.247C53.4798 21.6116 53.5677 20.9614 53.5677 20.9614C53.6702 21.5439 53.666 22.1326 53.6283 22.6537C53.6869 22.7511 53.7434 22.8485 53.7998 22.9481C54.0696 21.9505 53.8793 20.9932 53.7517 20.5421H53.7538ZM55.2366 21.1478C55.3977 20.7623 55.5399 20.3536 55.657 19.9342L55.7427 19.6314C55.3224 19.7711 54.7451 20.0338 54.2411 20.5145C54.2557 20.5696 54.2704 20.631 54.285 20.6967C54.3812 21.1287 54.4691 21.7726 54.377 22.4863C54.4544 22.4228 54.5318 22.3593 54.6113 22.3021L54.6636 22.2301C54.7514 22.1115 54.8497 21.9442 54.9689 21.7196C55.0588 21.5481 55.1446 21.3617 55.2366 21.1478ZM56.0941 19.5297C56.0188 19.5466 55.9289 19.572 55.8264 19.6038L55.8097 19.9618C55.7887 20.4086 55.7406 20.8513 55.6695 21.2791C55.6403 21.4422 55.611 21.5905 55.5775 21.7324C55.6214 21.7112 55.6674 21.69 55.7114 21.6709C55.8138 21.3977 56.115 20.5167 56.0941 19.5297ZM58.175 22.0331C58.3256 21.6434 58.4302 21.2262 58.4804 20.7941L58.5097 20.5357C58.2169 20.6776 57.807 20.9212 57.441 21.2918C57.4054 21.385 57.3699 21.4761 57.3322 21.565C57.3866 22.3402 57.3155 22.9629 57.1942 23.4521C57.2716 23.4077 57.3573 23.3611 57.4493 23.3145C57.5706 23.1514 57.8279 22.7723 57.9178 22.6028C58.0161 22.4165 58.1039 22.2237 58.175 22.0331ZM58.2064 19.5932L58.2252 19.5742C58.2692 19.3285 58.3068 19.0214 58.311 18.6635C58.2608 18.6719 58.198 18.6867 58.1311 18.7016L58.0893 18.9621C58.0182 19.392 57.9115 19.8474 57.7714 20.3197C57.7609 20.3578 57.7484 20.3917 57.7379 20.4277C57.8467 20.3536 57.9534 20.29 58.0537 20.2328C58.0851 20.1481 58.1604 19.9321 58.2211 19.6059L58.2085 19.5932H58.2064ZM60.9859 20.7772L61.4753 20.667L61.4941 20.9445C61.4941 20.9614 61.5004 21.0652 61.4941 21.2304L66.9046 22.8909L61.1532 20.0994C61.1218 20.3282 61.0695 20.559 60.9838 20.775L60.9859 20.7772ZM60.8855 21.2918L60.6805 21.8361C60.5007 22.3127 60.2769 22.7638 60.0197 23.1747C59.8691 23.4098 59.7206 23.611 59.5679 23.7931C59.5449 23.8185 59.5219 23.8439 59.501 23.8694C59.639 23.8503 59.7875 23.8397 59.9444 23.8524C60.806 22.9015 60.9859 21.7959 61.0194 21.2643L60.8876 21.2939L60.8855 21.2918ZM60.8311 21.3045L60.4317 21.3956C60.1305 21.4867 59.616 21.6794 59.3065 22.0183C59.2542 22.552 59.089 22.8993 58.9363 23.1154C58.951 23.2064 58.9677 23.3335 58.9781 23.4839C59.0346 23.4437 59.0932 23.4013 59.1538 23.3547C59.3211 23.2234 59.4884 23.0709 59.6662 22.8888C59.9841 22.5584 60.279 22.1792 60.5404 21.7641L60.8311 21.3045ZM60.5321 18.7079L60.5467 19.1612C60.5592 19.589 60.4777 20.0571 60.302 20.5527C60.2497 20.6988 60.1891 20.8428 60.1242 20.9868C60.2267 20.9529 60.3166 20.9254 60.3898 20.9064C60.829 20.2371 60.7328 19.1781 60.6471 18.6507L60.5321 18.71V18.7079ZM59.4633 16.5794L59.5177 16.9119C59.5805 17.2995 59.6202 17.6934 59.639 18.0831C59.6474 18.2568 59.6495 18.4368 59.6474 18.6253C59.7415 18.5745 59.8189 18.5343 59.8774 18.5067C60.0552 17.7993 59.8022 16.9119 59.6495 16.4798C59.5972 16.5074 59.5345 16.5413 59.4654 16.5815L59.4633 16.5794ZM58.7816 18.3881C58.7899 18.6677 58.7795 18.9197 58.7585 19.1485C58.8066 19.1167 58.8547 19.0849 58.9049 19.0532C58.951 18.9282 58.9991 18.7778 59.0534 18.5893C59.1057 18.4008 59.1517 18.2187 59.1894 18.0429C59.2688 17.6744 59.3274 17.2953 59.363 16.9161L59.3901 16.6239C59.2647 16.698 59.1245 16.7869 58.9991 16.8823C58.9991 17.1195 58.9698 17.6574 58.7774 18.206L58.7816 18.3902V18.3881ZM58.6289 19.9618C58.7188 19.9279 58.7774 19.9088 58.7878 19.9067L59.0179 19.8389L59.0827 20.0719C59.1204 20.2032 59.1517 20.3324 59.1789 20.4531C59.2354 20.7009 59.273 20.9297 59.296 21.1414C59.3692 21.061 59.4445 20.9741 59.5198 20.8809C59.6558 20.7136 59.7833 20.5357 59.8984 20.3536C60.1577 19.9385 60.3187 19.5445 60.394 19.1506L60.4714 18.7418L60.2539 18.8519L60.1849 18.8858L59.9402 19.0108C59.6035 19.1866 58.997 19.5233 58.6644 19.8198C58.654 19.8707 58.6435 19.9173 58.6331 19.9618H58.6289ZM58.6038 20.4912L58.6372 20.7941C58.6853 21.2473 58.6791 21.7027 58.6121 22.1496C58.5808 22.372 58.5348 22.5986 58.4762 22.8252C58.4762 22.8295 58.4762 22.8316 58.4741 22.8358C58.5055 22.8231 58.5368 22.8104 58.5682 22.7977C58.7627 22.4906 59.0116 21.798 58.6916 20.4531C58.6665 20.4637 58.6352 20.4785 58.6059 20.4912H58.6038ZM58.3361 16.4798C58.3152 16.9394 58.2231 17.4012 58.0579 17.848C58.0056 17.9921 57.9471 18.1318 57.8843 18.2674C58.0412 18.225 58.1729 18.1996 58.2754 18.1827C58.5243 17.5769 58.5243 16.9225 58.5222 16.7975L58.3507 16.1452L58.3361 16.4777V16.4798ZM56.5103 18.8477C56.5939 18.8011 56.6755 18.7566 56.7529 18.7164C56.9097 18.566 57.1607 18.3013 57.2736 18.1636C57.4054 18.0048 57.533 17.829 57.6501 17.6447C57.8885 17.2741 58.0663 16.8738 58.1792 16.4544L58.2775 16.0859C57.9283 16.2109 57.2695 16.5074 56.5939 17.111C56.6797 17.8502 56.6065 18.4411 56.5082 18.8477H56.5103ZM56.2907 21.4422C56.4036 21.402 56.5082 21.3702 56.6023 21.3427L56.6483 21.2749C56.8867 20.936 57.1231 20.5527 57.3531 20.1397C57.5874 19.7182 57.7777 19.32 57.9366 18.9197L58.0098 18.7333C57.6626 18.8265 57.1544 19.0129 56.5605 19.3751C56.6023 20.2074 56.4329 20.9699 56.2886 21.4443L56.2907 21.4422ZM55.8996 17.3524C55.8996 17.7951 55.8494 18.2335 55.7511 18.6571C55.7093 18.8308 55.657 19.0023 55.5984 19.1696C55.7302 19.1252 55.8494 19.0934 55.9498 19.0701C56.0711 18.7249 56.2719 17.9264 56.0774 16.8335L56.0732 16.8145L56.0564 16.7594C56.0083 16.7848 55.9561 16.8166 55.8975 16.8505V17.3524H55.8996ZM53.9713 18.6783C54.0069 18.7842 54.0592 18.9536 54.1031 19.1506C54.1554 19.3878 54.1972 19.6652 54.1867 19.9279C54.2976 19.8389 54.4084 19.7584 54.5193 19.6864C54.6615 19.5233 54.925 19.1633 55.0212 19.0214C55.132 18.8583 55.2345 18.6825 55.3265 18.5004C55.5064 18.1361 55.6465 17.7421 55.7448 17.3334L55.8515 16.8801C55.3495 17.1851 54.5569 17.7718 53.9713 18.6783ZM50.7485 18.7503C50.9262 18.9451 51.1019 19.1421 51.2734 19.3454C51.3194 19.2099 51.3633 19.0722 51.4031 18.9345C51.4616 18.727 51.516 18.5152 51.562 18.3013C51.654 17.8756 51.7168 17.4393 51.7502 16.9987C51.7921 17.4372 51.8046 17.884 51.7837 18.3288C51.7753 18.547 51.7586 18.7651 51.7335 18.9833C51.813 18.8943 51.8925 18.8054 51.9719 18.7143H51.9636C52.0117 18.5554 52.0535 18.3818 52.089 18.2123C52.1267 18.0408 52.1581 17.8692 52.1873 17.6955C52.2438 17.3482 52.2815 16.9966 52.2982 16.6408C52.3547 16.9924 52.3923 17.3482 52.409 17.7083C52.4174 17.8586 52.4195 18.0111 52.4195 18.1636C52.4864 18.0768 52.5533 17.9921 52.614 17.901V17.8968H52.6098C52.6642 17.7316 52.7123 17.56 52.7583 17.3884C52.8043 17.2169 52.8461 17.0432 52.8817 16.8695C52.9172 16.6959 52.9507 16.5201 52.9695 16.3443C52.9883 16.1685 53.003 15.9885 52.9863 15.8106C53.0344 15.9842 53.0532 16.1664 53.0636 16.3485C53.0741 16.5307 53.0741 16.7128 53.0678 16.895C53.0636 17.0114 53.0553 17.1279 53.0469 17.2423C53.049 17.2381 53.0532 17.2338 53.0553 17.2275L53.1619 17.0538C53.1954 16.9945 53.2268 16.9352 53.2581 16.8759L53.4506 16.5159L53.6179 16.1452L53.7015 15.9588L53.7726 15.7661L53.9148 15.3806L53.8375 15.7873L53.7977 15.9906L53.7454 16.1918L53.6367 16.5942L53.5028 16.9903C53.4798 17.0559 53.4589 17.1237 53.4338 17.1894L53.3564 17.3821C53.3021 17.5113 53.254 17.6426 53.1954 17.7697L53.0365 18.1085C53.2163 17.9666 53.3397 17.8883 53.3439 17.8862L53.5781 17.7379L53.7559 18.1573C53.9922 17.8332 54.2516 17.5515 54.5067 17.3122C54.4251 16.124 54.1825 15.2112 54.055 14.794C53.7371 15.0439 53.0846 15.5331 52.2835 16.016C51.3842 16.5561 51.0559 17.6723 51.0538 17.6828L50.7505 18.7566L50.7485 18.7503ZM48.3601 16.4756C48.6821 16.7425 49 17.0178 49.3075 17.2995C49.2761 17.1618 49.2385 17.0242 49.1904 16.8928C49.1381 16.7488 49.0795 16.6069 48.9875 16.482C49.1025 16.5857 49.1924 16.7171 49.274 16.8526C49.3556 16.9882 49.4267 17.1279 49.4915 17.272C49.5145 17.3228 49.5354 17.3779 49.5564 17.4308C49.5773 17.2127 49.5961 16.9924 49.6045 16.77C49.6128 16.3655 49.594 15.9609 49.5354 15.5543C49.6797 15.9377 49.7906 16.3379 49.8722 16.7467C49.9474 17.1555 50.0018 17.5727 50.0332 17.9899C50.0332 17.9942 50.0332 17.9984 50.0332 18.0005C50.2423 18.2102 50.4473 18.4241 50.6481 18.6423L50.6815 17.6172C50.7317 16.0435 49.6735 14.8511 49.1945 14.3958C49.1025 14.741 48.9017 15.3531 48.4772 16.2087C48.4333 16.2977 48.3935 16.3867 48.358 16.4735L48.3601 16.4756ZM32.7373 4.74642C31.7271 3.70227 30.5266 3.88865 30.3698 4.89044C30.1732 6.15062 32.3943 6.57632 33.5529 8.55449C33.5529 8.55449 33.7474 5.79268 32.7373 4.74642ZM29.2342 6.61445C27.3372 6.51914 26.4191 8.05465 27.2139 9.41861C28.2136 11.1341 30.8843 9.08821 33.4065 10.2383C33.4065 10.2383 31.6644 6.73729 29.2342 6.61445ZM34.2493 8.55449C35.408 6.57632 37.627 6.15062 37.4325 4.89044C37.2777 3.88865 36.0751 3.70227 35.065 4.74642C34.0548 5.79056 34.2493 8.55449 34.2493 8.55449ZM34.3937 10.2361C36.918 9.08609 39.5887 11.132 40.5863 9.41649C41.381 8.05253 40.4629 6.51914 38.566 6.61233C36.1337 6.73305 34.3937 10.2361 34.3937 10.2361ZM34.5359 0.510522L34.6969 0.603711L34.7785 0.650306C34.8036 0.66725 34.8287 0.688429 34.8517 0.707491L34.9981 0.82186L35.1277 0.953173C35.293 1.13532 35.4331 1.34076 35.5272 1.5695C35.6234 1.79612 35.6903 2.03544 35.7301 2.27901C35.7677 2.52045 35.7844 2.77249 35.7698 3.01182L35.7593 3.16007L35.8911 3.08383C36.1379 2.93769 36.439 2.85933 36.7256 2.87627C36.8699 2.88686 37.01 2.92286 37.1418 2.97581C37.2045 3.0097 37.2735 3.03512 37.3321 3.07747L37.4241 3.13678L37.5057 3.20455C37.7274 3.38669 37.8654 3.6472 37.9177 3.93101C37.9679 4.21269 37.9428 4.52403 37.8633 4.79301L37.7755 5.09164L38.0515 4.96033C38.2293 4.87561 38.4259 4.81207 38.6267 4.76336C38.8253 4.71465 39.0303 4.68076 39.2332 4.66382C39.641 4.62781 40.0551 4.65323 40.4441 4.76124C40.831 4.86926 41.1907 5.06411 41.4668 5.34791C41.6069 5.4877 41.724 5.65078 41.8181 5.82657C41.9123 6.00236 41.9917 6.19086 42.0461 6.38783C42.0775 6.48525 42.0942 6.58479 42.1172 6.68434C42.1319 6.786 42.1507 6.88554 42.1549 6.98721C42.1737 7.19053 42.1674 7.39597 42.1444 7.59717C42.1235 7.8005 42.0838 8.00382 42.0273 8.20079C41.9708 8.39988 41.9018 8.59473 41.8161 8.78322C41.6487 9.16234 41.4333 9.52239 41.1844 9.85914C40.9377 10.1938 40.6595 10.5199 40.3625 10.7974L40.0614 11.077H40.4629L41.6195 11.0643L41.059 12.0173C40.6009 11.8818 40.1387 11.7695 39.6724 11.6763C39.1725 11.5789 38.6706 11.4984 38.1686 11.4307C37.6646 11.365 37.1606 11.3121 36.6566 11.2676C36.1525 11.2231 35.6464 11.1892 35.1403 11.1702C35.6443 11.2231 36.1463 11.2866 36.6482 11.3523C37.1501 11.4201 37.65 11.4984 38.1477 11.5874C38.6455 11.6785 39.1411 11.7716 39.6326 11.886C40.122 12.0025 40.6093 12.1317 41.0841 12.2905L41.1782 12.3223L41.2326 12.2355L42.0043 10.9922L42.1423 10.772H41.8809L40.8519 10.7614C41.0673 10.539 41.266 10.306 41.4522 10.0582C41.7136 9.70665 41.9436 9.32754 42.1256 8.92089C42.2176 8.71969 42.2929 8.50789 42.3556 8.29398C42.4184 8.08007 42.4644 7.85768 42.4874 7.63318C42.5146 7.40868 42.5167 7.18206 42.4958 6.95544C42.4895 6.84107 42.4686 6.73093 42.4518 6.61868C42.4267 6.50855 42.4079 6.3963 42.3703 6.28828C42.2448 5.85622 42.0294 5.43475 41.7031 5.10859C41.379 4.7803 40.9607 4.56004 40.5277 4.44779C40.0927 4.33553 39.6452 4.31647 39.2081 4.36095C38.8567 4.39907 38.5116 4.4732 38.1791 4.60451C38.1896 4.53039 38.1958 4.45626 38.2 4.38001C38.2063 4.21481 38.2 4.04538 38.1624 3.88018C38.0954 3.55189 37.9177 3.23208 37.6479 3.02876L37.5475 2.95251L37.4408 2.88898C37.3718 2.84238 37.2923 2.81697 37.2171 2.78096C37.0602 2.72589 36.8971 2.68989 36.7318 2.68354C36.4453 2.6793 36.1672 2.75131 35.9162 2.88898C35.9099 2.67506 35.889 2.46539 35.8451 2.25783C35.7928 2.00791 35.7112 1.76435 35.6004 1.53561C35.4916 1.30475 35.3369 1.09719 35.157 0.921403L35.0169 0.796444L34.8621 0.690547C34.837 0.673603 34.8098 0.654542 34.7847 0.639716L34.7011 0.599475L34.5338 0.516875L34.5359 0.510522ZM33.1576 3.79969C33.555 4.5198 33.8081 5.23778 33.8938 5.49405C33.8938 5.49405 34.2452 4.5198 34.6425 3.79969C35.1277 2.91651 34.8036 1.79188 33.9064 1.75164C33.9064 1.75164 33.9022 1.75164 33.9001 1.75164C33.898 1.75164 33.8959 1.75164 33.8938 1.75164C32.9966 1.79188 32.6724 2.91863 33.1576 3.80181V3.79969ZM26.4798 12.2334L26.5342 12.3202L26.6283 12.2884C27.103 12.1296 27.5903 12.0025 28.0797 11.8839C28.5712 11.7695 29.0668 11.6763 29.5646 11.5853C30.0624 11.4963 30.5622 11.4201 31.0641 11.3502C31.5661 11.2845 32.068 11.2189 32.572 11.168C32.0659 11.1871 31.5598 11.2189 31.0558 11.2655C30.5517 11.3099 30.0456 11.3629 29.5437 11.4285C29.0397 11.4942 28.5398 11.5768 28.04 11.6742C27.5736 11.7674 27.1114 11.8797 26.6534 12.0152L26.0929 11.0621L27.2494 11.0706H27.651L27.3498 10.7953C27.0507 10.5178 26.7726 10.1917 26.5279 9.85702C26.2811 9.52027 26.0657 9.16022 25.8963 8.78111C25.8105 8.59261 25.7415 8.39564 25.685 8.19867C25.6286 7.99958 25.5867 7.79838 25.5679 7.59506C25.5449 7.39173 25.5407 7.18629 25.5575 6.98509C25.5616 6.88343 25.5805 6.78388 25.5951 6.68222C25.6181 6.58268 25.6348 6.48313 25.6662 6.38571C25.7185 6.18874 25.798 6.00024 25.8942 5.82445C25.9883 5.64866 26.1075 5.48558 26.2455 5.3458C26.5237 5.06199 26.8813 4.86714 27.2682 4.75912C27.6572 4.65111 28.0713 4.62569 28.4792 4.6617C28.6841 4.67864 28.887 4.71253 29.0857 4.76124C29.2843 4.80784 29.4809 4.87138 29.6608 4.95821L29.9369 5.08952L29.849 4.79089C29.7696 4.52191 29.7445 4.21058 29.7947 3.92889C29.8469 3.64508 29.985 3.38458 30.2067 3.20243L30.2882 3.13466L30.3802 3.07536C30.4388 3.033 30.5078 3.00758 30.5706 2.97369C30.7044 2.92075 30.8445 2.88474 30.9868 2.87415C31.2712 2.85721 31.5744 2.93557 31.8212 3.08171L31.953 3.15796L31.9425 3.0097C31.9279 2.77037 31.9425 2.51834 31.9823 2.27689C32.022 2.03333 32.0889 1.794 32.1851 1.56738C32.2792 1.33864 32.4215 1.1332 32.5846 0.951055L32.7143 0.819742L32.8607 0.705373C32.8858 0.686311 32.9088 0.66725 32.9339 0.648188L33.0154 0.601593L33.1765 0.508404L33.0091 0.591003L32.9255 0.631245C32.8983 0.648188 32.8732 0.665132 32.8481 0.682075L32.6933 0.787973L32.5532 0.912932C32.3734 1.08872 32.2207 1.29628 32.1098 1.52714C31.999 1.75587 31.9174 1.99944 31.8651 2.24936C31.8233 2.45692 31.8003 2.66659 31.794 2.8805C31.5431 2.74284 31.267 2.67083 30.9784 2.67506C30.8132 2.68142 30.65 2.7153 30.4932 2.77249C30.4179 2.80849 30.3384 2.83603 30.2694 2.8805L30.1627 2.94404L30.0624 3.02029C29.7926 3.22361 29.6148 3.54342 29.5479 3.8717C29.5123 4.0369 29.5039 4.20422 29.5102 4.37154C29.5144 4.44779 29.5207 4.52191 29.5311 4.59604C29.1986 4.46473 28.8514 4.39272 28.5022 4.35248C28.0651 4.308 27.6175 4.32706 27.1825 4.43931C26.7496 4.54945 26.3313 4.76971 26.0071 5.10011C25.6809 5.42628 25.4634 5.84775 25.34 6.27981C25.3044 6.38783 25.2856 6.50008 25.2584 6.61021C25.2417 6.72246 25.2207 6.83471 25.2145 6.94696C25.1936 7.17358 25.1977 7.4002 25.2228 7.62471C25.2458 7.84921 25.2919 8.06948 25.3546 8.28551C25.4173 8.49942 25.4926 8.71121 25.5847 8.91242C25.7666 9.31695 25.9967 9.69606 26.2581 10.0498C26.4442 10.2976 26.6408 10.5326 26.8583 10.7529L25.8293 10.7614H25.5679L25.706 10.9838L26.4777 12.227L26.4798 12.2334ZM10.7817 23.4521C10.6604 22.9629 10.5893 22.3402 10.6436 21.565C10.6081 21.4761 10.5704 21.385 10.5349 21.2918C10.1668 20.9212 9.75898 20.6776 9.46618 20.5357L9.49546 20.7941C9.54566 21.2262 9.64813 21.6434 9.80081 22.0331C9.87401 22.2237 9.95975 22.4165 10.0581 22.6028C10.148 22.7723 10.4052 23.1514 10.5265 23.3145C10.6185 23.3632 10.7043 23.4098 10.7817 23.4521ZM9.76944 19.5932L9.75689 19.6059C9.81754 19.9321 9.89283 20.1481 9.9242 20.2328C10.0246 20.29 10.1312 20.3536 10.24 20.4277C10.2295 20.3917 10.217 20.3557 10.2065 20.3197C10.0664 19.8495 9.95766 19.392 9.88865 18.9621L9.84682 18.7016C9.77989 18.6867 9.71715 18.6719 9.66696 18.6635C9.67114 19.0214 9.70879 19.3264 9.7527 19.5742L9.77153 19.5932H9.76944ZM13.6344 23.1789C12.917 22.4016 11.8546 21.9907 11.2752 21.815L11.4677 22.2534C11.6852 22.7469 11.9131 23.1789 12.1662 23.575C12.4297 23.9816 12.6765 24.2972 12.9254 24.5598C13.1471 24.0896 13.3834 23.63 13.6344 23.1789ZM12.2624 21.6709C12.3063 21.69 12.3502 21.7112 12.3962 21.7324C12.3649 21.5905 12.3335 21.4401 12.3042 21.2791C12.231 20.8513 12.1829 20.4065 12.1641 19.9618L12.1474 19.6038C12.047 19.572 11.955 19.5488 11.8797 19.5297C11.8588 20.5167 12.1599 21.3977 12.2624 21.6709ZM13.7368 20.5124C13.2328 20.0338 12.6556 19.7711 12.2352 19.6292L12.321 19.9321C12.4381 20.3515 12.5803 20.7602 12.7413 21.1457C12.8313 21.3575 12.9191 21.546 13.009 21.7175C13.1261 21.942 13.2265 22.1094 13.3144 22.228L13.3667 22.3C13.4461 22.3593 13.5256 22.4207 13.6009 22.4842C13.5089 21.7705 13.5967 21.1266 13.6929 20.6946C13.7076 20.6289 13.7222 20.5675 13.7368 20.5124ZM15.0147 20.9847C14.8055 20.8343 14.5462 20.6797 14.222 20.54C14.1175 20.9127 13.9711 21.6243 14.0715 22.4207C14.3684 21.9293 14.6842 21.4507 15.0147 20.9847ZM15.799 19.9427C15.5166 19.2459 14.9331 18.71 14.6048 18.4517L14.4856 18.7355C14.4772 18.7566 14.1844 19.5445 14.2722 20.0486C14.3622 20.0846 14.45 20.1206 14.5316 20.1587C14.5232 20.0592 14.5148 19.9618 14.5127 19.8643C14.5044 19.5636 14.5316 19.2628 14.5943 18.9684L14.6884 18.5215L14.7491 18.9727C14.7867 19.2501 14.8557 19.5212 14.9561 19.7754C15.0042 19.9003 15.0586 20.0232 15.1213 20.1439C15.1527 20.2053 15.2531 20.3726 15.3493 20.5251C15.4957 20.3282 15.6463 20.1354 15.799 19.9427ZM17.2922 17.6172L17.311 18.2229C17.5306 17.9963 17.7565 17.7739 17.9845 17.5558C18.0159 17.2825 18.0514 17.0114 18.1016 16.7446C18.1832 16.3358 18.294 15.9355 18.4383 15.5522C18.3798 15.9588 18.3609 16.3655 18.3693 16.7679C18.3735 16.9056 18.3839 17.0411 18.3944 17.1767C18.4781 17.1025 18.5596 17.0263 18.6433 16.9521C18.6621 16.9183 18.6809 16.8823 18.6997 16.8505C18.7813 16.7171 18.8712 16.5857 18.9863 16.4798C18.9152 16.5773 18.8671 16.6853 18.8231 16.7975C19.0469 16.6048 19.2749 16.4142 19.5049 16.2299C19.5007 16.2236 19.4987 16.2172 19.4945 16.2087C19.0699 15.3552 18.8691 14.741 18.7771 14.3958C18.2982 14.8511 17.2399 16.0435 17.2901 17.6172H17.2922ZM13.4712 17.308C13.7264 17.5473 13.9836 17.8269 14.2199 18.1509L14.3977 17.7316L14.632 17.8798C14.632 17.8798 14.7595 17.9603 14.9394 18.1022L14.7804 17.7633C14.7219 17.6362 14.6738 17.5049 14.6194 17.3757L14.542 17.183C14.5169 17.1173 14.496 17.0517 14.473 16.9839L14.3392 16.5879L14.2304 16.1855L14.1781 15.9842L14.1384 15.7809L14.061 15.3743L14.2032 15.7597L14.2743 15.9525L14.358 16.1389L14.5253 16.5095L14.7156 16.8695C14.747 16.9289 14.7784 16.9903 14.8118 17.0475L14.9185 17.2211C14.9185 17.2211 14.9248 17.2296 14.9268 17.236C14.9185 17.1195 14.9101 17.003 14.9059 16.8865C14.8997 16.7043 14.8997 16.5222 14.9101 16.3401C14.9206 16.1579 14.9394 15.9758 14.9875 15.8021C14.9708 15.9821 14.9833 16.16 15.0042 16.3358C15.0251 16.5116 15.0565 16.6874 15.0921 16.8611C15.1276 17.0347 15.1694 17.2084 15.2155 17.38C15.2615 17.5515 15.3117 17.7231 15.3639 17.8883H15.3556L15.3577 17.8946C15.4183 17.9857 15.4853 18.0704 15.5522 18.1573C15.5522 18.0048 15.5543 17.8544 15.5626 17.7019C15.5815 17.3419 15.617 16.986 15.6735 16.6345C15.6923 16.9903 15.7299 17.3419 15.7843 17.6892C15.8115 17.8629 15.845 18.0344 15.8826 18.206C15.9203 18.3754 15.9621 18.5491 16.0081 18.7058H15.9997C16.0771 18.799 16.1566 18.8858 16.2382 18.9748C16.2152 18.7566 16.1963 18.5385 16.188 18.3203C16.167 17.8735 16.1796 17.4287 16.2214 16.9903C16.2549 17.4308 16.3176 17.865 16.4097 18.2928C16.4557 18.5067 16.5079 18.7164 16.5686 18.9261C16.5749 18.9494 16.5832 18.9706 16.5895 18.9939C16.7652 18.7948 16.9451 18.5978 17.1291 18.4051L16.922 17.6701C16.92 17.6595 16.5916 16.5434 15.6923 16.0033C14.8892 15.5204 14.2388 15.0333 13.9209 14.7813C13.7912 15.1985 13.5528 16.1134 13.4691 17.3016L13.4712 17.308ZM12.1244 16.8801L12.231 17.3334C12.3272 17.7443 12.4694 18.1361 12.6493 18.5004C12.7413 18.6825 12.8438 18.8583 12.9546 19.0214C13.0509 19.1633 13.3144 19.5233 13.4566 19.6864C13.5674 19.7584 13.6783 19.8389 13.7891 19.9279C13.7787 19.6652 13.8184 19.3878 13.8728 19.1506C13.9167 18.9515 13.969 18.7842 14.0045 18.6783C13.4189 17.7697 12.6263 17.1851 12.1244 16.8801ZM12.024 19.0701C12.1244 19.0955 12.2436 19.1273 12.3753 19.1696C12.3168 19.0023 12.2645 18.8308 12.2227 18.6571C12.1244 18.2335 12.0742 17.793 12.0742 17.3524V16.8505C12.0177 16.8166 11.9633 16.7848 11.9152 16.7594L11.8985 16.8145L11.8943 16.8335C11.6998 17.9264 11.9006 18.7249 12.0219 19.0701H12.024ZM11.4133 19.3751C10.8193 19.015 10.3111 18.8265 9.96394 18.7333L10.0371 18.9197C10.1961 19.32 10.3864 19.7182 10.6206 20.1397C10.8507 20.5527 11.087 20.936 11.3254 21.2749L11.3735 21.3427C11.4656 21.3702 11.5722 21.4041 11.6852 21.4422C11.5429 20.9699 11.3715 20.2053 11.4133 19.373V19.3751ZM9.69415 16.0859L9.79244 16.4544C9.90538 16.8738 10.0831 17.2741 10.3216 17.6447C10.4387 17.829 10.5663 18.0048 10.698 18.1636C10.813 18.3013 11.0619 18.566 11.2188 18.7164C11.2983 18.7566 11.3798 18.8011 11.4614 18.8477C11.3652 18.4411 11.2899 17.8502 11.3756 17.111C10.7001 16.5074 10.0413 16.213 9.69205 16.0859H9.69415ZM9.69833 18.1827C9.8029 18.1996 9.93257 18.225 10.0894 18.2674C10.0267 18.1297 9.96812 17.9921 9.91583 17.848C9.75061 17.4012 9.65859 16.9394 9.63768 16.4798L9.62304 16.1473L9.45154 16.7997C9.44945 16.9246 9.44945 17.5791 9.69833 18.1848V18.1827ZM9.33861 20.7941L9.37207 20.4912C9.34279 20.4785 9.31142 20.4637 9.28632 20.4531C8.96634 21.798 9.21521 22.4906 9.40971 22.7977C9.44109 22.8104 9.47246 22.8231 9.50383 22.8358C9.50383 22.8316 9.50174 22.8295 9.50174 22.8252C9.44108 22.5986 9.39507 22.3699 9.3658 22.1496C9.30096 21.7048 9.29259 21.2495 9.3407 20.7941H9.33861ZM8.5857 16.6239L8.61289 16.9161C8.64844 17.2974 8.707 17.6765 8.78648 18.0429C8.82412 18.2166 8.86804 18.4008 8.92242 18.5893C8.9747 18.7778 9.0228 18.9282 9.07091 19.0532C9.1211 19.0849 9.1692 19.1167 9.21731 19.1485C9.19639 18.9218 9.18803 18.6677 9.1943 18.3881L9.19848 18.2039C9.00607 17.6553 8.97888 17.1173 8.97679 16.8801C8.85131 16.7848 8.71328 16.6959 8.5857 16.6217V16.6239ZM8.10049 18.5046C8.15696 18.5343 8.23434 18.5724 8.33055 18.6232C8.32846 18.4347 8.33055 18.2547 8.33891 18.081C8.35565 17.6913 8.39747 17.2974 8.46022 16.9098L8.51459 16.5773C8.44558 16.537 8.38283 16.5031 8.33055 16.4756C8.17788 16.9077 7.92691 17.7951 8.10259 18.5025L8.10049 18.5046ZM7.50863 18.7418L7.58601 19.1506C7.6613 19.5466 7.82234 19.9406 8.08167 20.3536C8.1967 20.5357 8.32427 20.7136 8.46022 20.8809C8.53551 20.9741 8.6108 21.0631 8.684 21.1414C8.707 20.9297 8.74465 20.703 8.80112 20.4531C8.8283 20.3303 8.85967 20.2032 8.89732 20.0719L8.96215 19.8389L9.19221 19.9067C9.19221 19.9067 9.26122 19.9279 9.35116 19.9618C9.3407 19.9173 9.33024 19.8686 9.31978 19.8198C8.98516 19.5233 8.38074 19.1866 8.04403 19.0108L7.79933 18.8858L7.73032 18.8519L7.51281 18.7397L7.50863 18.7418ZM7.58601 20.9064C7.65921 20.9254 7.75123 20.9529 7.85162 20.9868C7.78678 20.8449 7.72613 20.6988 7.67385 20.5527C7.49817 20.0571 7.41451 19.589 7.42915 19.1612L7.44379 18.7079L7.32876 18.6486C7.24302 19.1781 7.14681 20.235 7.58601 20.9042V20.9064ZM7.14472 21.3045L7.43543 21.7641C7.69685 22.1792 7.99174 22.5562 8.30964 22.8888C8.4874 23.0709 8.65472 23.2213 8.82203 23.3547C8.88268 23.4013 8.94124 23.4437 8.99771 23.4839C9.00816 23.3335 9.0249 23.2064 9.03954 23.1154C8.88686 22.8993 8.72164 22.552 8.66936 22.0183C8.35983 21.6815 7.84534 21.4867 7.54418 21.3956L7.14472 21.3045ZM6.95649 21.2622C6.98996 21.7938 7.16773 22.8993 8.03148 23.8503C8.18833 23.8397 8.33682 23.8482 8.47486 23.8672C8.45185 23.8418 8.43094 23.8164 8.40793 23.791C8.25526 23.6089 8.10677 23.4077 7.95619 23.1726C7.69685 22.7617 7.47516 22.3106 7.2953 21.834L7.09034 21.2897L6.95859 21.2601L6.95649 21.2622ZM1.03154 22.8993L6.48593 20.8386L6.49639 20.667L6.77245 20.7306L6.94604 20.6649C6.8833 20.4785 6.84147 20.2858 6.81428 20.0931L1.02945 22.9015L1.03154 22.8993ZM9.83218 23.9435L9.56657 23.503L9.61886 23.8842C9.63559 24.0113 9.66068 24.1278 9.68996 24.2421C9.80917 24.2569 9.92629 24.2718 10.0476 24.2866C9.97439 24.1765 9.90329 24.0642 9.83218 23.9435ZM32.1182 5.8774C32.0513 5.82657 31.9823 5.77997 31.9132 5.7355C31.8421 5.69102 31.771 5.64443 31.7104 5.61054C31.5849 5.53429 31.4699 5.44958 31.3653 5.35427C31.2607 5.25896 31.1729 5.15094 31.1081 5.02175C31.0432 4.89467 31.0077 4.74218 31.0181 4.57486C30.9115 4.70829 30.8759 4.89679 30.8926 5.08105C30.9115 5.26531 30.9888 5.4411 31.0934 5.58936C31.198 5.73973 31.3277 5.86469 31.4657 5.97059L31.6623 6.11249C31.7271 6.15485 31.7878 6.20145 31.8484 6.24804C32.0952 6.43018 32.3357 6.6208 32.57 6.82412C32.8021 7.02956 33.0322 7.23924 33.2517 7.48916C33.1995 7.1524 33.028 6.84954 32.8314 6.57844C32.6285 6.30946 32.3859 6.07649 32.1182 5.8774ZM19.3397 24.9813C19.2853 25.0554 19.2331 25.1317 19.1808 25.2058C19.4213 25.2249 19.6639 25.2439 19.9086 25.2609C20.7995 23.6978 21.9351 22.2576 23.2799 21.025C21.7825 22.1094 20.4461 23.45 19.3376 24.9792L19.3397 24.9813ZM20.421 25.3011C20.6489 25.318 20.8769 25.3329 21.107 25.3498C21.887 24.0939 22.8407 22.9354 23.9366 21.9124C22.6253 22.8549 21.4332 23.9964 20.421 25.3011ZM46.6828 45.699C46.6263 46.0294 46.5322 46.4022 46.4025 46.8173C46.2728 47.2324 46.1097 47.6518 45.911 48.0733C45.4677 49.0221 44.9469 49.7803 44.3446 50.3501C43.6293 51.0236 42.8513 51.3624 42.0126 51.3624C41.174 51.3624 40.7432 51.0003 40.7181 50.2759C40.1178 51.0003 39.4507 51.3624 38.7145 51.3624C38.3318 51.3624 38.0285 51.2396 37.8047 50.996C37.627 50.7969 37.5538 50.4983 37.581 50.1023C36.6566 50.941 35.6945 51.3624 34.6906 51.3624C34.082 51.3624 33.6261 51.2036 33.3187 50.8859C33.0112 50.5682 32.9213 50.043 33.0489 49.308C33.2183 48.3211 33.6324 47.368 34.287 46.4446C34.7868 45.7414 35.3892 45.2395 36.0961 44.9408C36.46 44.7799 36.8239 44.7015 37.1857 44.7015C37.7775 44.7015 38.1582 44.8137 38.3318 45.0404C38.5054 45.267 38.5597 45.5656 38.4949 45.9405C38.3673 46.6775 37.9658 47.3045 37.2903 47.8212C36.6147 48.338 35.8786 48.6218 35.0838 48.6726C35.0211 48.9162 34.9813 49.0899 34.9625 49.1915C34.8851 49.6342 34.9123 49.9265 35.042 50.0663C35.1717 50.2082 35.3766 50.278 35.6548 50.278C36.1463 50.278 36.5771 50.1679 36.9514 49.9455C37.192 49.8015 37.4513 49.6151 37.7232 49.3843C37.7629 49.253 37.8089 49.1153 37.8654 48.9692L39.4507 44.8159H41.2932L39.6159 49.217C39.572 49.3271 39.5406 49.4372 39.5218 49.5452C39.4569 49.9244 39.5511 50.115 39.8041 50.115C40.2538 50.115 40.6616 49.7337 41.0255 48.9713L42.6108 44.818H44.4533L42.776 49.2191C42.6944 49.4266 42.6443 49.5812 42.6275 49.6871C42.5773 49.9731 42.6986 50.1171 42.9893 50.1171C43.3846 50.1171 43.8071 49.8481 44.2588 49.308C44.8653 48.5879 45.3568 47.6857 45.7312 46.6013C45.8336 46.2984 45.9048 46.0273 45.9466 45.7922C45.9173 45.8388 45.8525 45.8706 45.75 45.8875L45.6141 45.913C45.5764 45.9172 45.545 45.9193 45.5199 45.9193C45.3694 45.9193 45.269 45.8473 45.2146 45.7012C45.1602 45.555 45.1498 45.3962 45.179 45.2204C45.2083 45.0446 45.2982 44.8921 45.4488 44.7587C45.5994 44.6252 45.7814 44.5596 45.9989 44.5596C46.3356 44.5596 46.551 44.6676 46.6409 44.8858C46.733 45.1039 46.7497 45.3771 46.6932 45.7075L46.6828 45.699ZM35.2846 48.0479C35.7823 48.014 36.2529 47.7831 36.7005 47.3532C37.148 46.9232 37.4199 46.4213 37.5182 45.8494C37.5726 45.5381 37.4931 45.3814 37.2798 45.3814C36.9661 45.3898 36.6168 45.6694 36.2299 46.2201C35.843 46.7707 35.5272 47.3807 35.2825 48.05L35.2846 48.0479ZM27.4167 50.6212C27.3895 50.6466 27.3623 50.672 27.3352 50.6974C27.3017 50.7271 27.2682 50.7567 27.2327 50.7864C27.1051 50.8986 26.9713 51.0045 26.829 51.1019C26.6743 51.2057 26.507 51.2904 26.3271 51.354C25.7122 51.6357 24.9949 51.7966 24.2901 51.7437C23.4033 51.678 22.9202 51.1972 22.6839 50.8563C22.3848 50.5153 22.2677 50.0197 22.4496 49.5452L24.9426 43.0453L26.8771 42.7932L25.7812 45.663H25.8565C26.348 45.663 26.8165 45.4407 27.262 44.9938C27.7074 44.5469 27.973 44.0703 28.0609 43.5642C28.1696 42.9309 27.9417 42.5052 27.377 42.2807C27.1741 42.2044 26.9336 42.1663 26.6575 42.1663C26.3815 42.1663 26.1096 42.1938 25.844 42.251C25.5784 42.3082 25.319 42.3929 25.066 42.5073C24.5013 42.7636 24.0245 43.13 23.6334 43.6044C23.2444 44.0788 22.9913 44.6485 22.8763 45.3136C22.8177 45.6546 22.824 45.9193 22.8951 46.1036C22.9056 46.1375 22.9097 46.1671 22.9056 46.1925C22.2321 46.1925 21.8431 45.9829 21.7406 45.5614C21.7051 45.4089 21.7051 45.2246 21.7427 45.0044C21.8222 44.549 22.023 44.1191 22.3472 43.7124C22.6713 43.3058 23.075 42.9415 23.5602 42.6217C24.6352 41.9227 25.7729 41.5712 26.9754 41.5712C27.8664 41.5712 28.5084 41.7703 28.9016 42.1684C29.2948 42.5666 29.4412 43.0537 29.3408 43.6319C29.2739 44.0195 29.1003 44.3986 28.8201 44.7693C28.5398 45.1399 28.1675 45.4449 27.7074 45.6863C28.2052 45.7922 28.544 46.0337 28.7239 46.4128C28.9037 46.7919 28.9476 47.2451 28.8577 47.7725C28.8054 48.0796 28.6967 48.4481 28.5356 48.8781C28.2867 49.5304 27.9375 50.0832 27.4941 50.5343C27.469 50.5619 27.4418 50.5894 27.4146 50.6169L27.4167 50.6212ZM24.5055 49.0009C24.4741 49.2276 24.4804 49.4923 24.6101 49.793C24.8443 50.1044 25.0911 50.2611 25.3525 50.2611C25.8022 50.2611 26.187 49.9964 26.507 49.4648C26.7684 49.0348 26.9503 48.5244 27.0528 47.9356C27.2431 46.8364 26.9336 46.2857 26.1263 46.2857C25.9381 46.2857 25.7415 46.3005 25.5324 46.3302L24.5055 49.003V49.0009ZM33.9503 46.4361C34.149 46.2434 34.2744 45.9892 34.3288 45.6779C34.3602 45.4978 34.3184 45.3072 34.2033 45.1081C34.0883 44.9091 33.8813 44.8116 33.5843 44.8116C33.2873 44.8116 32.9945 44.8985 32.7101 45.07C32.4235 45.2437 32.1579 45.4237 31.9132 45.6143L32.2144 44.8116H30.3719L27.8977 51.2862H29.7403L31.6142 46.3683C31.8129 46.2031 31.9864 46.0803 32.1328 45.9977C32.2792 45.9151 32.4403 45.8748 32.616 45.8748C32.7038 45.8748 32.754 45.9066 32.7707 45.9723C32.7854 46.0379 32.7937 46.1269 32.7895 46.237C32.7875 46.3493 32.8146 46.4573 32.869 46.5653C32.9255 46.6733 33.0698 46.7262 33.304 46.7262C33.5383 46.7262 33.7516 46.6288 33.9503 46.4361Z" fill="#202020"/>
<path d="M34 25.9237C15.3196 25.9237 0 22.948 0 22.948V46.023C0 46.023 9.12272 44.2524 21.8698 43.4412C21.9096 43.3862 21.943 43.329 21.987 43.276C22.1919 43.0176 22.4324 42.7762 22.6959 42.5496C22.3132 42.5707 21.9305 42.5919 21.5457 42.6131C20.8555 42.6512 20.1653 42.7063 19.4752 42.7529C18.785 42.7995 18.0949 42.8482 17.4047 42.9096C14.6461 43.1257 11.8917 43.4073 9.14154 43.7335C6.39343 44.0618 3.64741 44.4345 0.918128 44.9047L0.907671 44.837C6.34115 43.6848 11.8436 42.9033 17.365 42.3695C19.4584 42.1599 21.5561 42.001 23.6559 41.8739C24.7162 41.2576 25.8477 40.942 27.0231 40.942C28.0018 40.942 28.7401 41.1729 29.2274 41.6219C30.8148 41.5795 32.4001 41.5541 33.9874 41.5372C36.7627 41.5668 39.538 41.6071 42.3092 41.7575C45.0803 41.8994 47.8493 42.0942 50.61 42.3717C56.1313 42.9054 61.6338 43.6869 67.0672 44.8391L67.0568 44.9068C64.3275 44.4388 61.5815 44.066 58.8334 43.7356C56.0832 43.4095 53.3288 43.1299 50.5702 42.9117C49.8801 42.8503 49.1899 42.8037 48.4997 42.755C47.8096 42.7084 47.1194 42.6533 46.4292 42.6152C45.0489 42.539 43.6665 42.4521 42.2841 42.4055C39.5192 42.2785 36.7523 42.2425 33.9874 42.2276C32.5632 42.2361 31.1369 42.2509 29.7126 42.2806C29.8318 42.5347 29.8946 42.8122 29.9008 43.1045C31.2477 43.0727 32.6071 43.0473 34 43.0473C52.6804 43.0473 68 46.023 68 46.023V22.948C68 22.948 52.6804 25.9237 34 25.9237ZM7.16934 37.8244C5.74509 37.8011 4.48398 37.1128 3.03881 37.1763C2.02657 37.1975 0.959956 37.4665 0.173587 38.0807C0.587685 36.7062 1.77142 35.8081 3.46755 35.7806C4.95245 35.7594 6.19893 36.4012 7.66501 36.4668C8.46811 36.5092 9.24193 36.4118 10.091 35.9056C9.81288 37.1234 8.65842 37.8498 7.16725 37.8244H7.16934ZM7.99545 35.0181C6.5712 34.9948 5.31008 34.3065 3.86492 34.3701C2.85268 34.3912 1.78606 34.6602 0.999692 35.2744C1.41379 33.8999 2.59753 33.0019 4.29366 32.9743C5.77856 32.9531 7.02503 33.5949 8.49111 33.6605C9.29421 33.7029 10.068 33.6055 10.9171 33.0993C10.639 34.3171 9.48453 35.0436 7.99336 35.0181H7.99545ZM1.8258 32.4681C2.2399 31.0936 3.42363 30.1956 5.11976 30.168C6.60466 30.1469 7.85114 30.7886 9.31722 30.8543C10.1203 30.8966 10.8941 30.7992 11.7432 30.293C11.4651 31.5108 10.3106 32.2373 8.81946 32.2119C7.39521 32.1886 6.1341 31.5002 4.68893 31.5638C3.67669 31.585 2.61008 31.8539 1.82371 32.4681H1.8258ZM14.1484 37.7778H10.4236L10.4884 37.511C11.256 37.511 11.5843 37.2844 11.7809 36.5452L13.2281 31.3689C13.3599 30.9242 13.4331 30.4963 12.8412 30.4286L12.5275 30.4053L12.5924 30.1384H17.961L18.1806 32.2669H17.9819C17.6096 30.6552 16.4259 30.5429 15.0017 30.5641L14.2362 33.2751H14.6294C15.7901 33.2751 17.367 33.7876 17.367 35.2681C17.367 36.8798 15.5705 37.7736 14.1463 37.7736L14.1484 37.7778ZM24.1599 37.7778H21.2466L21.3323 37.4644C21.9911 37.4644 22.1668 37.062 22.1898 36.4795L22.2547 35.5858H19.9541L19.471 36.344C19.2075 36.7718 18.7913 37.4644 19.7115 37.4644L19.6237 37.7778H17.39L17.4779 37.4644C18.0677 37.3733 18.4859 36.8608 18.7913 36.3885L22.6688 30.4773C23.1728 30.4307 23.7207 30.1871 24.2018 29.9859L23.7207 36.5452C23.6768 36.9688 23.6538 37.4623 24.2457 37.4623L24.1578 37.7757L24.1599 37.7778ZM34.6086 30.4095C33.8661 30.4095 33.5775 30.6573 33.383 31.371L31.919 36.5473C31.7392 37.2441 31.873 37.5343 32.6155 37.5131L32.5318 37.78H29.0266L29.1354 37.5131C29.859 37.5131 30.1874 37.2674 30.384 36.5473L31.8082 31.4388C31.919 31.0343 31.7643 30.5217 31.2623 30.4984C30.7123 30.4773 30.2313 30.8818 29.9029 31.7756L27.9767 36.8841C27.6923 37.6423 27.0774 37.9557 26.2011 37.9346C25.4566 37.9134 24.9317 37.3055 24.9317 36.5939C24.9317 36.0326 25.3709 35.626 25.787 35.6091C26.1802 35.5858 26.5755 35.8992 26.5755 36.2571C26.381 36.2571 25.9397 36.4096 25.9627 36.8375C25.9627 37.1276 26.2262 37.3733 26.5316 37.3966C26.7951 37.4199 27.2782 37.1064 27.4288 36.7252L29.3362 31.7078C29.5537 31.1508 29.7942 30.4095 28.874 30.4095L28.9639 30.1405H34.6797L34.6128 30.4095H34.6086ZM39.6719 30.4773L37.9402 36.5473C37.7206 37.3754 38.072 37.4644 38.7935 37.4644L38.7287 37.7778H34.937L34.9809 37.4644C35.7484 37.4644 36.1437 37.3521 36.3633 36.5473L38.1368 30.4773C37.1099 30.4984 35.8363 31.371 35.4012 32.3135H35.1377L35.8153 30.1405H42.146L41.5793 32.3135H41.3576C41.3576 31.3266 40.68 30.4773 39.674 30.4773H39.6719ZM49.6144 31.3689L48.1463 36.5452C47.9706 37.242 48.1233 37.511 48.8678 37.511L48.8009 37.7778H45.3626L45.4065 37.511C46.1092 37.511 46.4146 37.1975 46.6112 36.5452L47.8158 32.178L43.9614 36.5918C43.8526 37.242 44.0053 37.511 44.6181 37.511L44.5323 37.7778H41.115L41.1589 37.511C41.8177 37.4411 42.2757 37.1276 42.4284 36.5452L43.8756 31.3689C44.0701 30.6573 43.8965 30.4074 43.152 30.4074L43.2607 30.1384H46.699L46.6112 30.4074C45.9754 30.4074 45.5801 30.8543 45.4525 31.3689L44.2667 35.5159L48.1233 31.1931C48.299 30.6361 48.1024 30.4095 47.4226 30.4095L47.5105 30.1405H50.9509L50.863 30.4095C50.1185 30.4095 49.8089 30.6573 49.6144 31.371V31.3689ZM58.0282 37.7545H54.8722L54.9601 37.4623C55.3993 37.4623 55.6837 36.9921 55.4641 36.5918L54.1277 33.9909L53.5149 34.531L52.923 36.5452C52.7265 37.2187 52.9461 37.4411 53.5798 37.511L53.4919 37.7778H50.0306L50.0955 37.511C50.817 37.511 51.1454 37.242 51.344 36.5452L52.8143 31.3689C53.0109 30.6361 52.6825 30.4286 52.1116 30.4074L52.2015 30.1384H55.4871L55.4223 30.4074C54.7635 30.4286 54.546 30.8543 54.3912 31.3689L53.7554 33.5907L56.3404 31.46C56.7984 31.0788 57.4572 30.4519 56.3174 30.4074L56.4052 30.1384H58.8585L58.7706 30.4074C58.1348 30.4519 57.7186 30.8543 57.2794 31.2588L55.3742 32.9404L57.1477 36.5431C57.3673 36.99 57.522 37.4856 58.1118 37.4601L58.024 37.7524L58.0282 37.7545ZM65.3857 37.7778H62.4724L62.5602 37.4644C63.217 37.4644 63.3696 37.062 63.4156 36.4795L63.4805 35.5858H61.182L60.6989 36.344C60.4354 36.793 59.9983 37.4644 60.9394 37.4644L60.8307 37.7778H58.641L58.7288 37.4644C59.3186 37.3733 59.7138 36.8608 60.0192 36.3885L63.8967 30.4773C64.4216 30.4307 64.9465 30.1871 65.4297 29.9859L64.9486 36.5452C64.9047 36.9921 64.8629 37.4623 65.4736 37.4623L65.3857 37.7757V37.7778ZM50.612 26.3388C47.8514 26.6162 45.0824 26.809 42.3112 26.953C39.5401 27.0991 36.7648 27.1436 33.9895 27.1711C31.2142 27.1415 28.4389 27.1013 25.6678 26.9509C22.8967 26.809 20.1277 26.6141 17.367 26.3367C11.8457 25.803 6.34324 25.0214 0.909762 23.8714L0.920219 23.8036C3.6495 24.2717 6.39552 24.6444 9.14363 24.9748C11.8938 25.301 14.6482 25.5806 17.4068 25.7987C18.0969 25.8601 18.7871 25.9067 19.4773 25.9555C20.1674 26.002 20.8576 26.0571 21.5478 26.0952C22.9302 26.1715 24.3105 26.2583 25.6929 26.3049C28.4578 26.432 31.2247 26.468 33.9895 26.4828C36.7565 26.468 39.5234 26.432 42.2862 26.3049C43.6686 26.2562 45.0489 26.1715 46.4313 26.0952C47.1215 26.0571 47.8116 26.002 48.5018 25.9555C49.192 25.9089 49.8821 25.8601 50.5723 25.7987C53.3309 25.5827 56.0853 25.301 58.8355 24.9748C61.5836 24.6466 64.3296 24.2738 67.0589 23.8036L67.0693 23.8714C61.6358 25.0236 56.1334 25.8051 50.612 26.3388Z" fill="#202020"/>
<path d="M61.5746 35.0203H63.5029L63.7434 31.9556L63.5677 31.998L61.5746 35.0203Z" fill="#202020"/>
<path d="M20.3469 35.0203H22.2752L22.5157 31.9556L22.34 31.998L20.3469 35.0203Z" fill="#202020"/>
<path d="M14.3248 33.7007H14.0843L13.208 36.9475C13.1662 37.1508 13.2958 37.3499 13.5154 37.3499C14.7201 37.3499 15.793 36.2338 15.793 34.9355C15.793 34.1052 15.0944 33.7007 14.3269 33.7007H14.3248Z" fill="#202020"/>
</g>
<rect x="80" width="1" height="58" fill="#4A4A4A"/>
<path d="M94.9175 16.2979H93V4.17321H94.9175V9.71594H98.8397V4.17321H100.757V16.2979H98.8397V10.2356H94.9175V16.2979Z" fill="#4A4A4A"/>
<path d="M107.464 15.9515C108.858 15.9515 109.991 14.8256 109.991 10.2356C109.991 5.6455 108.858 4.51963 107.464 4.51963C106.069 4.51963 104.936 5.6455 104.936 10.2356C104.936 14.8256 106.069 15.9515 107.464 15.9515ZM107.638 4C110.079 4 111.996 5.90531 111.996 9.97575C111.996 14.1328 109.643 16.4711 107.289 16.4711C104.849 16.4711 102.931 14.5658 102.931 10.4954C102.931 6.33834 105.285 4 107.638 4Z" fill="#4A4A4A"/>
<path d="M116.879 16.2979H114.177V4.17321H116.705C119.93 4.17321 121.063 5.29908 121.063 6.94457C121.063 9.36952 118.361 9.88915 118.361 9.88915V9.97575C120.714 9.97575 121.847 11.1016 121.847 12.7471C121.847 14.8256 120.365 16.2979 116.879 16.2979ZM116.095 4.69284V9.80254H116.618C118.274 9.80254 119.058 9.0231 119.058 7.29099C119.058 5.47229 118.274 4.69284 116.618 4.69284H116.095ZM116.879 10.3222H116.095V15.7783H116.879C118.884 15.7783 119.755 14.9122 119.755 13.0069C119.755 11.1882 118.884 10.3222 116.879 10.3222Z" fill="#4A4A4A"/>
<path d="M127.943 15.9515C129.337 15.9515 130.47 14.8256 130.47 10.2356C130.47 5.6455 129.337 4.51963 127.943 4.51963C126.548 4.51963 125.415 5.6455 125.415 10.2356C125.415 14.8256 126.548 15.9515 127.943 15.9515ZM128.117 4C130.558 4 132.475 5.90531 132.475 9.97575C132.475 14.1328 130.122 16.4711 127.768 16.4711C125.328 16.4711 123.411 14.5658 123.411 10.4954C123.411 6.33834 125.764 4 128.117 4Z" fill="#4A4A4A"/>
<path d="M134.656 16.2979V4.17321H141.28V5.55889L136.574 4.60624V9.71594L140.757 9.36952V10.4954L136.574 10.149V15.8649L141.28 14.9988V16.2979H134.656Z" fill="#4A4A4A"/>
<path d="M94.9175 35.0624H93V22.9376H94.9175V33.2437H95.0047L98.9268 22.9376H100.844V35.0624H98.9268V24.7564H98.8397L94.9175 35.0624Z" fill="#4A4A4A"/>
<path d="M107.549 23.2841C106.241 23.2841 105.021 24.4965 105.021 29C105.021 33.2436 106.329 34.5427 107.723 34.5427C109.641 34.5427 110.338 31.7714 110.338 31.7714L110.861 31.9446C110.861 31.9446 110.164 35.2356 107.375 35.2356C104.934 35.2356 103.017 33.3303 103.017 29.2598C103.017 25.0162 105.283 22.7644 107.723 22.7644C109.641 22.7644 110.861 23.9769 110.861 25.8822V26.7483H109.118V26.0554C109.118 24.0635 108.333 23.2841 107.549 23.2841Z" fill="#4A4A4A"/>
<path d="M118.272 35.0624L115.396 29H114.699V35.0624H112.781V22.9376H114.699V28.4804H115.657C116.616 24.4099 117.575 22.7644 118.621 22.7644C119.231 22.7644 119.667 23.1975 119.667 24.4099V25.709H117.924V24.9296C117.924 24.4099 117.836 24.3233 117.662 24.3233C117.488 24.3233 117.052 25.276 116.616 27.1813L120.364 35.0624H118.272Z" fill="#4A4A4A"/>
<path d="M127.685 22.9376H128.993L125.681 30.3857C124.025 34.1097 123.24 34.8891 121.846 35.3222L121.148 33.3303C122.804 33.157 123.746 32.8279 124.548 31.2517L120.277 22.9376H122.456L125.506 29H125.594L127.685 22.9376Z" fill="#4A4A4A"/>
<path d="M133.867 23.2841C132.56 23.2841 131.339 24.4965 131.339 29C131.339 33.2436 132.647 34.5427 134.041 34.5427C135.959 34.5427 136.656 31.7714 136.656 31.7714L137.179 31.9446C137.179 31.9446 136.482 35.2356 133.693 35.2356C131.252 35.2356 129.335 33.3303 129.335 29.2598C129.335 25.0162 131.601 22.7644 134.041 22.7644C135.959 22.7644 137.179 23.9769 137.179 25.8822V26.7483H135.436V26.0554C135.436 24.0635 134.651 23.2841 133.867 23.2841Z" fill="#4A4A4A"/>
<path d="M143.196 23.2841C141.888 23.2841 140.668 24.4965 140.668 29C140.668 33.2436 141.975 34.5427 143.37 34.5427C145.288 34.5427 145.985 31.7714 145.985 31.7714L146.508 31.9446C146.508 31.9446 145.811 35.2356 143.021 35.2356C140.581 35.2356 138.663 33.3303 138.663 29.2598C138.663 25.0162 140.93 22.7644 143.37 22.7644C145.288 22.7644 146.508 23.9769 146.508 25.8822V26.7483H144.765V26.0554C144.765 24.0635 143.98 23.2841 143.196 23.2841Z" fill="#4A4A4A"/>
<path d="M152.437 35.0624H150.52V23.3707L147.382 24.6697V22.9376H155.575V24.6697L152.437 23.3707V35.0624Z" fill="#4A4A4A"/>
<path d="M159.846 35.0624H157.144V22.9376H159.672C162.896 22.9376 164.03 24.0635 164.03 25.709C164.03 28.1339 161.328 28.6536 161.328 28.6536V28.7402C163.681 28.7402 164.814 29.8661 164.814 31.5115C164.814 33.5901 163.332 35.0624 159.846 35.0624ZM159.061 23.4573V28.567H159.584C161.24 28.567 162.025 27.7875 162.025 26.0554C162.025 24.2367 161.24 23.4573 159.584 23.4573H159.061ZM159.846 29.0866H159.061V34.5427H159.846C161.851 34.5427 162.722 33.6767 162.722 31.7714C162.722 29.9527 161.851 29.0866 159.846 29.0866Z" fill="#4A4A4A"/>
<path d="M170.91 34.7159C172.304 34.7159 173.437 33.5901 173.437 29C173.437 24.4099 172.304 23.2841 170.91 23.2841C169.515 23.2841 168.382 24.4099 168.382 29C168.382 33.5901 169.515 34.7159 170.91 34.7159ZM171.084 22.7644C173.525 22.7644 175.442 24.6697 175.442 28.7402C175.442 32.8972 173.089 35.2356 170.735 35.2356C168.295 35.2356 166.377 33.3303 166.377 29.2598C166.377 25.1028 168.731 22.7644 171.084 22.7644Z" fill="#4A4A4A"/>
<path d="M94.9175 53.8268H93V41.7021H100.583V53.8268H98.6654V42.2217H94.9175V53.8268Z" fill="#4A4A4A"/>
<path d="M105.114 53.8268H103.197V41.7021H105.114V52.0081H105.202L109.124 41.7021H111.041V53.8268H109.124V43.5208H109.037L105.114 53.8268Z" fill="#4A4A4A"/>
<path d="M116.351 53.8268H113.649V41.7021H116.177C119.402 41.7021 120.535 42.8279 120.535 44.4734C120.535 46.8984 117.833 47.418 117.833 47.418V47.5046C120.186 47.5046 121.319 48.6305 121.319 50.276C121.319 52.3545 119.838 53.8268 116.351 53.8268ZM115.567 42.2217V47.3314H116.09C117.746 47.3314 118.53 46.552 118.53 44.8199C118.53 43.0012 117.746 42.2217 116.09 42.2217H115.567ZM116.351 47.851H115.567V53.3072H116.351C118.356 53.3072 119.228 52.4411 119.228 50.5358C119.228 48.7171 118.356 47.851 116.351 47.851Z" fill="#4A4A4A"/>
<path d="M127.415 53.4804C128.81 53.4804 129.943 52.3545 129.943 47.7644C129.943 43.1744 128.81 42.0485 127.415 42.0485C126.021 42.0485 124.887 43.1744 124.887 47.7644C124.887 52.3545 126.021 53.4804 127.415 53.4804ZM127.589 41.5289C130.03 41.5289 131.947 43.4342 131.947 47.5046C131.947 51.6617 129.594 54 127.241 54C124.8 54 122.883 52.0947 122.883 48.0243C122.883 43.8672 125.236 41.5289 127.589 41.5289Z" fill="#4A4A4A"/>
<path d="M136.83 53.8268H134.128V41.7021H136.656C139.881 41.7021 141.014 42.8279 141.014 44.4734C141.014 46.8984 138.312 47.418 138.312 47.418V47.5046C140.665 47.5046 141.798 48.6305 141.798 50.276C141.798 52.3545 140.317 53.8268 136.83 53.8268ZM136.046 42.2217V47.3314H136.569C138.225 47.3314 139.009 46.552 139.009 44.8199C139.009 43.0012 138.225 42.2217 136.569 42.2217H136.046ZM136.83 47.851H136.046V53.3072H136.83C138.835 53.3072 139.707 52.4411 139.707 50.5358C139.707 48.7171 138.835 47.851 136.83 47.851Z" fill="#4A4A4A"/>
<path d="M146.064 42.1351L147.633 41.5289H147.72L151.206 53.8268H149.202L148.243 50.2933H144.669L143.885 53.8268H142.665L146.064 42.1351ZM146.238 43.1744L144.791 49.7564H148.103L146.325 43.1744H146.238Z" fill="#4A4A4A"/>
<path d="M154.601 53.8268H152.684V41.7021H155.473C158.524 41.7021 160.005 43.1744 160.005 45.3741C160.005 47.5912 158.175 49.4099 154.863 49.4099H154.601V53.8268ZM154.601 42.2217V48.8903H154.95C156.868 48.8903 158.001 47.7644 158.001 45.5127C158.001 43.1744 156.868 42.2217 154.95 42.2217H154.601Z" fill="#4A4A4A"/>
<path d="M161.928 53.8268V41.7021H168.552V43.0878L163.845 42.1351V47.2448L168.029 46.8984V48.0243L163.845 47.6778V53.3938L168.552 52.5277V53.8268H161.928Z" fill="#4A4A4A"/>
<path d="M172.561 53.8268H170.643V41.7021H172.561V47.2448H176.483V41.7021H178.401V53.8268H176.483V47.7644H172.561V53.8268Z" fill="#4A4A4A"/>
<path d="M182.928 53.8268H181.011V41.7021H182.928V52.0081H183.015L186.938 41.7021H188.855V53.8268H186.938V43.5208H186.85L182.928 53.8268Z" fill="#4A4A4A"/>
<path d="M190.679 53.8268L193.206 48.2841C191.986 47.9376 190.94 46.8984 190.94 45.2529C190.94 43.2263 192.648 41.7021 195.647 41.7021H198V53.8268H196.082V48.6305H195.124L192.77 53.8268H190.679ZM196.082 48.1109V42.2217H195.821C194.008 42.2217 192.945 43.2263 192.945 45.1663C192.945 47.0716 194.06 48.1109 195.821 48.1109H196.082Z" fill="#4A4A4A"/>
<defs>
<clipPath id="clip0_1119_4768">
<rect width="68" height="58" fill="white"/>
</clipPath>
</defs>
</svg>
