<svg width="56" height="36" viewBox="0 0 56 36" fill="none" xmlns="http://www.w3.org/2000/svg">
<path d="M18 0.5H38C47.665 0.5 55.5 8.33502 55.5 18C55.5 27.665 47.665 35.5 38 35.5H18C8.33502 35.5 0.5 27.665 0.5 18C0.5 8.33502 8.33502 0.5 18 0.5Z" fill="#4F555B"/>
<path d="M18 0.5H38C47.665 0.5 55.5 8.33502 55.5 18C55.5 27.665 47.665 35.5 38 35.5H18C8.33502 35.5 0.5 27.665 0.5 18C0.5 8.33502 8.33502 0.5 18 0.5Z" stroke="#4F555B"/>
<path fill-rule="evenodd" clip-rule="evenodd" d="M22.2858 15.7649L22.2849 15.7678H22.282L22.2858 15.7649Z" fill="white"/>
<path d="M32.645 13.5923C30.6175 13.5038 28.8937 12.6388 26.8402 12.6674C24.4958 12.7045 22.8593 13.9137 22.2858 15.7649C23.3729 14.939 24.8462 14.5773 26.2444 14.5487C28.243 14.4631 29.987 15.3909 31.9566 15.4224C34.0188 15.4566 35.6153 14.4774 36 12.8358C34.8257 13.5181 33.7556 13.6494 32.645 13.5923Z" fill="white"/>
<path d="M30.8171 19.2051C28.8474 19.1737 27.1034 18.2459 25.1048 18.3315C23.705 18.3601 22.2299 18.7226 21.1424 19.5506C21.7151 17.6977 23.3521 16.4872 25.6978 16.4501C27.7513 16.4216 29.4751 17.2866 31.5025 17.3751C32.6132 17.4322 33.6833 17.3009 34.8576 16.6186C34.4729 18.2601 32.8764 19.2394 30.8142 19.2051H30.8171Z" fill="white"/>
<path d="M29.6746 22.9879C27.705 22.9565 25.961 22.0286 23.9624 22.1143C22.5625 22.1428 21.0875 22.5054 20 23.3333C20.5727 21.4805 22.2097 20.27 24.5553 20.2329C26.6088 20.2043 28.3326 21.0694 30.3601 21.1579C31.4707 21.215 32.5409 21.0837 33.7151 20.4013C33.3304 22.0429 31.7339 23.0221 29.6717 22.9879H29.6746Z" fill="white"/>
</svg>
