<svg width="40" height="40" viewBox="0 0 40 40" fill="none" xmlns="http://www.w3.org/2000/svg">
<path d="M20 0.5C30.7696 0.5 39.5 9.23045 39.5 20C39.5 30.7696 30.7696 39.5 20 39.5C9.23045 39.5 0.5 30.7696 0.5 20C0.5 9.23045 9.23045 0.5 20 0.5Z" stroke="#4F555B" stroke-opacity="0.2"/>
<g clip-path="url(#clip0_1234_713)">
<path d="M20 32C26.6274 32 32 26.6274 32 20C32 13.3726 26.6274 8 20 8C13.3726 8 8 13.3726 8 20C8 26.6274 13.3726 32 20 32Z" fill="#4F555B"/>
<path fill-rule="evenodd" clip-rule="evenodd" d="M14.7458 20.0487C17.4262 18.8809 19.2135 18.111 20.1078 17.739C22.6612 16.677 23.1918 16.4925 23.5376 16.4864C23.6137 16.4851 23.7838 16.5039 23.8939 16.5933C23.987 16.6688 24.0125 16.7707 24.0248 16.8423C24.037 16.9139 24.0523 17.0769 24.0402 17.2042C23.9018 18.6581 23.3031 22.1863 22.9985 23.8147C22.8696 24.5037 22.6158 24.7347 22.3701 24.7573C21.8362 24.8064 21.4307 24.4044 20.9136 24.0654C20.1043 23.535 19.6471 23.2048 18.8616 22.6871C17.9539 22.0889 18.5423 21.7601 19.0597 21.2228C19.1951 21.0822 21.5476 18.9423 21.5932 18.7482C21.5989 18.7239 21.6042 18.6334 21.5504 18.5856C21.4966 18.5378 21.4173 18.5542 21.36 18.5672C21.2789 18.5856 19.9861 19.4401 17.4817 21.1306C17.1148 21.3826 16.7824 21.5053 16.4846 21.4989C16.1563 21.4918 15.5248 21.3133 15.0553 21.1607C14.4795 20.9735 14.0219 20.8746 14.0617 20.5567C14.0825 20.3911 14.3105 20.2218 14.7458 20.0487Z" fill="white"/>
</g>
<defs>
<clipPath id="clip0_1234_713">
<rect width="24" height="24" fill="white" transform="translate(8 8)"/>
</clipPath>
</defs>
</svg>
