<svg width="40" height="40" viewBox="0 0 40 40" fill="none" xmlns="http://www.w3.org/2000/svg">
<rect x="0.5" y="0.5" width="39" height="39" rx="19.5" stroke="#4F555B"/>
<g clip-path="url(#clip0_1153_3510)">
<path d="M23.0909 12.623C20.0555 18.353 19.8729 18.081 19.7474 18.8219L19.5496 19.9958C19.4773 20.4253 19.2986 20.8368 19.0285 21.1912L13.3647 28.6284C13.0756 29.0077 12.5887 29.2082 12.0942 29.1509C10.5613 28.9719 9.13486 27.9984 8.4692 26.6993C8.25238 26.2769 8.29803 25.7759 8.58712 25.3965L14.2509 17.9557C14.521 17.6014 14.8748 17.3115 15.2856 17.1075L16.4001 16.5528C17.1038 16.202 16.769 16.1269 21.558 11.5815C21.596 11.4097 21.596 11.3203 21.6949 11.2952C21.8091 11.2701 21.946 11.2594 21.9346 11.1306L21.9194 10.9659C21.9118 10.8979 21.9688 10.8371 22.0411 10.8371C22.2123 10.8335 22.5432 10.88 23.0148 11.195C23.4827 11.5135 23.6387 11.7963 23.6881 11.9502C23.7109 12.0146 23.6653 12.0826 23.5968 12.1005L23.4257 12.1398C23.2963 12.1721 23.3306 12.2973 23.3382 12.4047C23.342 12.5049 23.2507 12.5335 23.0909 12.623ZM16.5789 12.1398C16.7082 12.1721 16.674 12.2973 16.6663 12.4047C16.6587 12.5013 16.7462 12.53 16.9098 12.6194C17.2103 13.1885 17.4918 13.711 17.7542 14.1942C17.7809 14.2407 17.8417 14.2479 17.8797 14.2121C18.3058 13.7826 18.8155 13.2744 19.4203 12.6874C19.4697 12.6373 19.4735 12.5622 19.4241 12.5121C19.1198 12.2186 18.7965 11.9072 18.4503 11.5779C18.4123 11.4097 18.4123 11.3167 18.3134 11.2916C18.1993 11.263 18.0623 11.2558 18.0737 11.127C18.0852 11.0089 18.127 10.8371 17.9672 10.8335C17.7961 10.8299 17.4651 10.8729 16.9935 11.1914C16.5256 11.5099 16.3696 11.7927 16.3202 11.9466C16.2669 12.0969 16.4571 12.1112 16.5789 12.1398ZM31.4098 25.3929L25.7498 17.9522C25.2477 17.29 24.738 17.1147 23.6044 16.5528C23.1784 16.3416 23.0643 16.1627 22.4443 15.5184C22.4062 15.4791 22.334 15.4862 22.3073 15.5363C20.5462 18.7145 20.5158 18.4998 20.4435 18.9292C20.3788 19.3122 20.394 19.645 20.4549 19.9958C20.5272 20.4253 20.706 20.8368 20.976 21.1912L26.6399 28.6319C26.9289 29.0113 27.4082 29.2117 27.8989 29.158C29.4318 28.9827 30.8659 28.0128 31.5391 26.7028C31.7445 26.2769 31.7027 25.7759 31.4098 25.3929Z" fill="#4F555B"/>
</g>
<defs>
<clipPath id="clip0_1153_3510">
<rect width="23.3333" height="18.3333" fill="white" transform="translate(8.3335 10.8333)"/>
</clipPath>
</defs>
</svg>
