<svg width="48" height="48" viewBox="0 0 48 48" fill="none" xmlns="http://www.w3.org/2000/svg">
<rect x="0.5" y="0.5" width="47" height="47" rx="23.5" stroke="white"/>
<g clip-path="url(#clip0_1153_3319)">
<path d="M27.7089 15.1476C24.0664 22.0236 23.8473 21.6972 23.6967 22.5863L23.4593 23.995C23.3726 24.5103 23.1581 25.0042 22.834 25.4294L16.0374 34.354C15.6905 34.8093 15.1062 35.0498 14.5128 34.9811C12.6733 34.7664 10.9616 33.5982 10.1628 32.0391C9.90266 31.5324 9.95744 30.9311 10.3043 30.4758L17.1009 21.5469C17.425 21.1217 17.8495 20.7738 18.3425 20.529L19.6799 19.8633C20.5243 19.4425 20.1227 19.3523 25.8694 13.8979C25.9151 13.6917 25.9151 13.5843 26.0337 13.5543C26.1707 13.5242 26.335 13.5113 26.3213 13.3567L26.303 13.1591C26.2939 13.0775 26.3624 13.0045 26.4491 13.0045C26.6545 13.0002 27.0516 13.0561 27.6176 13.434C28.1791 13.8162 28.3662 14.1555 28.4255 14.3402C28.4529 14.4175 28.3982 14.4991 28.316 14.5206L28.1106 14.5678C27.9554 14.6065 27.9965 14.7568 28.0056 14.8857C28.0102 15.0059 27.9006 15.0403 27.7089 15.1476ZM19.8944 14.5678C20.0496 14.6065 20.0085 14.7568 19.9994 14.8857C19.9903 15.0016 20.0953 15.036 20.2915 15.1433C20.6521 15.8262 20.9899 16.4533 21.3049 17.0331C21.3368 17.0889 21.4099 17.0975 21.4555 17.0545C21.9667 16.5392 22.5784 15.9293 23.3041 15.2249C23.3635 15.1648 23.368 15.0746 23.3087 15.0145C22.9435 14.6623 22.5556 14.2887 22.1402 13.8936C22.0945 13.6917 22.0945 13.58 21.9759 13.55C21.8389 13.5156 21.6746 13.507 21.6883 13.3524C21.702 13.2107 21.7522 13.0045 21.5605 13.0002C21.3551 12.9959 20.958 13.0475 20.392 13.4297C19.8305 13.812 19.6434 14.1512 19.584 14.3359C19.5201 14.5163 19.7484 14.5335 19.8944 14.5678ZM37.6916 30.4715L30.8995 21.5426C30.297 20.7481 29.6854 20.5376 28.3251 19.8633C27.8139 19.61 27.677 19.3952 26.9329 18.6221C26.8873 18.5749 26.8006 18.5835 26.7686 18.6436C24.6552 22.4574 24.6187 22.1997 24.532 22.7151C24.4544 23.1746 24.4727 23.5741 24.5457 23.995C24.6324 24.5103 24.847 25.0042 25.171 25.4294L31.9676 34.3583C32.3145 34.8136 32.8897 35.0541 33.4785 34.9897C35.318 34.7792 37.0388 33.6153 37.8467 32.0434C38.0932 31.5324 38.043 30.9311 37.6916 30.4715Z" fill="white"/>
</g>
<defs>
<clipPath id="clip0_1153_3319">
<rect width="28" height="22" fill="white" transform="translate(10 13)"/>
</clipPath>
</defs>
</svg>
