<svg width="700" height="148" viewBox="0 0 700 148" fill="none" xmlns="http://www.w3.org/2000/svg">
<g opacity="0.1">
<path d="M10.9176 59.4118V36.2185L11.6734 37.479C11.3375 37.591 10.8336 37.7031 10.1617 37.8151C9.54589 37.8711 8.90203 37.8992 8.23018 37.8992C5.59876 37.8992 3.55521 36.9468 2.09953 35.042C0.699845 33.0812 0 30.112 0 26.1345V0.588233H3.6112V26.3025C3.6112 29.1597 4.0591 31.2885 4.9549 32.6891C5.8507 34.0336 7.16641 34.7059 8.90203 34.7059C9.34993 34.7059 9.82582 34.6779 10.3297 34.6218C10.8336 34.5098 11.1695 34.3978 11.3375 34.2857L10.9176 35.8824V0.588233H14.5288V59.4118H10.9176Z" fill="black"/>
<path d="M23.4794 59.4118V0.588233H28.9382C31.9615 0.588233 34.285 1.54061 35.9086 3.44538C37.5322 5.35014 38.3441 8.15126 38.3441 11.8487V23.8655C38.3441 27.563 37.5322 30.3641 35.9086 32.2689C34.285 34.1737 31.9615 35.126 28.9382 35.126H27.0906V59.4118H23.4794ZM28.9382 31.8487C30.8977 31.8487 32.3534 31.2325 33.3052 30C34.257 28.7675 34.7329 26.7227 34.7329 23.8655V11.8487C34.7329 8.99159 34.257 6.94678 33.3052 5.71428C32.3534 4.48179 30.8977 3.86555 28.9382 3.86555H27.0906V31.8487H28.9382Z" fill="black"/>
<path d="M45.951 59.4118V0.588233H58.3802V4.03361H49.5621V27.9832H57.4564V31.3445H49.5621V55.9664H58.5482V59.4118H45.951Z" fill="black"/>
<path d="M70.4446 60C68.0372 60 66.1896 59.1316 64.9019 57.395C63.6142 55.6583 62.9703 53.1092 62.9703 49.7479V41.9328H66.5815V49.916C66.5815 52.3249 66.8894 54.0616 67.5053 55.126C68.1212 56.1905 69.1009 56.7227 70.4446 56.7227C71.7884 56.7227 72.7681 56.1905 73.384 55.126C73.9999 54.0616 74.3078 52.3249 74.3078 49.916V39.5798C74.3078 36.4986 73.8039 34.2857 72.7961 32.9412C71.7884 31.5966 70.1367 30.9244 67.8412 30.9244H65.8257V27.6471H67.5893C69.9408 27.6471 71.5924 27.0028 72.5442 25.7143C73.552 24.3697 74.0558 22.1849 74.0558 19.1597V9.7479C74.0558 7.39496 73.7479 5.7423 73.1321 4.78991C72.5722 3.78151 71.6764 3.27731 70.4446 3.27731C69.1569 3.27731 68.2051 3.78151 67.5893 4.78991C67.0294 5.7423 66.7495 7.39496 66.7495 9.7479V16.4706H63.1383V9.91596C63.1383 6.66667 63.7541 4.20168 64.9859 2.52101C66.2176 0.840335 68.0372 0 70.4446 0C72.8521 0 74.6437 0.840335 75.8195 2.52101C77.0512 4.14566 77.667 6.61064 77.667 9.91596V19.1597C77.667 21.6807 77.2751 23.8095 76.4913 25.5462C75.7075 27.2269 74.5597 28.4314 73.0481 29.1597C74.6717 29.944 75.8754 31.2045 76.6593 32.9412C77.4991 34.6218 77.919 36.8347 77.919 39.5798V49.7479C77.919 53.1092 77.2751 55.6583 75.9874 57.395C74.6997 59.1316 72.8521 60 70.4446 60Z" fill="black"/>
<path d="M83.5713 59.4118L85.251 0.588233H89.702L94.237 31.5966C94.7409 35.126 95.1608 38.4034 95.4967 41.4286H95.6647C95.8326 39.972 96.0286 38.4034 96.2525 36.7227C96.4765 35.042 96.7284 33.3333 97.0084 31.5966L101.711 0.588233H106.162L107.59 59.4118H103.979L103.391 23.7815C103.335 22.437 103.307 21.0644 103.307 19.6639C103.307 18.2073 103.307 16.7787 103.307 15.3781C103.307 14.0336 103.307 12.7451 103.307 11.5126C103.307 10.2801 103.307 9.15966 103.307 8.15126H103.055L97.0923 47.9832H93.901L88.1063 8.15126H87.9384C87.9384 9.15966 87.9384 10.2801 87.9384 11.5126C87.9384 12.6891 87.9384 13.9216 87.9384 15.2101C87.9384 16.7787 87.9384 18.2913 87.9384 19.7479C87.9384 21.2045 87.9104 22.549 87.8544 23.7815L87.1825 59.4118H83.5713Z" fill="black"/>
<path d="M115.498 59.4118V0.588233H127.927V4.03361H119.109V27.9832H127.004V31.3445H119.109V55.9664H128.095V59.4118H115.498Z" fill="black"/>
<path d="M134.197 59.4118V0.588233H139.656C142.679 0.588233 145.003 1.54061 146.626 3.44538C148.25 5.35014 149.062 8.15126 149.062 11.8487V23.8655C149.062 27.563 148.25 30.3641 146.626 32.2689C145.003 34.1737 142.679 35.126 139.656 35.126H137.808V59.4118H134.197ZM139.656 31.8487C141.615 31.8487 143.071 31.2325 144.023 30C144.975 28.7675 145.451 26.7227 145.451 23.8655V11.8487C145.451 8.99159 144.975 6.94678 144.023 5.71428C143.071 4.48179 141.615 3.86555 139.656 3.86555H137.808V31.8487H139.656Z" fill="black"/>
<path d="M156.669 59.4118V0.588233H160.28V27.8992H168.762V0.588233H172.373V59.4118H168.762V31.3445H160.28V59.4118H156.669Z" fill="black"/>
<path d="M188.747 60C186.171 60 184.212 59.1316 182.868 57.395C181.524 55.6583 180.853 53.0812 180.853 49.6639V10.4202C180.853 8.12325 181.161 6.19048 181.776 4.62185C182.392 3.05322 183.288 1.90476 184.464 1.17647C185.64 0.392157 187.067 0 188.747 0C191.266 0 193.198 0.896359 194.542 2.68908C195.885 4.42577 196.557 7.0028 196.557 10.4202V49.6639C196.557 51.9048 196.249 53.8095 195.633 55.3782C195.018 56.9468 194.122 58.1232 192.946 58.9076C191.77 59.6359 190.371 60 188.747 60ZM188.747 56.7227C190.203 56.7227 191.266 56.1905 191.938 55.126C192.61 54.0616 192.946 52.2969 192.946 49.8319V10.2521C192.946 7.78711 192.582 6.02241 191.854 4.95798C191.182 3.83753 190.147 3.27731 188.747 3.27731C187.291 3.27731 186.199 3.83753 185.472 4.95798C184.8 6.02241 184.464 7.78711 184.464 10.2521V49.8319C184.464 52.2409 184.8 54.0056 185.472 55.126C186.199 56.1905 187.291 56.7227 188.747 56.7227Z" fill="black"/>
<path d="M205.056 59.4118V0.588233H217.486V4.03361H208.668V27.9832H216.562V31.3445H208.668V55.9664H217.654V59.4118H205.056Z" fill="black"/>
<path d="M236.137 60C235.745 60 235.381 59.972 235.046 59.916C234.71 59.8599 234.458 59.8039 234.29 59.7479V56.3866C234.85 56.5546 235.353 56.6387 235.801 56.6387C236.977 56.6387 237.873 56.1625 238.489 55.2101C239.161 54.2577 239.721 52.493 240.168 49.916L240.672 47.0588L240.756 50.5882L233.114 0.588233H236.725L242.1 40.5042H242.268L247.307 0.588233H250.666L243.612 50.084C243.332 52.2689 242.856 54.0896 242.184 55.5462C241.512 57.0028 240.672 58.1232 239.665 58.9076C238.657 59.6359 237.481 60 236.137 60Z" fill="black"/>
<path d="M256.315 59.4118V0.588233H271.599V59.4118H267.988V4.03361H259.926V59.4118H256.315Z" fill="black"/>
<path d="M287.983 60C285.407 60 283.448 59.1316 282.104 57.395C280.76 55.6583 280.088 53.0812 280.088 49.6639V10.4202C280.088 8.12325 280.396 6.19048 281.012 4.62185C281.628 3.05322 282.524 1.90476 283.7 1.17647C284.875 0.392157 286.303 0 287.983 0C290.502 0 292.434 0.896359 293.777 2.68908C295.121 4.42577 295.793 7.0028 295.793 10.4202V49.6639C295.793 51.9048 295.485 53.8095 294.869 55.3782C294.253 56.9468 293.358 58.1232 292.182 58.9076C291.006 59.6359 289.606 60 287.983 60ZM287.983 56.7227C289.438 56.7227 290.502 56.1905 291.174 55.126C291.846 54.0616 292.182 52.2969 292.182 49.8319V10.2521C292.182 7.78711 291.818 6.02241 291.09 4.95798C290.418 3.83753 289.382 3.27731 287.983 3.27731C286.527 3.27731 285.435 3.83753 284.707 4.95798C284.036 6.02241 283.7 7.78711 283.7 10.2521V49.8319C283.7 52.2409 284.036 54.0056 284.707 55.126C285.435 56.1905 286.527 56.7227 287.983 56.7227Z" fill="black"/>
<path d="M304.292 59.4118V0.588233H309.751C312.774 0.588233 315.098 1.54061 316.721 3.44538C318.345 5.35014 319.157 8.15126 319.157 11.8487V23.8655C319.157 27.563 318.345 30.3641 316.721 32.2689C315.098 34.1737 312.774 35.126 309.751 35.126H307.903V59.4118H304.292ZM309.751 31.8487C311.711 31.8487 313.166 31.2325 314.118 30C315.07 28.7675 315.546 26.7227 315.546 23.8655V11.8487C315.546 8.99159 315.07 6.94678 314.118 5.71428C313.166 4.48179 311.711 3.86555 309.751 3.86555H307.903V31.8487H309.751Z" fill="black"/>
<path d="M328.211 59.4118V4.03361H322.416V0.588233H337.617V4.03361H331.822V59.4118H328.211Z" fill="black"/>
<path d="M343.084 59.4118V0.588233H348.543C351.566 0.588233 353.89 1.54061 355.514 3.44538C357.137 5.35014 357.949 8.15126 357.949 11.8487V23.8655C357.949 27.563 357.137 30.3641 355.514 32.2689C353.89 34.1737 351.566 35.126 348.543 35.126H346.696V59.4118H343.084ZM348.543 31.8487C350.503 31.8487 351.958 31.2325 352.91 30C353.862 28.7675 354.338 26.7227 354.338 23.8655V11.8487C354.338 8.99159 353.862 6.94678 352.91 5.71428C351.958 4.48179 350.503 3.86555 348.543 3.86555H346.696V31.8487H348.543Z" fill="black"/>
<path d="M365.556 59.4118V0.588233H377.985V4.03361H369.167V27.9832H377.061V31.3445H369.167V55.9664H378.153V59.4118H365.556Z" fill="black"/>
<path d="M384.255 59.4118V0.588233H398.112V3.94958H387.866V23.4454H389.714C392.737 23.4454 395.033 24.3978 396.6 26.3025C398.224 28.2073 399.036 31.0084 399.036 34.7059V48.1513C399.036 50.6162 398.672 52.6891 397.944 54.3697C397.216 56.0504 396.152 57.3109 394.753 58.1513C393.353 58.9916 391.673 59.4118 389.714 59.4118H384.255ZM389.714 56.1345C391.673 56.1345 393.101 55.5182 393.997 54.2857C394.949 52.9972 395.424 50.9524 395.424 48.1513V34.7059C395.424 31.8487 394.949 29.8039 393.997 28.5714C393.101 27.3389 391.673 26.7227 389.714 26.7227H387.866V56.1345H389.714Z" fill="black"/>
<path d="M401.549 59.7479V56.0504H402.137C403.257 56.0504 404.125 55.5182 404.74 54.4538C405.356 53.3333 405.776 51.2885 406 48.3193C406.28 45.3501 406.42 40.7563 406.42 34.5378V0.588233H420.529V59.4118H416.918V4.03361H410.031V40C410.031 45.3221 409.779 49.3837 409.275 52.1849C408.772 54.93 407.96 56.8908 406.84 58.0672C405.72 59.1877 404.153 59.7479 402.137 59.7479H401.549Z" fill="black"/>
<path d="M429.444 59.4118V0.588233H441.873V4.03361H433.055V27.9832H440.95V31.3445H433.055V55.9664H442.041V59.4118H429.444Z" fill="black"/>
<path d="M448.143 59.4118V0.588233H451.754V27.8992H460.236V0.588233H463.848V59.4118H460.236V31.3445H451.754V59.4118H448.143Z" fill="black"/>
<path d="M472.747 59.4118V0.588233H476.358V34.8739C476.358 37.563 476.302 40.4762 476.19 43.6134C476.078 46.7507 475.966 49.4118 475.854 51.5966H476.106L486.1 0.588233H490.383V59.4118H486.772V25.126C486.772 22.6611 486.8 19.888 486.856 16.8067C486.968 13.6695 487.108 10.8403 487.276 8.31933H487.108L477.03 59.4118H472.747Z" fill="black"/>
<path d="M499.319 59.4118V0.588233H511.749V4.03361H502.93V27.9832H510.825V31.3445H502.93V55.9664H511.917V59.4118H499.319Z" fill="black"/>
<path d="M527.965 59.4118L535.355 0.588233H539.806L546.441 59.4118H542.914L541.318 44.7899H533.172L531.492 59.4118H527.965ZM533.592 41.3445H540.898L538.546 18.4034C538.099 14.2577 537.791 10.4762 537.623 7.05882H537.287C537.007 10.7563 536.643 14.5378 536.195 18.4034L533.592 41.3445Z" fill="black"/>
<path d="M548.845 59.7479V56.0504H549.433C550.552 56.0504 551.42 55.5182 552.036 54.4538C552.652 53.3333 553.072 51.2885 553.296 48.3193C553.576 45.3501 553.716 40.7563 553.716 34.5378V0.588233H567.824V59.4118H564.213V4.03361H557.327V40C557.327 45.3221 557.075 49.3837 556.571 52.1849C556.067 54.93 555.255 56.8908 554.135 58.0672C553.016 59.1877 551.448 59.7479 549.433 59.7479H548.845Z" fill="black"/>
<path d="M576.74 59.4118V0.588233H580.351V28.4034H583.626L590.429 0.588233H593.956L586.817 29.6639L594.628 59.4118H590.932L583.626 31.5126H580.351V59.4118H576.74Z" fill="black"/>
<path d="M606.768 60C604.192 60 602.233 59.1316 600.889 57.395C599.545 55.6583 598.873 53.0812 598.873 49.6639V10.4202C598.873 8.12325 599.181 6.19048 599.797 4.62185C600.413 3.05322 601.309 1.90476 602.485 1.17647C603.66 0.392157 605.088 0 606.768 0C609.287 0 611.219 0.896359 612.562 2.68908C613.906 4.42577 614.578 7.0028 614.578 10.4202V49.6639C614.578 51.9048 614.27 53.8095 613.654 55.3782C613.038 56.9468 612.142 58.1232 610.967 58.9076C609.791 59.6359 608.391 60 606.768 60ZM606.768 56.7227C608.223 56.7227 609.287 56.1905 609.959 55.126C610.631 54.0616 610.967 52.2969 610.967 49.8319V10.2521C610.967 7.78711 610.603 6.02241 609.875 4.95798C609.203 3.83753 608.167 3.27731 606.768 3.27731C605.312 3.27731 604.22 3.83753 603.492 4.95798C602.82 6.02241 602.485 7.78711 602.485 10.2521V49.8319C602.485 52.2409 602.82 54.0056 603.492 55.126C604.22 56.1905 605.312 56.7227 606.768 56.7227Z" fill="black"/>
<path d="M623.077 59.4118V0.588233H635.422V4.03361H626.688V59.4118H623.077Z" fill="black"/>
<path d="M646.79 60C644.215 60 642.255 59.1316 640.911 57.395C639.568 55.6583 638.896 53.0812 638.896 49.6639V10.4202C638.896 8.12325 639.204 6.19048 639.82 4.62185C640.435 3.05322 641.331 1.90476 642.507 1.17647C643.683 0.392157 645.11 0 646.79 0C649.309 0 651.241 0.896359 652.585 2.68908C653.928 4.42577 654.6 7.0028 654.6 10.4202V49.6639C654.6 51.9048 654.292 53.8095 653.676 55.3782C653.061 56.9468 652.165 58.1232 650.989 58.9076C649.813 59.6359 648.414 60 646.79 60ZM646.79 56.7227C648.246 56.7227 649.309 56.1905 649.981 55.126C650.653 54.0616 650.989 52.2969 650.989 49.8319V10.2521C650.989 7.78711 650.625 6.02241 649.897 4.95798C649.225 3.83753 648.19 3.27731 646.79 3.27731C645.334 3.27731 644.242 3.83753 643.515 4.95798C642.843 6.02241 642.507 7.78711 642.507 10.2521V49.8319C642.507 52.2409 642.843 54.0056 643.515 55.126C644.242 56.1905 645.334 56.7227 646.79 56.7227Z" fill="black"/>
<path d="M658.332 59.7479V56.0504H658.92C660.04 56.0504 660.908 55.5182 661.523 54.4538C662.139 53.3333 662.559 51.2885 662.783 48.3193C663.063 45.3501 663.203 40.7563 663.203 34.5378V0.588233H677.312V59.4118H673.701V4.03361H666.814V40C666.814 45.3221 666.562 49.3837 666.058 52.1849C665.555 54.93 664.743 56.8908 663.623 58.0672C662.503 59.1877 660.936 59.7479 658.92 59.7479H658.332Z" fill="black"/>
<path d="M689.166 32.605C687.991 31.7647 687.067 30.5322 686.395 28.9076C685.779 27.2269 685.471 25.2661 685.471 23.0252V11.8487C685.471 9.38375 685.835 7.31092 686.563 5.63025C687.291 3.94958 688.355 2.68907 689.754 1.84874C691.154 1.0084 692.862 0.588233 694.877 0.588233H700V59.4118H696.389V34.2857C695.269 34.2857 694.317 34.2577 693.534 34.2017C692.806 34.1457 692.05 34.0336 691.266 33.8655L692.778 32.6891L687.487 59.4118H683.708L689.166 32.605ZM694.877 31.0084H696.389V3.86555H694.877C692.862 3.86555 691.378 4.48179 690.426 5.71428C689.53 6.94678 689.082 8.99159 689.082 11.8487V23.0252C689.082 25.8263 689.53 27.8711 690.426 29.1597C691.378 30.3922 692.862 31.0084 694.877 31.0084Z" fill="black"/>
<path d="M1 139.648V80.5906H8.64542C13.0142 80.5906 16.3717 81.5467 18.718 83.4591C21.0642 85.3714 22.2373 88.1836 22.2373 91.8958V100.164C22.2373 102.47 21.6709 104.438 20.5383 106.069C19.4865 107.701 17.9494 108.882 15.9268 109.613C18.1112 110.288 19.7697 111.469 20.9024 113.156C22.1159 114.787 22.7227 116.812 22.7227 119.231V128.342C22.7227 132.055 21.5496 134.867 19.2034 136.779C16.8572 138.691 13.4997 139.648 9.13084 139.648H1ZM9.13084 136.357C12.0434 136.357 14.1469 135.739 15.4413 134.501C16.8167 133.208 17.5044 131.155 17.5044 128.342V119.146C17.5044 116.447 16.8167 114.478 15.4413 113.241C14.1469 111.947 12.0434 111.3 9.13084 111.3H6.2183V136.357H9.13084ZM8.64542 108.094C11.558 108.094 13.6615 107.476 14.9559 106.238C16.3313 104.945 17.019 102.92 17.019 100.164V91.8958C17.019 89.0273 16.3313 86.9744 14.9559 85.737C13.6615 84.4996 11.558 83.8809 8.64542 83.8809H6.2183V108.094H8.64542Z" fill="black"/>
<path d="M33.7092 139.648V80.5906H41.5973C45.9661 80.5906 49.3236 81.5467 51.6699 83.4591C54.0161 85.3714 55.1892 88.1836 55.1892 91.8958V103.96C55.1892 107.672 54.0161 110.485 51.6699 112.397C49.3236 114.309 45.9661 115.266 41.5973 115.266H38.9275V139.648H33.7092ZM41.5973 111.975C44.429 111.975 46.5325 111.356 47.9078 110.119C49.2832 108.882 49.9709 106.829 49.9709 103.96V91.8958C49.9709 89.0273 49.2832 86.9744 47.9078 85.737C46.5325 84.4996 44.429 83.8809 41.5973 83.8809H38.9275V111.975H41.5973Z" fill="black"/>
<path d="M66.1814 139.648V80.5906H84.142V84.0496H71.3997V108.094H82.8071V111.469H71.3997V136.189H84.3847V139.648H66.1814Z" fill="black"/>
<path d="M87.4983 148V136.189H89.6827C90.8962 134.445 91.9075 131.633 92.7166 127.752C93.5256 123.871 94.1324 118.584 94.5369 111.891C94.9414 105.141 95.1437 96.5922 95.1437 86.2432V80.5906H114.561V136.189H118.929V148H113.711V139.648H92.7166V148H87.4983ZM94.7796 136.189H109.342V84.0496H100.362V86.8337C100.362 100.895 99.8361 112.116 98.7844 120.496C97.8135 128.821 96.4786 134.051 94.7796 136.189Z" fill="black"/>
<path d="M128.044 139.648V80.5906H133.263V115.012C133.263 117.712 133.182 120.637 133.02 123.787C132.858 126.936 132.696 129.608 132.535 131.801H132.899L147.34 80.5906H153.529V139.648H148.311V105.226C148.311 102.751 148.351 99.9669 148.432 96.8735C148.594 93.7237 148.796 90.8834 149.039 88.3524H148.796L134.234 139.648H128.044Z" fill="black"/>
<path d="M169.719 139.648V84.0496H161.345V80.5906H183.311V84.0496H174.937V139.648H169.719Z" fill="black"/>
<path d="M206.855 139.648V80.5906H214.5C218.869 80.5906 222.226 81.5467 224.573 83.4591C226.919 85.3714 228.092 88.1836 228.092 91.8958V100.164C228.092 102.47 227.526 104.438 226.393 106.069C225.341 107.701 223.804 108.882 221.781 109.613C223.966 110.288 225.624 111.469 226.757 113.156C227.971 114.787 228.577 116.812 228.577 119.231V128.342C228.577 132.055 227.404 134.867 225.058 136.779C222.712 138.691 219.354 139.648 214.985 139.648H206.855ZM214.985 136.357C217.898 136.357 220.001 135.739 221.296 134.501C222.671 133.208 223.359 131.155 223.359 128.342V119.146C223.359 116.447 222.671 114.478 221.296 113.241C220.001 111.947 217.898 111.3 214.985 111.3H212.073V136.357H214.985ZM214.5 108.094C217.413 108.094 219.516 107.476 220.811 106.238C222.186 104.945 222.874 102.92 222.874 100.164V91.8958C222.874 89.0273 222.186 86.9744 220.811 85.737C219.516 84.4996 217.413 83.8809 214.5 83.8809H212.073V108.094H214.5Z" fill="black"/>
<path d="M234.738 139.648L245.417 80.5906H251.849L261.436 139.648H256.339L254.034 124.968H242.262L239.835 139.648H234.738ZM242.869 121.509H253.427L250.029 98.4764C249.382 94.3143 248.937 90.5178 248.694 87.0868H248.209C247.804 90.799 247.278 94.5955 246.631 98.4764L242.869 121.509Z" fill="black"/>
<path d="M270.614 139.648V80.5906H275.832V136.189H286.754V80.5906H291.972V136.189H302.895V80.5906H308.113V139.648H270.614Z" fill="black"/>
<path d="M320.981 139.648V80.5906H338.942V84.0496H326.2V108.094H337.607V111.469H326.2V136.189H339.185V139.648H320.981Z" fill="black"/>
<path d="M346.546 139.648L348.973 80.5906H355.405L361.958 111.722C362.686 115.266 363.293 118.556 363.778 121.593H364.021C364.264 120.131 364.547 118.556 364.87 116.868C365.194 115.181 365.558 113.466 365.963 111.722L372.758 80.5906H379.19L381.253 139.648H376.035L375.186 103.876C375.105 102.526 375.064 101.148 375.064 99.7419C375.064 98.2796 375.064 96.8453 375.064 95.4392C375.064 94.0893 375.064 92.7957 375.064 91.5583C375.064 90.3209 375.064 89.196 375.064 88.1836H374.7L366.084 128.174H361.472L353.099 88.1836H352.856C352.856 89.196 352.856 90.3209 352.856 91.5583C352.856 92.7395 352.856 93.9768 352.856 95.2705C352.856 96.8453 352.856 98.3639 352.856 99.8263C352.856 101.289 352.816 102.639 352.735 103.876L351.764 139.648H346.546Z" fill="black"/>
<path d="M391.374 140.238C390.808 140.238 390.282 140.21 389.797 140.154C389.311 140.098 388.947 140.041 388.704 139.985V136.61C389.513 136.779 390.242 136.864 390.889 136.864C392.588 136.864 393.882 136.385 394.772 135.429C395.743 134.473 396.552 132.701 397.199 130.114L397.927 127.246L398.049 130.789L387.005 80.5906H392.224L399.991 120.665H400.233L407.515 80.5906H412.369L402.175 130.283C401.77 132.476 401.083 134.304 400.112 135.767C399.141 137.229 397.927 138.354 396.471 139.141C395.015 139.873 393.316 140.238 391.374 140.238Z" fill="black"/>
<path d="M444.548 140.238C441.069 140.238 438.399 139.366 436.539 137.623C434.678 135.879 433.747 133.32 433.747 129.945V122.099H438.966V130.114C438.966 132.533 439.411 134.276 440.301 135.345C441.191 136.414 442.606 136.948 444.548 136.948C446.49 136.948 447.906 136.414 448.796 135.345C449.685 134.276 450.13 132.533 450.13 130.114V119.737C450.13 116.644 449.402 114.422 447.946 113.072C446.49 111.722 444.103 111.047 440.786 111.047H437.873V107.757H440.422C443.82 107.757 446.207 107.11 447.582 105.816C449.038 104.466 449.766 102.273 449.766 99.2357V89.7866C449.766 87.4243 449.321 85.7651 448.431 84.8089C447.622 83.7965 446.328 83.2903 444.548 83.2903C442.687 83.2903 441.312 83.7965 440.422 84.8089C439.613 85.7651 439.208 87.4243 439.208 89.7866V96.536H433.99V89.9553C433.99 86.6931 434.88 84.2184 436.66 82.531C438.44 80.8437 441.069 80 444.548 80C448.027 80 450.616 80.8437 452.315 82.531C454.095 84.1621 454.985 86.6369 454.985 89.9553V99.2357C454.985 101.767 454.418 103.904 453.286 105.648C452.153 107.335 450.494 108.544 448.31 109.275C450.656 110.063 452.396 111.328 453.528 113.072C454.742 114.759 455.349 116.981 455.349 119.737V129.945C455.349 133.32 454.418 135.879 452.558 137.623C450.697 139.366 448.027 140.238 444.548 140.238Z" fill="black"/>
<path d="M459.269 139.985V136.273H460.119C461.737 136.273 462.991 135.739 463.881 134.67C464.771 133.545 465.377 131.492 465.701 128.511C466.105 125.53 466.308 120.918 466.308 114.675V80.5906H486.695V139.648H481.477V84.0496H471.526V120.159C471.526 125.502 471.162 129.58 470.434 132.392C469.706 135.148 468.533 137.117 466.914 138.298C465.296 139.423 463.031 139.985 460.119 139.985H459.269Z" fill="black"/>
<path d="M510.379 140.238C506.657 140.238 503.826 139.366 501.884 137.623C499.942 135.879 498.971 133.292 498.971 129.861V90.4615C498.971 88.1555 499.416 86.215 500.306 84.6402C501.196 83.0653 502.491 81.9123 504.19 81.1811C505.889 80.3937 507.952 80 510.379 80C514.02 80 516.811 80.8999 518.752 82.6998C520.694 84.4433 521.665 87.0306 521.665 90.4615V129.861C521.665 132.111 521.22 134.023 520.33 135.598C519.44 137.173 518.146 138.354 516.447 139.141C514.748 139.873 512.725 140.238 510.379 140.238ZM510.379 136.948C512.482 136.948 514.02 136.414 514.99 135.345C515.961 134.276 516.447 132.505 516.447 130.03V90.2928C516.447 87.818 515.921 86.0463 514.869 84.9777C513.898 83.8528 512.401 83.2903 510.379 83.2903C508.275 83.2903 506.698 83.8528 505.646 84.9777C504.675 86.0463 504.19 87.818 504.19 90.2928V130.03C504.19 132.448 504.675 134.22 505.646 135.345C506.698 136.414 508.275 136.948 510.379 136.948Z" fill="black"/>
<path d="M533.947 139.648V80.5906H541.835C546.203 80.5906 549.561 81.5467 551.907 83.4591C554.253 85.3714 555.427 88.1836 555.427 91.8958V103.96C555.427 107.672 554.253 110.485 551.907 112.397C549.561 114.309 546.203 115.266 541.835 115.266H539.165V139.648H533.947ZM541.835 111.975C544.666 111.975 546.77 111.356 548.145 110.119C549.521 108.882 550.208 106.829 550.208 103.96V91.8958C550.208 89.0273 549.521 86.9744 548.145 85.737C546.77 84.4996 544.666 83.8809 541.835 83.8809H539.165V111.975H541.835Z" fill="black"/>
<path d="M577.219 140.238C573.498 140.238 570.666 139.366 568.724 137.623C566.783 135.879 565.812 133.292 565.812 129.861V90.4615C565.812 88.1555 566.257 86.215 567.147 84.6402C568.037 83.0653 569.331 81.9123 571.03 81.1811C572.729 80.3937 574.792 80 577.219 80C580.86 80 583.651 80.8999 585.593 82.6998C587.535 84.4433 588.505 87.0306 588.505 90.4615V129.861C588.505 132.111 588.061 134.023 587.171 135.598C586.281 137.173 584.986 138.354 583.287 139.141C581.588 139.873 579.566 140.238 577.219 140.238ZM577.219 136.948C579.323 136.948 580.86 136.414 581.831 135.345C582.802 134.276 583.287 132.505 583.287 130.03V90.2928C583.287 87.818 582.761 86.0463 581.71 84.9777C580.739 83.8528 579.242 83.2903 577.219 83.2903C575.116 83.2903 573.538 83.8528 572.487 84.9777C571.516 86.0463 571.03 87.818 571.03 90.2928V130.03C571.03 132.448 571.516 134.22 572.487 135.345C573.538 136.414 575.116 136.948 577.219 136.948Z" fill="black"/>
<path d="M600.787 139.648V80.5906H608.432C612.801 80.5906 616.159 81.5467 618.505 83.4591C620.851 85.3714 622.024 88.1836 622.024 91.8958V100.164C622.024 102.47 621.458 104.438 620.325 106.069C619.274 107.701 617.736 108.882 615.714 109.613C617.898 110.288 619.557 111.469 620.689 113.156C621.903 114.787 622.51 116.812 622.51 119.231V128.342C622.51 132.055 621.337 134.867 618.99 136.779C616.644 138.691 613.287 139.648 608.918 139.648H600.787ZM608.918 136.357C611.83 136.357 613.934 135.739 615.228 134.501C616.604 133.208 617.292 131.155 617.292 128.342V119.146C617.292 116.447 616.604 114.478 615.228 113.241C613.934 111.947 611.83 111.3 608.918 111.3H606.005V136.357H608.918ZM608.432 108.094C611.345 108.094 613.449 107.476 614.743 106.238C616.118 104.945 616.806 102.92 616.806 100.164V91.8958C616.806 89.0273 616.118 86.9744 614.743 85.737C613.449 84.4996 611.345 83.8809 608.432 83.8809H606.005V108.094H608.432Z" fill="black"/>
<path d="M633.496 139.648V80.5906H638.715V103.201H641.506C645.875 103.201 649.232 104.157 651.578 106.069C653.924 107.982 655.098 110.794 655.098 114.506V128.342C655.098 130.817 654.572 132.898 653.52 134.586C652.468 136.273 650.931 137.538 648.908 138.382C646.886 139.226 644.418 139.648 641.506 139.648H633.496ZM641.506 136.357C644.337 136.357 646.441 135.739 647.816 134.501C649.192 133.208 649.879 131.155 649.879 128.342V114.506C649.879 111.694 649.192 109.669 647.816 108.432C646.441 107.138 644.337 106.491 641.506 106.491H638.715V136.357H641.506Z" fill="black"/>
<path d="M688.199 140.238C684.64 140.238 681.929 139.395 680.068 137.707C678.289 136.02 677.399 133.489 677.399 130.114V111.722H670.239V139.648H665.02V80.5906H670.239V108.347H677.399V90.1241C677.399 87.9305 677.803 86.0744 678.612 84.5558C679.502 83.0372 680.756 81.9123 682.374 81.1811C683.992 80.3937 685.934 80 688.199 80C691.759 80 694.429 80.8718 696.209 82.6154C698.07 84.3027 699 86.8056 699 90.1241V130.114C699 132.364 698.595 134.248 697.786 135.767C696.977 137.229 695.764 138.354 694.146 139.141C692.528 139.873 690.545 140.238 688.199 140.238ZM688.199 136.948C690.222 136.948 691.638 136.442 692.447 135.429C693.337 134.361 693.782 132.645 693.782 130.283V89.9553C693.782 87.593 693.337 85.9057 692.447 84.8933C691.557 83.8246 690.141 83.2903 688.199 83.2903C686.258 83.2903 684.842 83.8246 683.952 84.8933C683.062 85.9057 682.617 87.593 682.617 89.9553V130.283C682.617 132.645 683.062 134.361 683.952 135.429C684.842 136.442 686.258 136.948 688.199 136.948Z" fill="black"/>
</g>
</svg>
