<svg width="40" height="40" viewBox="0 0 40 40" fill="none" xmlns="http://www.w3.org/2000/svg">
<path d="M20 0.5C30.7696 0.5 39.5 9.23045 39.5 20C39.5 30.7696 30.7696 39.5 20 39.5C9.23045 39.5 0.5 30.7696 0.5 20C0.5 9.23045 9.23045 0.5 20 0.5Z" stroke="#4F555B" stroke-opacity="0.2"/>
<g clip-path="url(#clip0_1234_717)">
<path d="M20 32C26.6274 32 32 26.6274 32 20C32 13.3726 26.6274 8 20 8C13.3726 8 8 13.3726 8 20C8 26.6274 13.3726 32 20 32Z" fill="#4F555B"/>
<path d="M20.5877 24.1152C16.0874 24.1152 13.5205 21.025 13.4136 15.8828H15.6678C15.7419 19.657 17.4038 21.2557 18.7201 21.5854V15.8828H20.8428V19.1379C22.1428 18.9978 23.5083 17.5145 23.9691 15.8828H26.0917C25.738 17.8935 24.257 19.3769 23.204 19.9867C24.257 20.4811 25.9437 21.7749 26.5854 24.1152H24.2488C23.747 22.5495 22.4965 21.3381 20.8428 21.1733V24.1152H20.5877Z" fill="white"/>
</g>
<defs>
<clipPath id="clip0_1234_717">
<rect width="24" height="24" fill="white" transform="translate(8 8)"/>
</clipPath>
</defs>
</svg>
